SplineFontDB: 1.0
FontName: Loma-Oblique
FullName: Loma Oblique
FamilyName: Loma
Weight: Book
Copyright: Copyright (c) NECTEC, 2003. All rights reserved.\nModified under GNU General Public License by TLWG.
Version: 0.9.8: 2007-04-17
ItalicAngle: -12
UnderlinePosition: -170
UnderlineWidth: 20
Ascent: 1638
Descent: 410
NeedsXUIDChange: 1
FSType: 0
OS2Version: 0
OS2_WeightWidthSlopeOnly: 0
OS2_UseTypoMetrics: 0
CreationTime: 1153662347
ModificationTime: 1177158513
PfmFamily: 33
TTFWeight: 400
TTFWidth: 5
LineGap: 0
VLineGap: 0
Panose: 2 11 5 4 2 2 2 2 2 4
OS2TypoAscent: 0
OS2TypoAOffset: 1
OS2TypoDescent: 0
OS2TypoDOffset: 1
OS2TypoLinegap: 0
OS2WinAscent: 0
OS2WinAOffset: 1
OS2WinDescent: 0
OS2WinDOffset: 1
HheadAscent: 0
HheadAOffset: 1
HheadDescent: 0
HheadDOffset: 1
OS2Vendor: 'PfEd'
ScriptLang: 3
 1 latn 1 dflt 
 1 thai 4 KUY  PAL  THA  dflt 
 1 thai 1 PAL  
ContextSub: glyph 0 2 ' RQD' 0 0 0 1
 String: 15 uni0E0D uni0E10
 BString: 0 
 FString: 0 
 1
  SeqLookup: 0 'ndsc'
EndFPST
ChainSub: class 0 1 'ccmp' 7 7 1 5
  Class: 414 uni0E01 uni0E02 uni0E03 uni0E04 uni0E05 uni0E06 uni0E07 uni0E08 uni0E09 uni0E0A uni0E0B uni0E0C uni0E0D uni0E0E uni0E0F uni0E10 uni0E11 uni0E12 uni0E13 uni0E14 uni0E15 uni0E16 uni0E17 uni0E18 uni0E19 uni0E1A uni0E1B uni0E1C uni0E1D uni0E1E uni0E1F uni0E20 uni0E21 uni0E22 uni0E23 uni0E24 uni0E25 uni0E26 uni0E27 uni0E28 uni0E29 uni0E2A uni0E2B uni0E2C uni0E2D uni0E2E uni0E10.descless uni0E0D.descless dottedcircle
  Class: 7 uni0E33
  Class: 39 uni0E48 uni0E49 uni0E4A uni0E4B uni0E4C
  Class: 23 uni0E38 uni0E39 uni0E3A
  Class: 39 uni0E31 uni0E34 uni0E35 uni0E36 uni0E37
  Class: 7 uni0E4D

StartChar: .notdef
Encoding: 0 -1 0
Width: 1536
Flags: HW
Fore
256 0 m 1
 528 1280 l 1
 1552 1280 l 1
 1280 0 l 1
 256 0 l 1
295 32 m 1
 1255 32 l 1
 1513 1248 l 1
 553 1248 l 1
 295 32 l 1
EndSplineSet
EndChar
StartChar: uni0E4D.high
Encoding: 271 63262 2
Width: 0
VWidth: 2561
Flags: W
TeX: 0 0 0 0
HStem: 1726 72<64.4 169.7> 1954 73<88.3 207.9>
VStem: -13 299<1838.85 1913.16 1875 1875>
AnchorPoint: "AboveMark" 107 1740 mark 0
Fore
169 2027 m 0
 251 2027 304 1961 286 1875 c 0
 269 1795 187 1726 105 1726 c 0
 26 1726 -32 1789 -13 1875 c 0
 4 1957 88 2027 169 2027 c 0
119 1798 m 0
 158 1798 207 1834 216 1875 c 0
 225 1921 195 1954 152 1954 c 0
 103 1954 64 1917 56 1875 c 0
 47 1834 77 1798 119 1798 c 0
EndSplineSet
EndChar
StartChar: exclam
Encoding: 3 33 5
Width: 569
Flags: W
HStem: 0 194<247 370> 1430 20G<506 686>
VStem: 206 480<0 1450>
Fore
410 999 m 1
 506 1450 l 1
 686 1450 l 1
 590 999 l 1
 413 365 l 1
 320 365 l 1
 410 999 l 1
247 194 m 1
 411 194 l 1
 370 0 l 1
 206 0 l 1
 247 194 l 1
EndSplineSet
EndChar
StartChar: quotedbl
Encoding: 4 34 6
Width: 727
Flags: W
HStem: 1430 20G<414 594 747 927>
VStem: 357 570<947 1450>
Fore
357 947 m 1
 365 1217 l 1
 414 1450 l 1
 594 1450 l 1
 545 1217 l 1
 442 947 l 1
 357 947 l 1
688 947 m 1
 698 1217 l 1
 747 1450 l 1
 927 1450 l 1
 878 1217 l 1
 773 947 l 1
 688 947 l 1
EndSplineSet
EndChar
StartChar: numbersign
Encoding: 5 35 7
Width: 1139
Flags: W
HStem: -10 21G<85 265 544 723> 385 180<141 256 504 714 962 1195> 895 180<249 468 716 927 1175 1303> 1450 20G<707 887 1166 1346>
Fore
85 -10 m 1
 256 385 l 1
 103 385 l 1
 141 565 l 1
 324 565 l 1
 468 895 l 1
 211 895 l 1
 249 1075 l 1
 536 1075 l 1
 707 1470 l 1
 887 1470 l 1
 716 1075 l 1
 995 1075 l 1
 1166 1470 l 1
 1346 1470 l 1
 1175 1075 l 1
 1341 1075 l 1
 1303 895 l 1
 1107 895 l 1
 962 565 l 1
 1233 565 l 1
 1195 385 l 1
 894 385 l 1
 723 -10 l 1
 544 -10 l 1
 714 385 l 1
 436 385 l 1
 265 -10 l 1
 85 -10 l 1
504 565 m 1
 782 565 l 1
 927 895 l 1
 648 895 l 1
 504 565 l 1
EndSplineSet
EndChar
StartChar: dollar
Encoding: 6 36 8
Width: 1139
Flags: HW
VStem: 152.654 189.822<194.807 404.957> 316.092 185.904<861.964 1125.01> 946.859 189.259<288.028 578.599> 1056.55 179.841<1045.84 1181.21>
Fore
487 -17 m 1x20
 288.141 9.45762 152.654 107.3 152.654 305.745 c 0
 152.654 339.816 156.648 376.851 165 417 c 1
 344 417 l 1
 342.983 403.277 342.476 389.92 342.476 376.953 c 0xa0
 342.476 236.84 401.673 142.221 517 123 c 1
 629 651 l 1
 484.694 688.183 316.092 760.636 316.092 950.931 c 0
 328.672 1225.11 539.608 1385.32 790 1409 c 1
 807 1488 l 1
 950 1488 l 1
 933 1409 l 1
 1113.41 1391.14 1236.39 1284.73 1236.39 1114 c 0
 1236.39 1093.58 1234.63 1072.23 1231 1050 c 1
 1056 1050 l 1
 1056.37 1054.91 1056.55 1059.87 1056.55 1064.86 c 0x50
 1056.55 1154.36 997.771 1253.85 904 1269 c 1
 802 790 l 1
 803 789 l 1
 983.649 746.238 1136.12 670.726 1136.12 485.366 c 0
 1124.12 188.924 884.686 3.80767 631 -15 c 1
 609 -118 l 1
 466 -118 l 1
 487 -17 l 1x20
761 1271 m 1
 634.453 1249.62 505.322 1145.91 501.996 991.308 c 0x40
 501.996 891.813 573.638 838.355 663 810 c 1
 761 1271 l 1
946.859 445.632 m 0x20
 946.859 547.914 875.146 592.434 768 629 c 1
 660 123 l 1
 802.145 153.365 946.859 274.5 946.859 445.632 c 0x20
EndSplineSet
EndChar
StartChar: percent
Encoding: 7 37 9
Width: 1821
Flags: HW
HStem: -53 123<1335.32 1587.16> 598 123<1301.18 1564.67> 717 123<550.586 859.239> 1366 125<481.822 783.509>
VStem: 339.998 154.822<831.942 1082.7> 840.286 153.845<1133.81 1376.86> 1124.44 155.66<60.6496 404.879> 1624.4 156.39<284.228 604.231>
Fore
339.998 978.103 m 0xbf
 339.998 1168.68 451.853 1491 743 1491 c 0
 943.905 1491 994.131 1343.55 994.131 1227.26 c 0
 994.131 989.486 838.221 717 580 717 c 0
 427.575 717 339.998 813.948 339.998 978.103 c 0xbf
840.286 1225.24 m 0
 840.286 1341.87 769.314 1366 722 1366 c 0
 537.248 1366 494.82 1059.23 494.82 980.979 c 0
 494.82 866.335 564.528 840 611 840 c 0
 801.953 840 840.286 1154.91 840.286 1225.24 c 0
1534 1491 m 1
 1714 1491 l 1
 636 -10 l 1
 456 -10 l 1
 1534 1491 l 1
1124.44 209.877 m 0
 1124.44 407.394 1241.09 721 1529 721 c 0xdf
 1730.43 721 1780.79 569.567 1780.79 454.023 c 0
 1780.79 216.125 1625.06 -53 1365 -53 c 0
 1172.55 -53 1124.44 90.9128 1124.44 209.877 c 0
1624.4 456.575 m 0
 1624.4 577.007 1551.36 598 1507 598 c 0
 1348.67 599.542 1280.1 360 1280.1 210.404 c 0
 1280.1 95.2083 1349.09 70 1395 70 c 0
 1567.42 77.1666 1624.4 324 1624.4 456.575 c 0
EndSplineSet
EndChar
StartChar: ampersand
Encoding: 8 38 10
Width: 1366
Flags: HW
HStem: -25 158<354.972 744.49> 1343 148<765.979 1021.38>
VStem: 164.624 200.865<253.086 568.386> 512.806 191.912<1050.55 1277.22> 1047.21 187.33<998.579 1310.42>
Fore
1234.54 1243.79 m 0
 1234.54 990.116 936.956 850.775 875 821 c 1
 1066 485 l 1
 1108 542 1146 611 1179 690 c 1
 1359 649 l 1
 1299 522 1233 417 1161 334 c 1
 1210 247 1270 172 1342 109 c 1
 1191 -35 l 1
 1129 13 1068 82 1010 172 c 1
 865 41 711 -25 548 -25 c 0
 241.299 -25 164.624 194.6 164.624 318.787 c 0
 164.624 527.588 317.79 714.957 615 842 c 1
 567.82 915.774 512.806 1016 512.806 1106.33 c 0
 512.806 1281.67 696.01 1491 954 1491 c 0
 1151.97 1491 1234.54 1356.7 1234.54 1243.79 c 0
912 1343 m 0
 799.676 1343 704.718 1248 704.718 1150.6 c 0
 703.748 1073.64 769.948 994.818 805 938 c 1
 857.316 964.158 1047.21 1048.14 1047.21 1213.36 c 0
 1047.21 1288.02 996.141 1343 912 1343 c 0
365.489 363.849 m 0
 365.489 278.646 407.594 133 583 133 c 0
 707.223 133 854.681 226.245 927 315 c 1
 684 725 l 1
 510.114 630.878 365.489 521.185 365.489 363.849 c 0
EndSplineSet
EndChar
StartChar: quotesingle
Encoding: 9 39 11
Width: 391
Flags: W
HStem: 1446 20G<402 607>
VStem: 337 270<947 1466>
Fore
337 947 m 1
 350 1221 l 1
 402 1466 l 1
 607 1466 l 1
 555 1221 l 1
 448 947 l 1
 337 947 l 1
EndSplineSet
EndChar
StartChar: parenleft
Encoding: 10 40 12
Width: 682
Flags: HW
VStem: 207.6 178.966<-7.13147 953.926>
Fore
387 -431 m 1
 250.978 -193.656 207.6 53.2289 207.6 254.43 c 0
 207.6 817.567 544.396 1229.23 796 1491 c 1
 925 1491 l 1
 648.701 1155.39 386.566 780 386.566 200.247 c 0
 386.566 -10.3583 429.9 -220.679 516 -431 c 1
 387 -431 l 1
EndSplineSet
EndChar
StartChar: parenright
Encoding: 11 41 13
Width: 682
Flags: HW
VStem: 576.825 177.945<202.372 1112.29>
Fore
754.77 836.793 m 0
 754.77 285.322 424.688 -167.312 161 -431 c 1
 32 -431 l 1
 319.003 -87.0263 576.825 360.715 576.825 888.525 c 0
 576.825 1158.08 485.017 1358.95 441 1491 c 1
 570 1491 l 1
 699.972 1248.19 754.77 1048.71 754.77 836.793 c 0
EndSplineSet
EndChar
StartChar: asterisk
Encoding: 12 42 14
Width: 797
Flags: W
HStem: 867 624<638 712>
VStem: 318 661<1197 1197>
Fore
318 1197 m 1
 395 1339 l 1
 493 1302 563 1269 605 1242 c 1
 618 1363 629 1446 638 1491 c 1
 783 1491 l 1
 767 1425 741 1342 707 1243 c 1
 784 1278 868 1310 964 1339 c 1
 979 1197 l 1
 888 1169 801 1150 719 1141 c 1
 752 1106 796 1043 850 952 c 1
 712 867 l 1
 685 920 655 991 621 1082 c 1
 552 988 493 916 445 867 c 1
 345 952 l 1
 443 1047 512 1110 552 1141 c 1
 469 1158 391 1176 318 1197 c 1
EndSplineSet
EndChar
StartChar: plus
Encoding: 13 43 15
Width: 1196
Flags: MW
HStem: 639 168<286 649 250 685 286 819 855 1218>
Fore
563 237 m 1
 649 639 l 1
 250 639 l 1
 286 807 l 1
 685 807 l 1
 769 1206 l 1
 939 1206 l 1
 855 807 l 1
 1254 807 l 1
 1218 639 l 1
 819 639 l 1
 733 237 l 1
 563 237 l 1
EndSplineSet
EndChar
StartChar: comma
Encoding: 14 44 16
Width: 569
Flags: HW
HStem: -20 20G<182 284>
VStem: 125 306<-213 205>
Fore
182 0 m 1
 226 205 l 1
 431 205 l 1
 387 0 l 2
 355.886 -145.849 287.28 -239.5 158 -290 c 1
 125 -213 l 1
 209.414 -177.999 254.48 -120.047 284 0 c 1
 182 0 l 1
EndSplineSet
EndChar
StartChar: hyphen
Encoding: 15 45 17
Width: 682
Flags: MW
HStem: 440 181<159 750 197 712>
Fore
159 440 m 1
 197 621 l 1
 750 621 l 1
 712 440 l 1
 159 440 l 1
EndSplineSet
EndChar
StartChar: period
Encoding: 16 46 18
Width: 569
Flags: W
HStem: 0 205<230 391>
VStem: 186 249<0 205>
Fore
186 0 m 1
 230 205 l 1
 435 205 l 1
 391 0 l 1
 186 0 l 1
EndSplineSet
EndChar
StartChar: slash
Encoding: 17 47 19
Width: 595
Flags: HW
Fore
-83 -10 m 1
 818 1470 l 1
 1000 1470 l 1
 100 -10 l 1
 -83 -10 l 1
EndSplineSet
EndChar
StartChar: zero
Encoding: 18 48 20
Width: 1139
Flags: HW
HStem: -10 150<413.517 769.666> 1309 150<623.2 1019.19>
VStem: 201.059 184.844<178.002 579.967> 1046.91 185.54<818.214 1270.49>
Fore
561 -10 m 0
 305.688 -10 201.059 143.79 201.059 403.822 c 0
 201.059 574.938 261.202 913.653 376 1133 c 0
 489 1350 655 1459 873 1459 c 0
 1112.63 1459 1232.45 1319.88 1232.45 1041.21 c 0
 1232.45 800.328 1142.67 459.86 1040 285 c 0
 928 96 770 -2 561 -10 c 0
593 140 m 0
 959.725 141.881 1046.91 864.565 1046.91 1019.07 c 0
 1046.91 1212.47 977.604 1309 839 1309 c 0
 673 1309 521.998 1190.8 424 723 c 0
 411.52 664.439 385.903 544.208 385.903 425.014 c 0
 385.903 235.005 454.936 140 593 140 c 0
EndSplineSet
EndChar
StartChar: one
Encoding: 19 49 21
Width: 1139
Flags: W
HStem: 0 21G<583 763> 1452 20G<896 1076>
VStem: 416 660<907 1472>
Fore
763 0 m 1
 583 0 l 1
 824 1135 l 1
 767 1069 689 1013 590 966 c 0
 530 937 472 918 416 907 c 1
 458 1104 l 1
 573 1153 677 1221 768 1306 c 0
 828 1363 871 1419 896 1472 c 1
 1076 1472 l 1
 763 0 l 1
EndSplineSet
KernsSLIFO: 21 -152 0 0
EndChar
StartChar: two
Encoding: 20 50 22
Width: 1139
Flags: HW
HStem: 0 173<349 1031> 1333 149<578.78 1031.66>
VStem: 1079.96 188.13<1013.82 1289.18>
Fore
887 1482 m 0
 1189.44 1482 1268.09 1296.88 1268.09 1170.61 c 0
 1268.09 1050 1229.52 903.736 1023 705 c 0
 852.856 541.267 470 345 349 173 c 1
 1068 173 l 1
 1031 0 l 1
 62 0 l 1
 210.003 499.081 1079.96 707.738 1079.96 1139.09 c 0
 1079.96 1254.54 989.967 1333 851 1333 c 0
 641.6 1333 535.316 1186.84 502 1039 c 1
 317 1039 l 1
 368.591 1285.49 583.016 1482 887 1482 c 0
EndSplineSet
EndChar
StartChar: three
Encoding: 21 51 23
Width: 1139
Flags: HW
HStem: -10 166<401.565 742.114> 713 137<629.196 891.654> 1070 21G<331 511> 1317 165<631.359 982.57>
VStem: 167.982 181.768<208.34 432.915> 957.859 194.291<455.537 613.36> 1030.11 186.47<943.191 1292.63>
Fore
167.982 341.949 m 0xfc
 167.982 367.471 169.626 393.817 177 427 c 1
 357 427 l 1
 354.677 408.389 349.784 392.16 349.75 371.296 c 0
 349.75 245.945 444.127 156 586 156 c 0
 812.235 156 957.859 336.505 957.859 516.226 c 0xfc
 957.859 642.852 867.829 713 728 713 c 0
 685 713 638 707 589 694 c 1
 622 852 l 1
 676 850 l 2
 855.753 843.342 1030.11 992.751 1030.11 1157.95 c 0
 1030.11 1261.55 947.131 1317 829 1317 c 0
 676.969 1321.44 565.748 1222.37 511 1070 c 1
 331 1070 l 1
 380.364 1294.38 611.433 1482 860 1482 c 0
 1089.36 1482 1216.58 1341.72 1216.58 1180.13 c 0xfa
 1216.58 982.372 1068.41 847.086 941 794 c 1
 1146.91 743.993 1152.15 595.703 1152.15 536.846 c 0
 1152.15 496.759 1139.51 293.76 949 135 c 0
 847.052 50.8951 697.78 -10 550 -10 c 0
 312.88 -10 167.982 147.3 167.982 341.949 c 0xfc
EndSplineSet
EndChar
StartChar: four
Encoding: 22 52 24
Width: 1139
Flags: W
HStem: 0 21G<662 842> 347 175<362 736 953 1114> 1452 20G<975 1155>
Fore
662 0 m 1
 736 347 l 1
 100 347 l 1
 137 522 l 1
 975 1472 l 1
 1155 1472 l 1
 953 522 l 1
 1151 522 l 1
 1114 347 l 1
 916 347 l 1
 842 0 l 1
 662 0 l 1
773 522 m 1
 899 1117 l 1
 362 522 l 1
 773 522 l 1
EndSplineSet
EndChar
StartChar: five
Encoding: 23 53 25
Width: 1139
Flags: HW
HStem: -10 164<392.789 929.615> 817 170<661.253 932.582> 1292 180<698 1263>
VStem: 169.113 191.945<189.311 423.356> 982.015 196.485<349.943 778.977>
Fore
554 -10 m 0
 246.09 -10 169.113 185.522 169.113 347.944 c 0
 169.113 369.45 170.398 391.802 173 415 c 1
 362 415 l 1
 361.372 404.718 361.058 394.737 361.058 385.058 c 0
 361.058 234.484 438.068 154 589 154 c 0
 851.011 154 982.015 405.144 982.015 589.149 c 0
 982.015 735.171 885.14 817 727 817 c 0
 628 817 536 773 452 686 c 1
 267 708 l 1
 572 1472 l 1
 1301 1472 l 1
 1263 1292 l 1
 698 1292 l 1
 540 920 l 1
 603.681 965.31 695.81 987 811 987 c 0
 1048 987 1178.5 830.058 1178.5 631.596 c 0
 1178.5 328.12 928.7 -10 554 -10 c 0
EndSplineSet
EndChar
StartChar: six
Encoding: 24 54 26
Width: 1139
Flags: HW
HStem: -10 165<389.934 927.679> 807 170<618.96 936.136> 1305 177<597.3 1003.86>
VStem: 193.037 205.592<263.41 531.034> 974.106 187.864<343.635 756.107> 1074 188.06<1103 1314.89>
Fore
1262.06 1182.46 m 0xf4
 1262.06 1142.72 1256.45 1118.53 1253 1103 c 1
 1074 1103 l 1xf4
 1072.61 1265.99 972.74 1305 869 1305 c 0
 660 1305 521 1151 450 842 c 1
 548.318 939.041 661.2 977 802 977 c 0
 1017.98 977 1161.97 821.972 1161.97 605.249 c 0xf8
 1161.97 338.836 943.514 -10 584 -10 c 0
 271.23 -10 193.037 204.064 193.037 425.128 c 0
 193.037 506.594 203.925 598.651 226 701 c 0
 331.959 1200.33 559.829 1482 918 1482 c 0
 1137.59 1482 1262.06 1342.75 1262.06 1182.46 c 0xf4
748 807 m 0
 507.741 807 398.629 564.25 398.629 389.823 c 0
 398.629 292.582 442.103 155 616 155 c 0
 855.753 155 974.106 397.494 974.106 577.022 c 0xf8
 974.106 714.779 892.72 807 748 807 c 0
EndSplineSet
EndChar
StartChar: seven
Encoding: 25 55 27
Width: 1139
Flags: W
HStem: 0 21G<293 511> 1292 180<410 1070>
Fore
372 1292 m 1
 410 1472 l 1
 1359 1472 l 1
 1321 1292 l 1
 1131 1111 966 911 822 692 c 0
 661 446 557 215 511 0 c 1
 293 0 l 1
 344 235 464 494 651 776 c 0
 785 979 925 1151 1070 1292 c 1
 372 1292 l 1
EndSplineSet
EndChar
StartChar: eight
Encoding: 26 56 28
Width: 1139
Flags: HW
HStem: -10 157<387.51 907.37> 699 181<598.474 908.125> 1326 156<645.5 999.186>
VStem: 176 177.304<368.205 476.19> 368.316 186.918<910.792 1265.58> 964.723 186.557<318.591 670.172> 1044 188.41<1032.31 1291.27>
Fore
176 439 m 1xfc
 230.527 692.892 417.222 776.761 533 805 c 1
 423.211 848.916 368.316 923.255 368.316 1027.48 c 0
 368.316 1233.06 551.214 1482 878 1482 c 0
 1107 1482 1232.41 1351.63 1232.41 1185.15 c 0xfa
 1232.41 1067.58 1183.38 902.063 972 816 c 2
 944 805 l 1
 1107.24 748.055 1155.7 638.328 1151.28 524.355 c 0
 1139 208 899.07 -10 564 -10 c 0
 298.62 -10 164.065 144.204 164.065 332.547 c 0
 164.065 385.773 176 428.355 176 439 c 1xfc
1044 1153.98 m 0
 1044 1259.59 964.066 1326 847 1326 c 0
 692 1326 555.234 1216 555.234 1050.74 c 0
 555.234 943.088 634.365 880 754 880 c 0
 931.2 880 1044 1017.72 1044 1153.98 c 0
711 699 m 0
 430.012 699 353.304 484.804 353.304 368.205 c 0
 353.304 249.587 436.315 147 599 147 c 0
 836.208 147 964.723 338.731 964.723 499.718 c 0xfc
 964.723 630.836 862.635 699 711 699 c 0
EndSplineSet
EndChar
StartChar: nine
Encoding: 27 57 29
Width: 1139
Flags: HW
HStem: -10 177<470.088 872.7> 495 170<534.864 857.052> 1317 165<559.9 1081.06>
VStem: 208.938 187.062<155.338 369> 309.029 187.865<715.893 1145.91> 1072.37 205.38<942.665 1208.04>
Fore
208.938 289.542 m 0xf4
 208.938 329.231 215.236 353.125 217 369 c 1
 396 369 l 1xf4
 398.809 204.645 500.299 167 601 167 c 0
 810 167 950 321 1021 630 c 1
 927.064 537.284 813.655 495 669 495 c 0
 453.017 495 309.029 650.028 309.029 866.751 c 0xec
 309.029 1147.62 540.217 1482 887 1482 c 0
 1199.6 1482 1277.75 1267.74 1277.75 1049.37 c 0
 1277.75 967.289 1266.63 874.397 1245 771 c 0
 1139.04 271.67 911.171 -10 553 -10 c 0
 333.408 -10 208.938 129.254 208.938 289.542 c 0xf4
723 665 m 0
 962.118 665 1072.37 907.341 1072.37 1082.18 c 0
 1072.37 1178.99 1028.9 1317 855 1317 c 0
 628 1317 496.894 1088 496.894 894.978 c 0xec
 496.894 757.221 578.28 665 723 665 c 0
EndSplineSet
EndChar
StartChar: colon
Encoding: 28 58 30
Width: 569
Flags: W
HStem: 0 205<229 390> 857 205<411 572>
VStem: 185 431<0 1062>
Fore
367 857 m 1
 411 1062 l 1
 616 1062 l 1
 572 857 l 1
 367 857 l 1
185 0 m 1
 229 205 l 1
 434 205 l 1
 390 0 l 1
 185 0 l 1
EndSplineSet
EndChar
StartChar: semicolon
Encoding: 29 59 31
Width: 569
Flags: HW
HStem: -20 20G<182 284> 857 205<408 569>
VStem: 125 488<-213 1062>
Fore
364 857 m 1
 408 1062 l 1
 613 1062 l 1
 569 857 l 1
 364 857 l 1
182 0 m 1
 226 205 l 1
 431 205 l 1
 387 0 l 2
 354.039 -149.066 282.408 -241.142 158 -290 c 1
 125 -213 l 1
 213.431 -177.628 258.92 -106.589 284 0 c 1
 182 0 l 1
EndSplineSet
EndChar
StartChar: less
Encoding: 30 60 32
Width: 1196
Flags: HW
Fore
248 641 m 1
 284 809 l 1
 1342 1219 l 1
 1304 1040 l 1
 467 724 l 1
 1169 405 l 1
 1131 226 l 1
 248 641 l 1
EndSplineSet
EndChar
StartChar: equal
Encoding: 31 61 33
Width: 1196
Flags: W
HStem: 417 168<238 1171> 862 168<333 1265>
Fore
1265 862 m 1
 297 862 l 1
 333 1030 l 1
 1301 1030 l 1
 1265 862 l 1
1171 417 m 1
 203 417 l 1
 238 585 l 1
 1206 585 l 1
 1171 417 l 1
EndSplineSet
EndChar
StartChar: greater
Encoding: 32 62 34
Width: 1196
Flags: HW
Fore
1219 641 m 1
 160 226 l 1
 198 405 l 1
 1035 724 l 1
 333 1040 l 1
 371 1219 l 1
 1255 809 l 1
 1219 641 l 1
EndSplineSet
EndChar
StartChar: question
Encoding: 33 63 35
Width: 1139
Flags: HW
HStem: 0 205<505 666> 1341 163<573.691 1092.08>
VStem: 1089.67 189.65<763.99 1244.86>
Fore
885 1504 m 0
 1161.94 1504 1279.32 1332.42 1279.32 1179.65 c 0
 1279.32 775 810.128 772.08 722 361 c 1
 549 361 l 1
 567 436 l 2
 673.785 829.156 1089.67 850 1089.67 1136.7 c 0
 1089.67 1219.9 1036.91 1341 853 1341 c 0
 638.147 1339.47 541.824 1167.02 497 1046 c 1
 312 1046 l 1
 381.027 1300.42 598.401 1504 885 1504 c 0
461 0 m 1
 505 205 l 1
 710 205 l 1
 666 0 l 1
 461 0 l 1
EndSplineSet
EndChar
StartChar: at
Encoding: 34 64 36
Width: 2079
Flags: HW
HStem: -431 157<519.546 1601.77> -33 194<1236.03 1260.5 1395.64 1684.47> -3 164<789.297 1025.9> 925 159<892.734 1365.72> 1338 155<558.913 1836>
VStem: 185.421 163.724<-220.317 917.105> 584.379 182.82<205.255 635.716> 1966.41 159.45<401.312 1230.81>
Fore
1347 -33 m 0xdf
 1261.64 -33 1184.6 -8.8368 1184.6 87.816 c 0
 1184.6 97.96 1185.4 109 1187 121 c 1
 1098 38 986 -3 853 -3 c 0xbf
 638.103 -3 584.379 193.076 584.379 321.87 c 0
 584.379 704.696 944.675 1084 1241 1084 c 0
 1383 1084 1474 1035 1512 938 c 1
 1576 1079 l 1
 1755 1079 l 1
 1461 379 l 2
 1391.66 214.648 1404.07 228.797 1398 212 c 1
 1399.23 199.661 1409.8 163 1457 163 c 0
 1631.98 163 1966.41 505.664 1966.41 853.506 c 0
 1966.41 1143.74 1730.08 1338 1377 1338 c 0
 747.702 1338 349.145 770.882 349.145 283.471 c 0
 349.145 -104.058 644.728 -274 1062 -274 c 0
 1521.6 -274 1752.05 -64.5403 1828 19 c 1
 2009 19 l 1
 1829.34 -238.776 1470.05 -431 1031 -431 c 0
 540.831 -431 185.421 -220.187 185.421 239.823 c 0
 185.421 809.907 658.674 1493 1419 1493 c 0
 1854.12 1493 2125.86 1248.03 2125.86 880.576 c 0
 2125.86 421.971 1688.03 -33 1347 -33 c 0xdf
767.199 351.69 m 0
 767.199 239.048 820.613 161 925 161 c 0
 1183.07 161 1392.35 523.004 1392.35 746.533 c 0
 1392.35 859.802 1332.32 925 1221 925 c 0
 968.488 925 767.199 570.172 767.199 351.69 c 0
EndSplineSet
EndChar
StartChar: A
Encoding: 35 65 37
Width: 1366
Flags: W
HStem: 0 21G<-2 203 1149 1368> 471 182<574 1042> 1430 20G<867 1076>
Fore
867 1450 m 1
 1076 1450 l 1
 1368 0 l 1
 1149 0 l 1
 1048 471 l 1
 492 471 l 1
 203 0 l 1
 -2 0 l 1
 867 1450 l 1
1042 653 m 1
 922 1237 l 1
 574 653 l 1
 1042 653 l 1
EndSplineSet
KernsSLIFO: 93 -37 0 0 91 -37 0 0 90 -37 0 0 61 -152 0 0 59 -76 0 0 58 -152 0 0 56 -152 0 0
EndChar
StartChar: B
Encoding: 36 66 38
Width: 1366
Flags: HW
HStem: 0 173<381 1212.7> 669 173<523 1010> 1277 173<615 1151.1>
VStem: 1151.94 203.17<329.917 637.781> 1225.74 197.25<954.357 1316.54>
Fore
1145 772 m 1xe8
 1306.63 721.971 1355.11 606.416 1355.11 501.866 c 0xf0
 1355.11 209.776 1115 3.54936e-05 709 0 c 2
 164 0 l 1
 472 1450 l 1
 1008 1450 l 2
 1260 1450 1422.99 1365 1422.99 1151.91 c 0
 1422.99 999.946 1321.53 850.973 1145 772 c 1xe8
523 842 m 1
 840 842 l 2
 1015 842 1225.74 875 1225.74 1114.86 c 0xe8
 1225.74 1270 1095 1277 908 1277 c 2
 615 1277 l 1
 523 842 l 1
1151.94 481.944 m 0xf0
 1151.94 639.795 1010 669 825 669 c 2
 486 669 l 1
 381 173 l 1
 746 173 l 2
 1105 173 1151.94 365 1151.94 481.944 c 0xf0
EndSplineSet
EndChar
StartChar: C
Encoding: 37 67 39
Width: 1479
Flags: HW
HStem: -10 180<586.063 1064.23> 1297 180<507.309 1325.17>
VStem: 239.109 200.633<153.546 983.793> 1408 188<1032.98 1245.13>
Fore
824 170 m 0
 1064.29 170 1256.41 302.527 1312 480 c 1
 1500 480 l 1
 1311.19 75.1124 1000.71 -10 789 -10 c 0
 500.932 -10 239.109 101.354 239.109 546.769 c 0
 239.109 1000.71 571.74 1477 1108 1477 c 0
 1498.4 1477 1583.94 1212.77 1596 1050 c 1
 1408 1050 l 1
 1392.96 1215.49 1265.36 1297 1066 1297 c 0
 636.238 1297 439.742 890.924 439.742 581.36 c 0
 439.742 252.272 640.971 170 824 170 c 0
EndSplineSet
EndChar
StartChar: D
Encoding: 38 68 40
Width: 1479
Flags: HW
HStem: 0 173<387 1255.4> 1277 173<621 1232.2>
VStem: 1360.14 205.88<672.823 1291.43>
Fore
981 1450 m 2
 1425 1450 1566.02 1264.24 1566.02 985.589 c 0
 1566.02 745 1479 6.83646e-05 697 0 c 2
 168 0 l 1
 476 1450 l 1
 981 1450 l 2
1360.14 916.142 m 0
 1360.14 1204.83 1165 1277 941 1277 c 2
 621 1277 l 1
 387 173 l 1
 712 173 l 2
 1130 173 1360.14 500 1360.14 916.142 c 0
EndSplineSet
EndChar
StartChar: E
Encoding: 39 69 41
Width: 1366
Flags: W
HStem: 0 179<379 1222> 646 180<517 1158> 1268 182<611 1492>
Fore
162 0 m 1
 470 1450 l 1
 1530 1450 l 1
 1492 1268 l 1
 611 1268 l 1
 517 826 l 1
 1197 826 l 1
 1158 646 l 1
 478 646 l 1
 379 179 l 1
 1260 179 l 1
 1222 0 l 1
 162 0 l 1
EndSplineSet
EndChar
StartChar: F
Encoding: 40 70 42
Width: 1251
Flags: W
HStem: 0 21G<168 347> 641 179<521 1145> 1271 179<617 1427>
Fore
168 0 m 1
 476 1450 l 1
 1465 1450 l 1
 1427 1271 l 1
 617 1271 l 1
 521 820 l 1
 1183 820 l 1
 1145 641 l 1
 483 641 l 1
 347 0 l 1
 168 0 l 1
EndSplineSet
KernsSLIFO: 37 -113 0 0 18 -227 0 0 16 -227 0 0
EndChar
StartChar: G
Encoding: 41 71 43
Width: 1479
Flags: HW
HStem: -10 180<424.372 1110> 504 180<1050 1319> 1297 180<507.309 1411.95>
VStem: 239.109 200.633<323.353 983.793> 1408 188<1034.81 1192.39>
Fore
439.742 581.36 m 0
 439.742 382.893 516.594 170 824 170 c 0
 1044 170 1276.49 304 1319 504 c 1
 1012 504 l 1
 1050 684 l 1
 1549 684 l 1
 1479 256 1245.4 -10 789 -10 c 0
 500.93 -10 239.109 101.354 239.109 546.769 c 0
 239.109 1000.71 571.74 1477 1108 1477 c 0
 1498.4 1477 1583.94 1212.77 1596 1050 c 1
 1408 1050 l 1
 1399.15 1159.17 1332.11 1297 1066 1297 c 0
 636.238 1297 439.742 890.924 439.742 581.36 c 0
EndSplineSet
EndChar
StartChar: H
Encoding: 42 72 44
Width: 1479
Flags: W
HStem: 0 21G<164 344 1134 1314> 668 180<524 1276> 1430 20G<472 652 1442 1622>
Fore
164 0 m 1
 472 1450 l 1
 652 1450 l 1
 524 848 l 1
 1314 848 l 1
 1442 1450 l 1
 1622 1450 l 1
 1314 0 l 1
 1134 0 l 1
 1276 668 l 1
 486 668 l 1
 344 0 l 1
 164 0 l 1
EndSplineSet
EndChar
StartChar: I
Encoding: 43 73 45
Width: 650
Flags: W
HStem: 0 160<59 269 449 625> 1290 160<333 509 689 899>
VStem: 25 908<0 1450>
Fore
659 160 m 1
 625 0 l 1
 25 0 l 1
 59 160 l 1
 269 160 l 1
 509 1290 l 1
 299 1290 l 1
 333 1450 l 1
 933 1450 l 1
 899 1290 l 1
 689 1290 l 1
 449 160 l 1
 659 160 l 1
EndSplineSet
EndChar
StartChar: J
Encoding: 44 74 46
Width: 1024
Flags: HW
HStem: -10 180<386.93 739.8> 1280 170<716 957>
VStem: 136.614 187.785<163.441 375.29>
Fore
324.399 333.819 m 0
 324.399 202.759 412.562 170 498 170 c 0
 684 170 744.08 278.534 785 471 c 2
 957 1280 l 1
 680 1280 l 1
 716 1450 l 1
 1173 1450 l 1
 962 456 l 2
 888.936 111.801 708.56 -10 461 -10 c 0
 273.4 -10 136.614 70.5573 136.614 269.749 c 0
 136.614 330.26 148.201 395.27 161 455 c 1
 341 455 l 1
 334.746 416.583 324.399 377.799 324.399 333.819 c 0
EndSplineSet
EndChar
StartChar: K
Encoding: 45 75 47
Width: 1366
Flags: W
HStem: 0 21G<150 330 1113 1346> 1430 20G<458 638 1380 1624>
Fore
150 0 m 1
 458 1450 l 1
 638 1450 l 1
 497 785 l 1
 1380 1450 l 1
 1624 1450 l 1
 781 806 l 1
 1346 0 l 1
 1113 0 l 1
 621 670 l 1
 445 539 l 1
 330 0 l 1
 150 0 l 1
EndSplineSet
EndChar
StartChar: L
Encoding: 46 76 48
Width: 1139
Flags: MW
HStem: 0 170<366 1060> 1430 20G<458 638>
Fore
150 0 m 1
 458 1450 l 1
 638 1450 l 1
 366 170 l 1
 1096 170 l 1
 1060 0 l 1
 150 0 l 1
EndSplineSet
KernsSLIFO: 93 -76 0 0 61 -152 0 0 59 -152 0 0 58 -152 0 0 56 -152 0 0
EndChar
StartChar: M
Encoding: 47 77 49
Width: 1706
Flags: W
HStem: 0 21G<152 332 706 996 1370 1550> 1430 20G<460 640 1678 1858>
Fore
152 0 m 1
 460 1450 l 1
 640 1450 l 1
 879 133 l 1
 1678 1450 l 1
 1858 1450 l 1
 1550 0 l 1
 1370 0 l 1
 1575 964 l 1
 996 0 l 1
 706 0 l 1
 537 964 l 1
 332 0 l 1
 152 0 l 1
EndSplineSet
EndChar
StartChar: N
Encoding: 48 78 50
Width: 1479
Flags: W
HStem: 0 21G<156 336 1131 1311> 1430 20G<464 644 1439 1619>
Fore
156 0 m 1
 464 1450 l 1
 644 1450 l 1
 1198 315 l 1
 1439 1450 l 1
 1619 1450 l 1
 1311 0 l 1
 1131 0 l 1
 577 1136 l 1
 336 0 l 1
 156 0 l 1
EndSplineSet
EndChar
StartChar: O
Encoding: 49 79 51
Width: 1593
Flags: HW
HStem: -10 180<420.385 1497.82> 1298 180<835.5 1414.05>
VStem: 235.556 200.776<331.608 663.286> 1472.33 201.99<614.733 1222.67>
Fore
798 -10 m 0
 415.935 -10 235.556 235.666 235.556 531.76 c 0
 235.556 748.061 332.543 1069.28 558 1271 c 0
 714 1407 900 1476 1115 1478 c 0
 1474.96 1478 1674.32 1263.69 1674.32 939.143 c 0
 1674.32 470.554 1338.85 -10 798 -10 c 0
1472.33 909.757 m 0
 1472.33 1150.46 1336.5 1298 1078 1298 c 0
 731.387 1298 533.022 1074.1 455 711 c 0
 442.565 652.652 436.332 598.676 436.332 549.071 c 0
 436.332 381.792 516.066 170 835 170 c 0
 1344.86 170 1472.33 682.815 1472.33 909.757 c 0
EndSplineSet
EndChar
StartChar: P
Encoding: 50 80 52
Width: 1366
Flags: HW
HStem: 0 21G<158 338> 580 173<498 1234.2> 1277 173<609 1287.58>
VStem: 1301.55 204.27<904.339 1246.56>
Fore
158 0 m 1
 466 1450 l 1
 1019 1450 l 2
 1358.8 1460.11 1505.82 1360 1505.82 1123.87 c 0
 1505.82 955 1405 580 851 580 c 2
 461 580 l 1
 338 0 l 1
 158 0 l 1
498 753 m 1
 891 753 l 2
 1155 753 1301.55 880 1301.55 1088.13 c 0
 1301.55 1210 1255 1277 998 1277 c 2
 609 1277 l 1
 498 753 l 1
EndSplineSet
KernsSLIFO: 37 -152 0 0 18 -264 0 0 16 -264 0 0
EndChar
StartChar: Q
Encoding: 51 81 53
Width: 1659
Flags: HW
HStem: -14 189<1379.76 1488.47> -10 177<760.062 997.686> 297 178<909.489 1042.5> 1298 180<835.5 1414.05>
VStem: 235.556 200.776<344.748 663.02> 1472.33 201.99<670.629 1222.67>
Fore
996 475 m 0x3c
 1160.58 473.191 1244.06 390.271 1269 354 c 1
 1379.74 458.109 1466.5 684.897 1472.33 909.757 c 0
 1472.33 1150.46 1336.5 1298 1078 1298 c 0
 731.387 1298 533.022 1074.1 455 711 c 0
 442.565 652.334 436.332 598.14 436.332 548.387 c 0
 436.332 391.741 497.428 291.835 592 230 c 1
 669.003 391.706 849.363 475 996 475 c 0x3c
1674.32 939.143 m 0
 1674.32 732.594 1582.76 349.652 1360 204 c 1
 1373 185 1395 176 1427 175 c 0
 1473.43 175 1536.31 196.282 1581 228 c 1
 1678 90 l 1
 1589 21 1495 -14 1396 -14 c 0xbc
 1302.59 -14 1215.87 19.0335 1175 88 c 1
 1051.22 19.5058 958.5 -10 798 -10 c 0x7c
 415.93 -10 235.556 235.666 235.556 531.76 c 0
 235.556 748.061 332.543 1069.28 558 1271 c 0
 714 1407 900 1476 1115 1478 c 0
 1474.96 1478 1674.32 1263.69 1674.32 939.143 c 0
1098 226 m 1
 1068 273 1026 297 971 297 c 0
 923.684 297 825.813 275.627 775 174 c 1
 791 169 811 167 838 167 c 0x7c
 960.835 168.575 1057.33 197.841 1098 226 c 1
EndSplineSet
EndChar
StartChar: R
Encoding: 52 82 54
Width: 1400
Flags: HW
HStem: 0 21G<158 338 1107 1387> 580 173<498 821> 1277 173<609 1332.1>
VStem: 1301.55 204.27<819.839 1246.56>
Fore
821 580 m 1
 461 580 l 1
 338 0 l 1
 158 0 l 1
 466 1450 l 1
 1019 1450 l 2
 1400 1450 1505.82 1340 1505.82 1123.87 c 0
 1505.82 890 1320 625 1051 596 c 1
 1387 0 l 1
 1107 0 l 1
 821 580 l 1
498 753 m 1
 891 753 l 2
 1160 753 1301.55 875 1301.55 1088.13 c 0
 1301.55 1210 1255 1277 998 1277 c 2
 609 1277 l 1
 498 753 l 1
EndSplineSet
KernsSLIFO: 61 -37 0 0 59 -37 0 0 58 -37 0 0 56 -37 0 0
EndChar
StartChar: S
Encoding: 53 83 55
Width: 1366
Flags: HW
HStem: -10 174<513.677 1050.84> 1300 171<554.068 1183.46>
VStem: 186.88 193.05<179.409 489.951> 365.491 194.693<944.7 1174.9> 1164.71 195.92<228.346 679.36> 1247.64 191.28<1009.5 1263.23>
Fore
715 -10 m 0xd8
 262.446 -10 186.88 226.761 186.88 384.602 c 0
 186.88 421.334 190.886 460.456 199 502 c 1
 382 502 l 1
 380.62 486.62 379.93 471.755 379.93 457.406 c 0
 379.93 222.681 566.598 164 743 164 c 0
 979.802 164 1164.71 280.993 1164.71 456.483 c 0xe8
 1160.94 627.927 928.926 625.687 781 666 c 0
 499.879 737.243 365.491 812.983 365.491 986.509 c 0
 365.491 1220.76 588.665 1471 977 1471 c 0
 1268 1471 1438.92 1324 1438.92 1105.8 c 0
 1438.92 1075.03 1434.47 1047.43 1432 1019 c 1
 1246 1019 l 1
 1247.09 1030.68 1247.64 1042.03 1247.64 1053.05 c 0xd4
 1247.64 1214.73 1129.12 1300 948 1300 c 0
 644.975 1300 560.184 1143.63 560.184 1039.38 c 0
 560.184 966.549 599.48 904.458 866 856 c 0
 1159.79 785.957 1360.63 736.578 1360.63 522.186 c 0
 1360.63 242.488 1091.81 -10 715 -10 c 0xd8
EndSplineSet
EndChar
StartChar: T
Encoding: 54 84 56
Width: 1251
Flags: W
HStem: 0 21G<538 718> 1280 170<356 810 990 1482>
Fore
538 0 m 1
 810 1280 l 1
 320 1280 l 1
 356 1450 l 1
 1518 1450 l 1
 1482 1280 l 1
 990 1280 l 1
 718 0 l 1
 538 0 l 1
EndSplineSet
KernsSLIFO: 93 -113 0 0 91 -113 0 0 89 -76 0 0 87 -227 0 0 86 -76 0 0 83 -227 0 0 77 -76 0 0 73 -227 0 0 71 -227 0 0 69 -227 0 0 51 -37 0 0 37 -152 0 0 31 -227 0 0 30 -227 0 0 18 -227 0 0 17 -113 0 0 16 -227 0 0
EndChar
StartChar: U
Encoding: 55 85 57
Width: 1479
Flags: HW
HStem: -10 180<396.869 1235.6> 1430 20G<469 649 1442 1622>
VStem: 259.506 187.559<305.383 498.788>
Fore
447.065 441.013 m 0
 447.065 336.682 483.669 170 773 170 c 0
 1157.83 170 1224.53 428.687 1255 568 c 2
 1442 1450 l 1
 1622 1450 l 1
 1435 567 l 2
 1353 182 1121 -10 739 -10 c 0
 419.843 -10 259.506 120.549 259.506 380.887 c 0
 259.506 418.11 262.288 475.83 282 567 c 2
 469 1450 l 1
 649 1450 l 1
 462 568 l 2
 452.04 521.591 447.065 479.268 447.065 441.013 c 0
EndSplineSet
EndChar
StartChar: V
Encoding: 56 86 58
Width: 1366
Flags: W
HStem: 0 21G<577 776> 1430 20G<317 527 1460 1658>
Fore
577 0 m 1
 317 1450 l 1
 527 1450 l 1
 736 279 l 1
 1460 1450 l 1
 1658 1450 l 1
 776 0 l 1
 577 0 l 1
EndSplineSet
KernsSLIFO: 93 -76 0 0 89 -76 0 0 86 -76 0 0 83 -113 0 0 77 -37 0 0 73 -113 0 0 69 -152 0 0 37 -152 0 0 31 -76 0 0 30 -76 0 0 18 -188 0 0 17 -113 0 0 16 -188 0 0
EndChar
StartChar: W
Encoding: 57 87 59
Width: 1933
Flags: W
HStem: 0 21G<414 612 1310 1508> 1430 20G<333 532 1142 1396 2006 2205>
Fore
414 0 m 1
 333 1450 l 1
 532 1450 l 1
 596 390 l 1
 1142 1450 l 1
 1396 1450 l 1
 1492 390 l 1
 2006 1450 l 1
 2205 1450 l 1
 1508 0 l 1
 1310 0 l 1
 1210 1170 l 1
 612 0 l 1
 414 0 l 1
EndSplineSet
KernsSLIFO: 93 -18 0 0 89 -37 0 0 86 -37 0 0 83 -37 0 0 73 -37 0 0 69 -76 0 0 37 -76 0 0 31 -37 0 0 30 -37 0 0 18 -113 0 0 17 -37 0 0 16 -113 0 0
EndChar
StartChar: X
Encoding: 58 88 60
Width: 1366
Flags: W
HStem: 0 21G<9 239 1123 1353> 1430 20G<384 614 1391 1621>
Fore
9 0 m 1
 725 756 l 1
 384 1450 l 1
 614 1450 l 1
 873 902 l 1
 1391 1450 l 1
 1621 1450 l 1
 959 756 l 1
 1353 0 l 1
 1123 0 l 1
 811 613 l 1
 239 0 l 1
 9 0 l 1
EndSplineSet
EndChar
StartChar: Y
Encoding: 59 89 61
Width: 1366
Flags: W
HStem: 0 21G<571 765> 1431 20G<314 544 1428 1658>
Fore
571 0 m 1
 703 621 l 1
 314 1451 l 1
 544 1451 l 1
 862 855 l 1
 1428 1451 l 1
 1658 1451 l 1
 897 621 l 1
 765 0 l 1
 571 0 l 1
EndSplineSet
KernsSLIFO: 90 -113 0 0 89 -113 0 0 85 -188 0 0 84 -152 0 0 83 -188 0 0 77 -76 0 0 73 -188 0 0 69 -152 0 0 37 -152 0 0 31 -133 0 0 30 -113 0 0 18 -264 0 0 17 -188 0 0 16 -264 0 0
EndChar
StartChar: Z
Encoding: 60 90 62
Width: 1251
Flags: W
HStem: 0 180<363 1200> 1270 180<353 1215>
Fore
41 0 m 1
 81 187 l 1
 1215 1270 l 1
 315 1270 l 1
 353 1450 l 1
 1521 1450 l 1
 1483 1270 l 1
 363 180 l 1
 1238 180 l 1
 1200 0 l 1
 41 0 l 1
EndSplineSet
EndChar
StartChar: bracketleft
Encoding: 61 91 63
Width: 569
Flags: W
HStem: -407 149<264 449> 1317 149<599 816>
VStem: 52 796<-407 1466>
Fore
52 -407 m 1
 451 1466 l 1
 848 1466 l 1
 816 1317 l 1
 599 1317 l 1
 264 -258 l 1
 481 -258 l 1
 449 -407 l 1
 52 -407 l 1
EndSplineSet
EndChar
StartChar: backslash
Encoding: 62 92 64
Width: 569
Flags: W
Fore
420 -25 m 1
 317 1491 l 1
 462 1491 l 1
 564 -25 l 1
 420 -25 l 1
EndSplineSet
EndChar
StartChar: bracketright
Encoding: 63 93 65
Width: 569
Flags: W
HStem: -407 149<-16 201> 1317 149<351 536>
VStem: -48 796<-407 1466>
Fore
349 -407 m 1
 -48 -407 l 1
 -16 -258 l 1
 201 -258 l 1
 536 1317 l 1
 319 1317 l 1
 351 1466 l 1
 748 1466 l 1
 349 -407 l 1
EndSplineSet
EndChar
StartChar: asciicircum
Encoding: 64 94 66
Width: 961
Flags: W
HStem: 690 801<386 724>
VStem: 201 853<690 690>
Fore
386 690 m 1
 201 690 l 1
 724 1491 l 1
 869 1491 l 1
 1054 690 l 1
 873 690 l 1
 753 1287 l 1
 386 690 l 1
EndSplineSet
EndChar
StartChar: underscore
Encoding: 65 95 67
Width: 1139
Flags: W
HStem: -407 130<-90 1075>
Fore
-118 -407 m 1
 -90 -277 l 1
 1103 -277 l 1
 1075 -407 l 1
 -118 -407 l 1
EndSplineSet
EndChar
StartChar: grave
Encoding: 66 96 68
Width: 682
Flags: W
HStem: 1454 20G<402 643>
VStem: 402 317<1194 1474>
Fore
719 1194 m 1
 574 1194 l 1
 402 1474 l 1
 643 1474 l 1
 719 1194 l 1
EndSplineSet
EndChar
StartChar: a
Encoding: 67 97 69
Width: 1139
Flags: HW
HStem: -24 141<306.734 652.48> 937 149<513.321 1007.78>
VStem: 126.08 196.562<180.301 307.089> 852.962 179.928<30.268 139.466>
Fore
757 937 m 0
 569.555 937 497.84 865.371 437 735 c 1
 266 759 l 1
 349.706 974.504 531 1086 815 1086 c 0
 1115.39 1086 1164.64 966.676 1167 851 c 0
 1166 820 1158 765 1141 685 c 2
 1090 445 l 2
 1044.9 235.789 1032.89 145.949 1032.89 118.451 c 0
 1032.89 77.0354 1038.99 38.0862 1052 0 c 1
 864 0 l 1
 856.737 24.4294 852.962 51.9103 852.962 82.155 c 0
 852.962 97.718 853.962 114.013 856 131 c 1
 732.237 41.703 601.6 -24 432 -24 c 0
 179.042 -24 126.08 116.325 126.08 209.875 c 0
 126.08 359.763 231.51 526.633 456 585 c 0
 581.634 615.56 791.816 620.751 956 674 c 1
 959.239 685.569 975.727 744.955 975.727 792.258 c 0
 975.727 850.155 949.905 937 757 937 c 0
322.642 248.492 m 0
 322.642 196.038 352.488 117 505 117 c 0
 657.338 117 780.667 192.288 845 287 c 0
 873 328 895 388 912 467 c 2
 926 533 l 1
 696.35 444.421 470.469 488.736 370 370 c 0
 328.872 325.296 322.642 272.794 322.642 248.492 c 0
EndSplineSet
EndChar
StartChar: b
Encoding: 68 98 70
Width: 1139
Flags: HW
HStem: -10 159<438.943 976.177> 921 165<682.6 978.103> 1446 20G<446 626>
VStem: 1012.3 177<398.317 869.672>
Fore
594 -10 m 0
 466.317 -10 376.897 36.2925 326 119 c 1
 301 0 l 1
 134 0 l 1
 446 1466 l 1
 626 1466 l 1
 514 943 l 1
 611 1038 718 1086 836 1086 c 0
 1118.64 1086 1189.3 865.424 1189.3 705.493 c 0
 1189.3 385.321 972.251 -10 594 -10 c 0
785 921 m 0
 587.918 921 409.708 671.952 409.708 393.668 c 0
 409.708 248.546 479.11 149 613 149 c 0
 892.367 151.661 1012.3 460.953 1012.3 669.738 c 0
 1012.3 823.533 933.541 921 785 921 c 0
EndSplineSet
EndChar
StartChar: c
Encoding: 69 99 71
Width: 1024
Flags: HW
HStem: -10 170<399.817 845.438> 916 170<614.3 928.645>
VStem: 175.529 188.026<205.495 503.451> 977.714 181.586<687.968 869.434>
Fore
595 160 m 0
 851.692 161.99 898.87 343.991 914 403 c 1
 1091 403 l 1
 1015.82 96.4933 779.798 -10 561 -10 c 0
 319.962 -10 175.529 148.94 175.529 380.197 c 0
 175.529 559.85 255.552 812.175 432 958 c 0
 535 1043 656 1086 795 1086 c 0
 1106.62 1086 1159.3 904.743 1159.3 783.905 c 0
 1159.3 755.622 1155.47 713.898 1151 696 c 1
 976 696 l 1
 977.143 705.857 977.714 715.449 977.714 724.776 c 0
 977.714 836.051 891.112 916 766 916 c 0
 576 916 450 805 390 583 c 0
 376.925 532.19 363.555 459.801 363.555 407.018 c 0
 363.555 252 444.859 160 595 160 c 0
EndSplineSet
EndChar
StartChar: d
Encoding: 70 100 72
Width: 1139
Flags: HW
HStem: -10 154<384.323 704.4> 917 169<335.785 913.658> 1446 20G<1124 1303>
VStem: 165.604 185.689<192.05 578.884>
Fore
750 1086 m 0
 909.6 1086 976.591 1027.37 1016 958 c 1
 1124 1466 l 1
 1303 1466 l 1
 991 0 l 1
 824 0 l 1
 850 122 l 1
 771 34 663 -10 525 -10 c 0
 276.618 -10 165.604 167.762 165.604 375.557 c 0
 165.604 693.872 382.049 1086 750 1086 c 0
739 917 m 0
 428.834 917 351.293 535.445 351.293 390.646 c 0
 351.293 237.88 428.326 144 575 144 c 0
 731.069 144 942.513 347.96 942.513 657.033 c 0
 942.513 805.614 873.352 917 739 917 c 0
EndSplineSet
EndChar
StartChar: e
Encoding: 71 101 73
Width: 1139
Flags: HW
HStem: -10 162<349.32 809.195> 485 164<409 1000> 914 172<554.245 969.084>
VStem: 167.757 191.743<232.261 480.26> 1003.38 181.18<634.204 884.728>
Fore
359.5 383.83 m 0
 359.5 267.239 410.4 152 614 152 c 0
 764.15 149.983 873.143 217.689 933 333 c 1
 1119 333 l 1
 1034.91 128.771 839.533 -10 579 -10 c 0
 250.006 -10 167.757 186.369 167.757 363.333 c 0
 167.757 621.089 335.256 1086 802 1086 c 0
 1108.05 1086 1184.56 881.16 1184.56 698.772 c 0
 1184.56 625.151 1173.3 548.43 1156 485 c 1
 370 485 l 1
 362.991 448.254 359.5 414.53 359.5 383.83 c 0
1003.38 702.112 m 0
 1003.38 842.586 922.449 914 767 914 c 0
 603.342 914 454.377 809.882 409 649 c 1
 1000 649 l 1
 1002.25 667.688 1003.38 685.392 1003.38 702.112 c 0
EndSplineSet
EndChar
StartChar: f
Encoding: 72 102 74
Width: 569
Flags: HW
HStem: 0 21G<178 357> 785 140<216 345 554 703> 1343 172<723.714 861.333>
VStem: 178 778<0 1488>
Fore
178 0 m 1
 345 785 l 1
 186 785 l 1
 216 925 l 1
 375 925 l 1
 428 1175 l 2
 495.507 1496.78 743.396 1515 809 1515 c 0
 860 1515 909 1506 956 1488 c 1
 920 1316 l 1
 869 1334 824 1343 786 1343 c 0
 783.25 1343.12 780.516 1343.19 777.801 1343.19 c 0
 743.041 1343.19 641.181 1334.75 604 1160 c 2
 554 925 l 1
 733 925 l 1
 703 785 l 1
 524 785 l 1
 357 0 l 1
 178 0 l 1
EndSplineSet
KernsSLIFO: 74 -37 0 0
EndChar
StartChar: g
Encoding: 73 103 75
Width: 1139
Flags: HW
HStem: -435 167<346.31 762.74> 0 175<341.986 677.1> 917 169<335.786 925.744>
VStem: 78 177.835<-273.812 -74> 162.241 188.861<252.058 599.418>
Fore
162.241 380.542 m 0xe8
 162.241 713.837 393.669 1086 757 1086 c 0
 898 1086 993 1049 1043 974 c 1
 1062 1062 l 1
 1228 1062 l 1
 1033 144 l 2
 943.601 -271.207 790.45 -435 430 -435 c 0
 223.74 -435 78 -336 78 -153 c 0
 78 -128 80.6667 -101.667 86 -74 c 1
 261 -74 l 1
 255.835 -122.7 l 0xf0
 255.835 -238.94 373.469 -268 464 -268 c 0
 693.8 -268 793.007 -125.583 847 134 c 1
 848 136 848 136 849 139 c 1
 750 46 642 0 525 0 c 0
 234.793 0 162.241 220.673 162.241 380.542 c 0xe8
734 917 m 0
 427.682 917 351.102 555.114 351.102 407.432 c 0xe8
 351.102 287.914 396.682 175 579 175 c 0
 801.473 158.861 954.061 412 954.061 681.609 c 0
 954.061 829.246 881.495 917 734 917 c 0
EndSplineSet
EndChar
StartChar: h
Encoding: 74 104 76
Width: 1139
Flags: HW
HStem: 0 21G<135 315 820 1000> 882 213<698.27 939.17> 1446 20G<447 627>
VStem: 963.459 193.431<693.529 859.639>
Fore
833 1095 m 0
 1092.11 1095 1156.89 934.251 1156.89 795.034 c 0
 1156.89 757.301 1152.23 716.648 1143 673 c 2
 1000 0 l 1
 820 0 l 1
 953 624 l 2
 959.975 657.325 963.459 687.422 963.459 714.29 c 0
 963.459 826.097 903.131 882 783 882 c 0
 589.658 882 476.666 752.869 428 532 c 2
 315 0 l 1
 135 0 l 1
 447 1466 l 1
 627 1466 l 1
 521 970 l 1
 607.272 1057.84 729.361 1095 833 1095 c 0
EndSplineSet
EndChar
StartChar: i
Encoding: 75 105 77
Width: 455
Flags: W
HStem: 0 21G<136 316> 1042 20G<362 542> 1259 207<448 584>
VStem: 136 492<0 1466>
Fore
404 1259 m 1
 448 1466 l 1
 628 1466 l 1
 584 1259 l 1
 404 1259 l 1
136 0 m 1
 362 1062 l 1
 542 1062 l 1
 316 0 l 1
 136 0 l 1
EndSplineSet
EndChar
StartChar: j
Encoding: 76 106 78
Width: 455
Flags: HW
HStem: -428 161<-154.388 81.86> -412 153<-182 -59.3372> 1042 20G<360 540> 1257 209<446 581>
VStem: -182 808<-412 1466>
Fore
401 1257 m 1x38
 446 1466 l 1
 626 1466 l 1
 581 1257 l 1
 401 1257 l 1x38
-182 -412 m 1x78
 -149 -259 l 1x78
 -115 -264 -87 -267 -64 -267 c 0
 48.2 -267 91.4079 -199.323 123 -54 c 2
 360 1062 l 1
 540 1062 l 1
 302 -58 l 2
 231.326 -390.17 62.3569 -428 -52 -428 c 0xb8
 -92 -428 -135 -423 -182 -412 c 1x78
EndSplineSet
EndChar
StartChar: k
Encoding: 77 107 79
Width: 1024
Flags: W
HStem: 0 21G<136 316 794 1016> 1042 20G<968 1201> 1446 20G<448 628>
Fore
136 0 m 1
 448 1466 l 1
 628 1466 l 1
 450 630 l 1
 968 1062 l 1
 1201 1062 l 1
 711 668 l 1
 1016 0 l 1
 794 0 l 1
 558 543 l 1
 405 421 l 1
 316 0 l 1
 136 0 l 1
EndSplineSet
EndChar
StartChar: l
Encoding: 78 108 80
Width: 455
Flags: W
HStem: 0 21G<131 311> 1446 20G<443 623>
VStem: 131 492<0 1466>
Fore
131 0 m 1
 443 1466 l 1
 623 1466 l 1
 311 0 l 1
 131 0 l 1
EndSplineSet
EndChar
StartChar: m
Encoding: 79 109 81
Width: 1706
Flags: HW
HStem: 0 21G<135 315 766 946 1395 1574> 930 156<642.118 909.693 1315.18 1485.21>
VStem: 1554.86 188.57<753.113 935.312>
Fore
924.08 783.888 m 0
 924.08 884.395 878.841 930 776 930 c 0
 576 930 465.828 766.251 432 551 c 2
 315 0 l 1
 135 0 l 1
 361 1062 l 1
 522 1062 l 1
 490 913 l 1
 562.557 998.749 689.86 1086 849 1086 c 0
 919.328 1086 1085.43 1073.81 1109 900 c 1
 1220 1024 1342 1086 1477 1086 c 0
 1640.39 1086 1743.43 1014.34 1743.43 850.374 c 0
 1743.43 814.182 1738.61 773.707 1729 729 c 2
 1574 0 l 1
 1395 0 l 1
 1537 669 l 2
 1549.05 723.22 1554.86 766.097 1554.86 797.207 c 0
 1554.86 903.441 1466.47 930 1404 930 c 0
 1335.68 930 1138.58 908.823 1077 617 c 2
 946 0 l 1
 766 0 l 1
 913 690 l 2
 920.471 725.159 924.08 756.455 924.08 783.888 c 0
EndSplineSet
EndChar
StartChar: n
Encoding: 80 110 82
Width: 1139
Flags: HW
HStem: 0 21G<135 315 820 1000> 882 213<698.27 939.17>
VStem: 963.459 193.431<693.529 859.639>
Fore
833 1095 m 0
 1092.11 1095 1156.89 934.251 1156.89 795.034 c 0
 1156.89 757.301 1152.23 716.648 1143 673 c 2
 1000 0 l 1
 820 0 l 1
 953 624 l 2
 959.975 657.325 963.459 687.422 963.459 714.29 c 0
 963.459 826.097 903.131 882 783 882 c 0
 589.658 882 476.666 752.869 428 532 c 2
 315 0 l 1
 135 0 l 1
 361 1064 l 1
 541 1064 l 1
 521 970 l 1
 607.272 1057.84 729.361 1095 833 1095 c 0
EndSplineSet
EndChar
StartChar: o
Encoding: 81 111 83
Width: 1139
Flags: HW
HStem: -11 158<390.491 1025.16> 928 158<333.435 969.092>
VStem: 161.604 188.353<183.378 590.179> 1007.67 188.75<469.699 877.533>
Fore
161.604 364.512 m 0
 161.604 608.09 310.102 1086 797 1086 c 0
 1116.54 1086 1196.42 867.293 1196.42 699.385 c 0
 1196.42 485.39 1073.13 -11 564 -11 c 0
 242.083 -11 161.604 186.642 161.604 364.512 c 0
763 928 m 0
 432.566 928 349.957 545.062 349.957 394.672 c 0
 349.957 232.138 438.147 147 597 147 c 0
 926.353 147 1007.67 515.894 1007.67 669.879 c 0
 1007.67 829.613 921.532 928 763 928 c 0
EndSplineSet
EndChar
StartChar: p
Encoding: 82 112 84
Width: 1139
Flags: HW
HStem: -10 165<442.23 973.961> 927 159<563.06 966.2>
VStem: 1000.25 174.94<419.502 875.627>
Fore
1175.19 701.881 m 0
 1175.19 356.748 946.631 -10 591 -10 c 0
 473 -10 386 38 330 133 c 1
 219 -390 l 1
 39 -390 l 1
 351 1076 l 1
 518 1076 l 1
 492 957 l 1
 510.301 975.301 621.2 1086 815 1086 c 0
 1103.15 1086 1175.19 866.925 1175.19 701.881 c 0
766 927 m 0
 513.808 927 400.607 598.326 400.607 420.75 c 0
 400.607 271.226 480.946 155 610 155 c 0
 889.97 155 1000.25 477.135 1000.25 669.243 c 0
 1000.25 828 920 927 766 927 c 0
EndSplineSet
EndChar
StartChar: q
Encoding: 83 113 85
Width: 1139
Flags: HW
HStem: -10 165<391.859 688.4> 927 159<438.2 934.853>
VStem: 181.14 177.559<207.023 730.921>
Fore
777 1086 m 0
 951.46 1086 1022.76 996.445 1044 957 c 1
 1070 1076 l 1
 1237 1076 l 1
 925 -390 l 1
 745 -390 l 1
 856 133 l 1
 760 38 653 -10 535 -10 c 0
 251.912 -10 181.14 208.844 181.14 370.176 c 0
 181.14 693.192 399.956 1086 777 1086 c 0
586 155 m 0
 784.927 155 961.056 408.779 961.056 681.032 c 0
 961.056 824.469 894.041 927 758 927 c 0
 512 927 358.699 656 358.699 406.262 c 0
 358.699 253.001 436.661 155 586 155 c 0
EndSplineSet
EndChar
StartChar: r
Encoding: 84 114 86
Width: 682
Flags: HW
HStem: 0 21G<133 313> 900 177<648.839 773.24>
VStem: 133 796<0 1028>
Fore
496 947 m 1
 557.884 1031.39 674.953 1077 762 1077 c 0
 827 1077 883 1061 929 1028 c 1
 831 861 l 1
 793 887 752 900 709 900 c 0
 559.661 900 474.209 755.526 431 556 c 2
 313 0 l 1
 133 0 l 1
 359 1062 l 1
 521 1062 l 1
 496 947 l 1
EndSplineSet
KernsSLIFO: 18 -113 0 0 16 -113 0 0
EndChar
StartChar: s
Encoding: 85 115 87
Width: 1024
Flags: HW
HStem: -11 162<324.882 751.383> 924 162<436.5 871.251>
VStem: 134.131 182.056<191.543 364.34> 252.518 191.09<662.489 857.888> 827.453 194.547<201.386 460.197> 891.457 180.823<759.888 895.129>
Fore
572.767 472.688 m 0xe8
 418.982 500.941 252.518 537.547 252.518 720.969 c 0
 252.518 934.207 462.036 1086 715 1086 c 0
 1020.71 1086 1072.28 926.92 1072.28 820.866 c 0
 1071.91 802.392 1071.69 780.215 1067 764 c 1
 891 764 l 1
 891.305 769.027 891.457 773.936 891.457 778.727 c 0
 891.457 868.267 838.424 924 729 924 c 0
 504 924 443.608 837 443.608 767.373 c 0xd4
 443.608 686.693 490.942 676.117 654 644 c 0
 908.609 593.913 1022 546.4 1022 400 c 0
 1022 153.796 786.127 -11 515 -11 c 0
 189.809 -11 134.131 169.93 134.131 290.55 c 0
 134.131 312.063 135.767 334.56 139 358 c 1
 317 358 l 1
 316.458 350.208 316.187 342.636 316.187 335.285 c 0
 316.187 224.714 376.371 151 548 151 c 0
 704.448 151 827.453 231.251 827.453 330.801 c 0
 827.453 430.337 704.782 448.435 572.767 472.688 c 0xe8
EndSplineSet
EndChar
StartChar: t
Encoding: 86 116 88
Width: 569
Flags: HW
HStem: -13 166<408 525.292> 922 140<244 364 573 693>
Fore
397.895 211.694 m 0
 397.895 167.225 441.702 153 482 153 c 0
 499 153 525 156 562 161 c 1
 554 2 l 1
 504 -8 455 -13 408 -13 c 0
 292.54 -13 211.381 19.1438 211.381 147.719 c 0
 211.381 186.972 219.348 241.186 234 311 c 2
 364 922 l 1
 214 922 l 1
 244 1062 l 1
 394 1062 l 1
 473 1433 l 1
 652 1433 l 1
 573 1062 l 1
 723 1062 l 1
 693 922 l 1
 543 922 l 1
 411 301 l 2
 402.386 260.803 397.895 230.911 397.895 211.694 c 0
EndSplineSet
EndChar
StartChar: u
Encoding: 87 117 89
Width: 1139
Flags: HW
HStem: -10 211<409.767 700.752> 1065 20G<335 515 1020 1200>
VStem: 178.67 194.122<230.136 395.071>
Fore
372.792 382.449 m 0
 372.792 265.285 448.359 201 577 201 c 0
 747 201 850 286 886 456 c 2
 1020 1085 l 1
 1200 1085 l 1
 969 0 l 1
 789 0 l 1
 803 64 l 1
 750 17 665.04 -10 546 -10 c 0
 248.04 -10 178.67 144 178.67 295.81 c 0
 178.67 331.954 183.18 370.684 192 412 c 2
 335 1085 l 1
 515 1085 l 1
 382 461 l 2
 375.856 432.582 372.792 406.393 372.792 382.449 c 0
EndSplineSet
EndChar
StartChar: v
Encoding: 88 118 90
Width: 1024
Flags: W
HStem: 0 21G<429 599> 1042 20G<252 442 1036 1226>
VStem: 252 974<1062 1062>
Fore
429 0 m 1
 252 1062 l 1
 442 1062 l 1
 577 269 l 1
 1036 1062 l 1
 1226 1062 l 1
 599 0 l 1
 429 0 l 1
EndSplineSet
KernsSLIFO: 18 -152 0 0 16 -152 0 0
EndChar
StartChar: w
Encoding: 89 119 91
Width: 1479
Flags: W
HStem: 0 21G<331 519 975 1163> 1042 20G<232 418 874 1058 1514 1689>
Fore
331 0 m 1
 232 1062 l 1
 418 1062 l 1
 476 246 l 1
 874 1062 l 1
 1058 1062 l 1
 1121 246 l 1
 1514 1062 l 1
 1689 1062 l 1
 1163 0 l 1
 975 0 l 1
 957 265 l 1
 930 623 916 807 914 817 c 1
 519 0 l 1
 331 0 l 1
EndSplineSet
KernsSLIFO: 18 -113 0 0 16 -113 0 0
EndChar
StartChar: x
Encoding: 90 120 92
Width: 1024
Flags: W
HStem: 0 21G<15 233 788 1009> 1042 20G<270 495 992 1207>
Fore
15 0 m 1
 513 552 l 1
 270 1062 l 1
 495 1062 l 1
 647 694 l 1
 992 1062 l 1
 1207 1062 l 1
 726 562 l 1
 1009 0 l 1
 788 0 l 1
 594 419 l 1
 233 0 l 1
 15 0 l 1
EndSplineSet
EndChar
StartChar: y
Encoding: 91 121 93
Width: 1024
Flags: HW
HStem: -422 168<71.1007 364.423> 1042 20G<259 453 1052 1232>
Fore
40 -409 m 1
 56 -240 l 1
 88 -249 123 -254 160 -254 c 0
 370.749 -254 412.997 -85.8925 436 -2 c 1
 259 1062 l 1
 453 1062 l 1
 568 201 l 1
 1052 1062 l 1
 1232 1062 l 1
 602 -1 l 1
 509.542 -338.971 314.71 -422 149 -422 c 0
 108.78 -422 67.8942 -420.847 40 -409 c 1
EndSplineSet
KernsSLIFO: 18 -152 0 0 16 -152 0 0
EndChar
StartChar: z
Encoding: 92 122 94
Width: 1024
Flags: W
HStem: 0 155<295 980> 916 146<286 911>
Fore
40 0 m 1
 73 155 l 1
 911 916 l 1
 255 916 l 1
 286 1062 l 1
 1174 1062 l 1
 1143 916 l 1
 295 155 l 1
 1013 155 l 1
 980 0 l 1
 40 0 l 1
EndSplineSet
EndChar
StartChar: braceleft
Encoding: 93 123 95
Width: 684
Flags: HW
HStem: -431 157<429.641 544> 449 163<152 248.768> 1334 157<762.633 920>
VStem: 232.438 170.99<-271.844 -63.276> 310.201 168.122<136.827 404.005>
Fore
310.201 288.238 m 0xe8
 310.201 416.848 226.437 447.54 152 449 c 1
 187 612 l 1
 604.019 620.177 350.446 1365.35 771 1481 c 0
 797 1488 840 1491 897 1491 c 2
 953 1491 l 1
 920 1334 l 1
 889 1334 l 2
 728.61 1334 701.848 1268.43 673 1129 c 0
 587.238 723.367 552.864 625.234 337 530 c 1
 459.522 472.452 478.323 380.052 478.323 300.21 c 0xe8
 478.323 141.986 403.428 -88.4173 403.428 -178.641 c 0
 403.428 -250.336 436.667 -274 547 -274 c 2
 578 -274 l 1
 544 -431 l 1
 488 -431 l 2
 429.641 -431 315.25 -436.687 260 -340 c 0
 241.625 -310.25 232.438 -273.609 232.438 -229.408 c 0xf0
 232.438 -101.614 310.201 171.768 310.201 288.238 c 0xe8
EndSplineSet
EndChar
StartChar: bar
Encoding: 94 124 96
Width: 532
Flags: W
VStem: 96 566<-431 1491>
Fore
96 -431 m 1
 505 1491 l 1
 662 1491 l 1
 253 -431 l 1
 96 -431 l 1
EndSplineSet
EndChar
StartChar: braceright
Encoding: 95 125 97
Width: 684
Flags: HW
HStem: -431 157<-11 143.776> 449 163<588.514 756> 1334 157<364 487.127>
VStem: 430.17 167.772<681.392 927.015> 504.581 171.692<1133.06 1333.16>
Fore
597.942 767.472 m 0xf0
 597.942 701.256 627.164 614.526 756 612 c 1
 721 449 l 1
 513.685 444.935 474.891 253.436 432 63 c 0
 385.253 -153.205 357.032 -358.222 138 -420 c 0
 111 -427 68 -431 11 -431 c 2
 -45 -431 l 1
 -11 -274 l 1
 20 -274 l 2
 178.658 -274 204.9 -210.403 236 -68 c 0
 297.125 223.654 327.205 435.848 572 530 c 1
 447.798 596.601 430.17 684.204 430.17 762.54 c 0xf0
 430.17 913.195 504.581 1149.78 504.581 1240.75 c 0
 504.581 1311.83 471.289 1334 362 1334 c 2
 331 1334 l 1
 364 1491 l 1
 420 1491 l 2
 487.127 1491 593.132 1494.11 649 1401 c 0
 667.182 1369.18 676.273 1330.75 676.273 1284.21 c 0xe8
 676.273 1167.94 597.942 890.197 597.942 767.472 c 0xf0
EndSplineSet
EndChar
StartChar: asciitilde
Encoding: 96 126 98
Width: 1196
Flags: HW
HStem: 559 189<834.671 1108.52> 693 189<402.5 704.876>
Fore
952 559 m 0x80
 754.917 559 656.443 693 495 693 c 0
 421.903 693 355.084 676.185 205 557 c 1
 249 762 l 1
 337 842 437 882 552 882 c 0x40
 745.999 882 875.362 748 1011 748 c 0
 1120.83 748 1242.58 835.88 1298 885 c 1
 1253 673 l 1
 1162.23 601.811 1072.4 559 952 559 c 0x80
EndSplineSet
EndChar
StartChar: exclamdown
Encoding: 98 161 100
Width: 680
Flags: W
HStem: 0 21G<228 452> 1059 20G<485 651> 1278 211<554 714>
VStem: 228 530<0 1489>
Fore
714 1278 m 1
 510 1278 l 1
 554 1489 l 1
 758 1489 l 1
 714 1278 l 1
452 0 m 1
 228 0 l 1
 485 1079 l 1
 651 1079 l 1
 452 0 l 1
EndSplineSet
EndChar
StartChar: cent
Encoding: 99 162 101
Width: 1118
Flags: HW
HStem: 1455 20G<871 985>
VStem: 212.679 194.409<215.476 605.42>
Fore
701 141 m 1
 841.239 153.374 976.77 247.842 1025 281 c 1
 1035 281 l 1
 993 83 l 1
 810.912 7.13018 727.8 3.58184 671 1 c 1
 594 -361 l 1
 480 -361 l 1
 557 2 l 1
 338.28 28.7499 212.679 156.253 212.679 387.633 c 0
 212.679 697.905 400.748 1070.38 794 1115 c 1
 871 1475 l 1
 985 1475 l 1
 908 1116 l 1
 1023.75 1112.01 1124.33 1077.69 1195 1037 c 1
 1153 837 l 1
 1143 837 l 1
 1062.07 917.934 985.975 960.682 879 977 c 1
 701 141 l 1
763 971 m 1
 483.776 922.136 407.088 558.802 407.088 403.409 c 0
 407.088 258.845 475.148 166.376 588 146 c 1
 763 971 l 1
EndSplineSet
EndChar
StartChar: sterling
Encoding: 100 163 102
Width: 1118
Flags: HW
HStem: 0 171<297 1031> 613 138<290 421 643 977> 1351 167<772.843 1098.81>
Fore
1260 1264 m 1
 1163.44 1340.68 1060.12 1351 1014 1351 c 0
 828.495 1351 740.629 1215.1 707 1052 c 2
 643 751 l 1
 1007 751 l 1
 977 613 l 1
 613 613 l 1
 600 552 l 2
 565.305 382.863 440.384 255.791 300 182 c 1
 297 171 l 1
 1067 171 l 1
 1031 0 l 1
 89 0 l 1
 133 207 l 1
 281.879 248.46 365.973 354.794 421 613 c 1
 260 613 l 1
 290 751 l 1
 451 751 l 1
 519 1071 l 2
 570.596 1317.92 763.253 1518 1031 1518 c 0
 1096.27 1518 1155.26 1518.2 1313 1470 c 1
 1270 1264 l 1
 1260 1264 l 1
EndSplineSet
EndChar
StartChar: currency
Encoding: 101 164 103
Width: 1118
Flags: HW
HStem: 326 138<544.935 726.76> 858 138<692.709 866.127>
VStem: 359.25 144.212<543.845 734.514> 897.166 147.154<602.561 777.51>
Fore
1044.32 728.574 m 0
 1044.32 631.641 994.383 540.981 946 486 c 1
 1115 272 l 1
 986 166 l 1
 817 378 l 1
 752.362 342.743 704.2 326 629 326 c 0
 564.335 326 503.429 350.928 466 379 c 1
 205 164 l 1
 123 273 l 1
 380 486 l 1
 366.197 519.88 359.25 563.596 359.25 595.469 c 0
 359.25 702.426 410.608 780.519 455 835 c 1
 288 1051 l 1
 418 1157 l 1
 587 944 l 1
 651.745 980.997 721.018 996 772 996 c 0
 845.614 996 904.397 967.307 937 945 c 1
 1194 1157 l 1
 1281 1052 l 1
 1021 836 l 1
 1037.55 796.016 1044.32 760.877 1044.32 728.574 c 0
659 464 m 0
 776.11 464 897.166 576.32 897.166 705.028 c 0
 897.166 787.529 837.483 858 742 858 c 0
 624.911 858 503.462 744.819 503.462 618.842 c 0
 503.462 535.658 562.29 464 659 464 c 0
EndSplineSet
EndChar
StartChar: yen
Encoding: 102 165 104
Width: 1118
Flags: W
HStem: 0 21G<465 653> 440 138<248 559 774 1087>
Fore
1375 1489 m 1
 795 678 l 1
 774 578 l 1
 1116 578 l 1
 1087 440 l 1
 747 440 l 1
 653 0 l 1
 465 0 l 1
 559 440 l 1
 219 440 l 1
 248 578 l 1
 590 578 l 1
 607 657 l 1
 372 1489 l 1
 582 1489 l 1
 741 850 l 1
 1174 1489 l 1
 1375 1489 l 1
EndSplineSet
EndChar
StartChar: brokenbar
Encoding: 103 166 105
Width: 783
Flags: W
VStem: 225 581<-392 1556>
Fore
636 758 m 1
 469 758 l 1
 639 1556 l 1
 806 1556 l 1
 636 758 l 1
392 -392 m 1
 225 -392 l 1
 394 406 l 1
 561 406 l 1
 392 -392 l 1
EndSplineSet
EndChar
StartChar: section
Encoding: 104 167 106
Width: 1118
Flags: HW
HStem: -385 165<287.325 666.555> 1355 164<736.092 1035.82>
VStem: 223.064 201.57<417.506 664.665> 383.55 200.45<910.641 1304.66> 774.131 201.319<-155.991 66.9927> 934.34 200.69<470.505 756.292>
Fore
734 315 m 1xe4
 802.419 351.49 934.34 455.735 934.34 610.431 c 0
 934.34 722.632 844.185 751.376 716 788 c 2
 624 819 l 1
 509.082 757.711 424.634 640.725 424.634 521.875 c 0
 424.634 441.591 469.141 402.118 570 369 c 2
 734 315 l 1xe4
975.45 66.9927 m 0xc8
 975.45 -104.533 828.414 -385 408 -385 c 0
 285.6 -385 187.473 -360.519 102 -327 c 1
 144 -133 l 1
 154 -133 l 1
 214.169 -169.102 327.634 -220 462 -220 c 0
 619.35 -220 774.131 -150.727 774.131 14.3337 c 0
 774.131 51.3519 765.931 111.252 627 154 c 2
 501 192 l 2
 349.182 238.088 223.064 297.287 223.064 455.218 c 0xe8
 223.064 616.331 328.542 764.269 500 858 c 1
 502 865 l 1
 459.652 890.88 383.55 947.984 383.55 1072.46 c 0
 383.55 1251.08 533.845 1519 951 1519 c 0
 1012.2 1519 1113.95 1516.62 1257 1462 c 1
 1216 1268 l 1
 1206 1268 l 1
 1123.22 1313.99 1028.78 1355 895 1355 c 0
 772.763 1355 584 1308.85 584 1124.25 c 0
 584 896.815 1135.03 1010.36 1135.03 680.135 c 0xd4
 1135.03 518.881 1033.22 369.765 858 277 c 1
 856 270 l 1
 923.407 229.815 975.45 173.034 975.45 66.9927 c 0xc8
EndSplineSet
EndChar
StartChar: dieresis
Encoding: 105 168 107
Width: 1118
Flags: W
HStem: 1304 195<572 731 985 1144>
VStem: 530 656<1304 1499>
Fore
1144 1304 m 1
 943 1304 l 1
 985 1499 l 1
 1186 1499 l 1
 1144 1304 l 1
731 1304 m 1
 530 1304 l 1
 572 1499 l 1
 773 1499 l 1
 731 1304 l 1
EndSplineSet
EndChar
StartChar: copyright
Encoding: 106 169 108
Width: 1902
Flags: HW
HStem: -210 110<661.9 1216.7> 180 147<833.772 1143.29> 996 147<828.092 1331.35> 1409 110<981.9 1520.1>
VStem: 203.817 119.825<307.895 610.496> 654.025 188.294<406.69 720.149> 1858.81 117.37<701.672 1002.34>
Fore
1976.18 845.205 m 0
 1976.18 734.795 1952.45 355.087 1571 44 c 0
 1367 -126 1145 -210 906 -210 c 0
 667 -210 481 -126 349 44 c 0
 252.086 165.505 203.817 305.84 203.817 464.628 c 0
 203.817 577.408 227.914 953.361 609 1266 c 0
 813 1435 1035 1519 1274 1519 c 0
 1513 1519 1699 1435 1831 1266 c 0
 1927.91 1143.77 1976.18 1003.76 1976.18 845.205 c 0
931 -100 m 0
 1414.23 -100 1858.81 341.967 1858.81 822.799 c 0
 1858.81 960.908 1817.17 1082.77 1735 1188 c 0
 1619 1336 1458 1409 1251 1409 c 0
 1044 1409 853 1336 675 1188 c 0
 342.996 915.682 323.642 582.201 323.642 487.886 c 0
 323.642 349.431 364.969 227.135 448 121 c 0
 563 -26 724 -100 931 -100 c 0
1056 327 m 0
 1194.07 327 1328.75 417.707 1350 434 c 1
 1366 434 l 1
 1328 255 l 1
 1179.5 194.387 1114.84 180 1020 180 c 0
 795.222 180 654.025 293.829 654.025 513.436 c 0
 654.025 762.242 812.486 1143 1225 1143 c 0
 1335.4 1143 1429.85 1109.76 1501 1070 c 1
 1463 889 l 1
 1447 889 l 1
 1396.98 941.104 1300.57 996 1198 996 c 0
 913.455 996 842.319 679.42 842.319 543.658 c 0
 842.319 438.298 885.055 327 1056 327 c 0
EndSplineSet
EndChar
StartChar: ordfeminine
Encoding: 107 170 109
Width: 1010
Flags: HW
HStem: 541 155<497.778 665.257> 1365 154<664.683 934.38>
VStem: 284.137 177.425<699.666 883.301> 969.531 169.489<1200.65 1369.45>
Fore
806 1519 m 0
 1051.69 1519 1139.02 1427.54 1139.02 1290.35 c 0
 1139.02 1261.24 1135.33 1229.11 1128 1194 c 2
 994 566 l 1
 828 566 l 1
 848 657 l 1
 788.224 598.87 635.05 541 519 541 c 0
 361.96 541 284.137 646.363 284.137 766.721 c 0
 284.137 856.398 323.374 1028.97 516 1112 c 0
 595.554 1146.71 710.852 1172.14 960 1184 c 1
 964.314 1204.49 969.531 1226.76 969.531 1253.74 c 0
 969.531 1342.75 896.907 1365 772 1365 c 0
 713.8 1365 655.107 1359.96 481 1304 c 1
 466 1304 l 1
 502 1474 l 1
 531.289 1482.5 684.4 1519 806 1519 c 0
461.562 807.663 m 0
 461.562 724.588 523.445 696 609 696 c 0
 652.275 696 736.349 701.353 878 802 c 1
 930 1045 l 1
 696.482 1028.05 461.562 1020 461.562 807.663 c 0
EndSplineSet
EndChar
StartChar: guillemotleft
Encoding: 108 171 110
Width: 1174
Flags: HW
Fore
1084 191 m 1
 685 610 l 1
 703 695 l 1
 1280 1113 l 1
 1240 925 l 1
 865 652 l 1
 1124 379 l 1
 1084 191 l 1
647 162 m 1
 232 608 l 1
 251 697 l 1
 856 1142 l 1
 814 946 l 1
 421 652 l 1
 689 358 l 1
 647 162 l 1
EndSplineSet
EndChar
StartChar: logicalnot
Encoding: 109 172 111
Width: 1490
Flags: W
HStem: 602 160<319 1280>
Fore
1335 57 m 1
 1164 57 l 1
 1280 602 l 1
 285 602 l 1
 319 762 l 1
 1485 762 l 1
 1335 57 l 1
EndSplineSet
EndChar
StartChar: registered
Encoding: 111 174 113
Width: 1902
Flags: HW
HStem: -210 110<661.9 1216.7> 570 126<963 1059> 1005 125<1029 1275.3> 1409 110<981.9 1520.1>
VStem: 203.817 119.825<307.895 610.496> 1308.79 187.59<835.469 1015.25> 1858.81 117.37<701.672 1002.34>
Fore
1976.18 845.205 m 0
 1976.18 734.795 1952.45 355.087 1571 44 c 0
 1367 -126 1145 -210 906 -210 c 0
 667 -210 481 -126 349 44 c 0
 252.086 165.505 203.817 305.84 203.817 464.628 c 0
 203.817 577.408 227.914 953.361 609 1266 c 0
 813 1435 1035 1519 1274 1519 c 0
 1513 1519 1699 1435 1831 1266 c 0
 1927.91 1143.77 1976.18 1003.76 1976.18 845.205 c 0
931 -100 m 0
 1414.23 -100 1858.81 341.967 1858.81 822.799 c 0
 1858.81 960.908 1817.17 1082.77 1735 1188 c 0
 1619 1336 1458 1409 1251 1409 c 0
 1044 1409 853 1336 675 1188 c 0
 342.996 915.682 323.642 582.201 323.642 487.886 c 0
 323.642 349.431 364.969 227.135 448 121 c 0
 563 -26 724 -100 931 -100 c 0
1496.38 945.781 m 0
 1496.38 813.752 1420.46 685.298 1233 615 c 1
 1494 215 l 1
 1267 215 l 1
 1059 570 l 1
 936 570 l 1
 861 215 l 1
 696 215 l 1
 890 1130 l 1
 1169 1130 l 2
 1390 1130 1496.38 1080 1496.38 945.781 c 0
1061 696 m 2
 1286.28 696 1308.79 851.703 1308.79 905.818 c 0
 1308.79 990 1245 1005 1144 1005 c 2
 1029 1005 l 1
 963 696 l 1
 1061 696 l 2
EndSplineSet
EndChar
StartChar: macron
Encoding: 112 175 114
Width: 1118
Flags: W
HStem: 1659 130<364 1487>
Fore
1487 1659 m 1
 337 1659 l 1
 364 1789 l 1
 1514 1789 l 1
 1487 1659 l 1
EndSplineSet
EndChar
StartChar: degree
Encoding: 113 176 115
Width: 964
Flags: HW
HStem: 755 152<526.254 873.643> 1363 152<568.828 945.177>
VStem: 332.323 160.775<959.653 1263.95> 953.15 160.57<1002.98 1287.28>
Fore
1113.72 1221.59 m 0
 1113.72 981.619 899.235 755 642 755 c 0
 434.254 755 332.323 903.022 332.323 1048.35 c 0
 332.323 1285.86 545.785 1515 804 1515 c 0
 1010.17 1515 1113.72 1370.43 1113.72 1221.59 c 0
675 907 m 0
 827.802 907 953.15 1045.85 953.15 1188.76 c 0
 953.15 1264.54 905.213 1363 772 1363 c 0
 615.714 1363 493.098 1222.08 493.098 1082.51 c 0
 493.098 988.004 560.58 907 675 907 c 0
EndSplineSet
EndChar
StartChar: plusminus
Encoding: 114 177 116
Width: 1490
Flags: W
HStem: 159 158<229 729 895 1362> 739 158<353 819 1019 1485>
Fore
1362 159 m 1
 196 159 l 1
 229 317 l 1
 729 317 l 1
 819 739 l 1
 319 739 l 1
 353 897 l 1
 853 897 l 1
 960 1402 l 1
 1126 1402 l 1
 1019 897 l 1
 1519 897 l 1
 1485 739 l 1
 985 739 l 1
 895 317 l 1
 1395 317 l 1
 1362 159 l 1
EndSplineSet
EndChar
StartChar: uni00B2
Encoding: 115 178 117
Width: 1010
Flags: HW
HStem: 566 144<524 986> 1371 148<664.87 849.222>
VStem: 884.438 190.182<1207.05 1362.3>
Fore
804 1519 m 0
 1028.36 1519 1074.62 1390.54 1074.62 1304.9 c 0
 1074.62 1086.59 865.036 931.005 666 802 c 2
 524 710 l 1
 1017 710 l 1
 986 566 l 1
 305 566 l 1
 338 718 l 1
 509 832 l 2
 654.171 927.021 775.071 1034.89 817 1088 c 0
 867.459 1151.48 884.438 1234.19 884.438 1265.09 c 0
 884.438 1339.87 825.863 1371 748 1371 c 0
 637.851 1371 516.223 1304.89 478 1279 c 1
 463 1279 l 1
 501 1458 l 1
 584.037 1490.49 696.977 1519 804 1519 c 0
EndSplineSet
EndChar
StartChar: uni00B3
Encoding: 116 179 118
Width: 1010
Flags: HW
HStem: 542 139<452.618 793.315> 968 139<569 849.572> 1380 139<667.555 900.093>
VStem: 845.233 173.687<720.394 945.127> 909.819 181.071<1190.57 1358.24>
Fore
1018.92 881.095 m 0xf0
 1018.92 750.831 909.358 542 589 542 c 0
 484.091 542 388.233 561.884 312 600 c 1
 349 775 l 1
 366 775 l 1
 396.837 739.537 489.498 681 616 681 c 0
 752.396 681 845.233 753.542 845.233 864.034 c 0xf0
 845.233 926.414 810.44 968 680 968 c 2
 540 968 l 1
 569 1107 l 1
 694 1107 l 2
 859.514 1107 909.819 1211.46 909.819 1281.1 c 0
 909.819 1340.44 868.918 1380 765 1380 c 0
 669.721 1380 545.523 1326.33 489 1283 c 1
 472 1283 l 1
 509 1458 l 1
 595.613 1491.17 701.58 1519 815 1519 c 0
 1037.84 1519 1090.89 1400.69 1090.89 1324.87 c 0xe8
 1090.89 1219.01 1015.11 1101.71 864 1055 c 1
 863 1047 l 1
 933.503 1031.49 1018.92 980.638 1018.92 881.095 c 0xf0
EndSplineSet
EndChar
StartChar: acute
Encoding: 117 180 119
Width: 1118
Flags: W
HStem: 1302 374<875 1227>
VStem: 726 501<1302 1676>
Fore
1227 1676 m 1
 875 1302 l 1
 726 1302 l 1
 984 1676 l 1
 1227 1676 l 1
EndSplineSet
EndChar
StartChar: mu
Encoding: 118 181 120
Width: 1163
Flags: HW
HStem: -17 181<520.529 674.986>
Fore
382 275 m 1
 452.115 164.819 575.388 164 613 164 c 0
 726.6 164 813.328 199.91 897 275 c 1
 1076 1117 l 1
 1264 1117 l 1
 1027 0 l 1
 855 0 l 1
 880 116 l 1
 874 116 l 1
 733.652 -4.29834 651.681 -17 574 -17 c 0
 470.476 -17 420.769 12.1199 348 115 c 1
 236 -412 l 1
 48 -412 l 1
 373 1117 l 1
 561 1117 l 1
 382 275 l 1
EndSplineSet
EndChar
StartChar: paragraph
Encoding: 119 182 121
Width: 1118
Flags: HW
HStem: 1359 130<944 1131>
Fore
266.832 933.77 m 0
 266.832 1131.83 388.666 1489 876 1489 c 2
 1298 1489 l 1
 905 -363 l 1
 765 -363 l 1
 1131 1359 l 1
 944 1359 l 1
 578 -363 l 1
 438 -363 l 1
 641 593 l 1
 402.385 598.264 266.832 734.376 266.832 933.77 c 0
EndSplineSet
EndChar
StartChar: periodcentered
Encoding: 120 183 122
Width: 724
Flags: W
VStem: 420 299<832 1117>
Fore
659 832 m 1
 420 832 l 1
 480 1117 l 1
 719 1117 l 1
 659 832 l 1
EndSplineSet
EndChar
StartChar: cedilla
Encoding: 121 184 123
Width: 1118
Flags: HW
HStem: -423 150<311.275 623.28>
VStem: 204 567<-399 20>
Fore
382 -273 m 0
 567.6 -273 585.284 -166.654 614 20 c 1
 771 20 l 1
 746.7 -271.595 584.043 -423 376 -423 c 0
 358.713 -423 269.196 -419.863 204 -399 c 1
 238 -239 l 1
 247 -239 l 1
 284.321 -256.417 328 -273 382 -273 c 0
EndSplineSet
EndChar
StartChar: uni0E01
Encoding: 122 3585 124
Width: 1240
Flags: W
HStem: 0 21G<188 348 922 1082> 989 160<654.6 1027.7>
VStem: 1073 169<708.297 957.6>
Fore
1225 671 m 2
 1082 0 l 1
 922 0 l 1
 1061 655 l 2
 1069 693 1073 728 1073 760 c 0
 1073 912 983 989 834 989 c 0
 696 989 576 938 471 823 c 1
 550 802 602 748 626 661 c 1
 521 596 453 496 425 361 c 2
 348 0 l 1
 188 0 l 1
 265 361 l 2
 293 492 357 595 458 669 c 1
 425 738 367 778 286 790 c 1
 433 1026 628 1149 868 1149 c 0
 1121 1149 1242 1027 1242 818 c 0
 1242 773 1236 724 1225 671 c 2
EndSplineSet
EndChar
StartChar: uni0E02
Encoding: 123 3586 125
Width: 1400
Flags: W
HStem: 0 164<742 1092> 545 113<388.5 556.2> 823 102<488 541.3> 995 154<579.9 871.017>
VStem: 256 125<670.5 764.297> 552 109<716.822 810.1> 853 157<782.981 917.735>
Fore
488 823 m 0
 392.202 823 381 743.837 381 716 c 0
 381 681 402 658 447 658 c 0
 531 658 552 728.275 552 762 c 0
 552 799 529 823 488 823 c 0
704 1149 m 0
 879.3 1149 1010 1062.05 1010 882 c 0
 1010 848 1006 811 998 771 c 1
 904 718 846 654 829 575 c 2
 742 164 l 1
 1092 164 l 1
 1299 1139 l 1
 1459 1139 l 1
 1217 0 l 1
 547 0 l 1
 669 575 l 2
 687 658 752 730 847 783 c 1
 851 802 853 820 853 836 c 0
 853 898.873 823.936 995 667 995 c 0
 600 995 551 970 520 925 c 1
 614 924 661 881 661 798 c 0
 661 718.695 615.935 549.422 414 545 c 0
 308 551 256 606 256 711 c 0
 256 760.217 263.293 904.818 414 1042 c 0
 493 1113 589 1149 704 1149 c 0
EndSplineSet
EndChar
StartChar: uni0E03
Encoding: 124 3587 126
Width: 1450
Flags: MW
HStem: 0 164<819 1169> 507 116<395.5 523.581> 790 104<482.4 543.3> 881 160<706 740> 978 171<568 604> 1119 20G<1376 1536>
VStem: 253 133<635.2 729.079> 551 111<671.238 777> 932 157<792.588 916.9>
Fore
490 790 m 0
 402.504 790 386 712.23 386 682 c 0
 386 646 409 623 454 623 c 0
 507.524 623 551 678.172 551 731 c 0
 551 764 531 790 490 790 c 0
907 1149 m 5
 994.544 1135.18 1089 1024.75 1089 881 c 0
 1089 850 1085 817 1077 783 c 1
 979 721 923 656 909 587 c 2
 819 164 l 1
 1169 164 l 1
 1376 1139 l 1
 1536 1139 l 1
 1294 0 l 1
 624 0 l 1
 749 587 l 2
 766 670 824 738 926 798 c 1
 930 816 932 832 932 848 c 0
 932 901 912 944 871 978 c 1
 871 977 816 946 706 881 c 1
 568 978 l 1
 533 957 507 927 489 886 c 1
 505 892 521 894 537 894 c 0
 580.236 894 662 871.357 662 777 c 0
 662 695.645 611.8 507 411 507 c 0
 312 507 253 562 253 661 c 0
 253 756.445 320.468 1040.77 604 1149 c 1
 604 1148 650 1113 740 1041 c 1
 907 1149 l 5
EndSplineSet
EndChar
StartChar: uni0E04
Encoding: 125 3588 127
Width: 1370
Flags: HW
HStem: 0 21G<245 455 1035 1195> 342 118<779.1 867.926> 625 121<785.217 931.9> 989 160<580.3 1148.4>
VStem: 283 150<240 529.35> 939 103<493.098 609.2> 1184 166<688.467 941.3>
Fore
283 458 m 0
 283 761.025 410.4 1149 920 1149 c 0
 1205 1149 1350 1027 1350 799 c 0
 1350 754 1344 704 1333 651 c 2
 1195 0 l 1
 1035 0 l 1
 1173 650 l 2
 1180 684 1184 716 1184 745 c 0
 1184 896 1089 989 891 989 c 0
 652 989 506 857 461 646 c 0
 442 548 433 441 433 325 c 0
 433 302 433 279 434 256 c 1
 584.96 677.647 789.2 746 878 746 c 2
 881 746 l 2
 988 745 1042 698 1042 604 c 0
 1042 494.805 977.216 368.994 822 342 c 1
 818 342 l 2
 739 342 694 369 679 424 c 1
 604 319 530 177 455 0 c 1
 245 0 l 1
 268 108 l 2
 280 166 286 240 286 333 c 0
 283 458 l 0
876 625 m 0
 806.167 625 769 574.772 769 522 c 0
 769 484 792 460 835 460 c 0
 898.015 460 939 509.691 939 565 c 0
 939 599 919 625 876 625 c 0
EndSplineSet
EndChar
StartChar: uni0E05
Encoding: 126 3589 128
Width: 1370
Flags: HMW
HStem: 0 21G<235 445 1025 1185> 342 118<770.4 857.926> 625 121<795.499 919.3> 868 160<866 896> 981 168<728 746>
VStem: 273.014 149.986<237.84 594.393> 929 105<496.4 610.8> 1177 166<698.982 903.8>
Fore
273.014 381.401 m 0
 273.014 480 277.184 581.37 298 683 c 0
 353 938 504 1094 746 1149 c 1
 896 1028 l 1
 1086 1149 l 5
 1257 1103 1343 990 1343 811 c 0
 1343 765 1337 715 1326 661 c 2
 1185 0 l 1
 1025 0 l 1
 1165 660 l 2
 1173 698 1177 734 1177 766 c 0
 1177 872 1132 944 1042 981 c 5
 866 868 l 1
 728 981 l 1
 486.747 901.126 423 682.705 423 321 c 0
 423 299 423 278 424 256 c 1
 576.258 681.272 781.6 746 871 746 c 0
 977 746 1034 695 1034 606 c 0
 1034 504.524 974.074 370.187 812 342 c 1
 808 342 l 2
 729 342 684 369 669 424 c 1
 594 319 520 177 445 0 c 1
 235 0 l 1
 258 108 l 2
 273.184 183.922 273.014 284 273.014 381.401 c 0
866 625 m 0
 811.769 625 759 581.528 759 523 c 0
 759 485 783 460 825 460 c 0
 892.6 460 929 512 929 564 c 0
 929 600 907 625 866 625 c 0
EndSplineSet
EndChar
StartChar: uni0E06
Encoding: 127 3590 129
Width: 1520
Flags: HMW
HStem: -10 119<609.545 636.5 609.545 686.5> 0 21G<1205 1365> 328 118<616.984 730> 508 112<396.2 565.2> 789 99<491.609 555.8> 881 160<717 751> 979 170<579 615> 1119 20G<1447 1607>
VStem: 266 126<638.2 763.771> 473 108<121.331 258.643> 561 113<686.351 769.3> 939 159<800.336 926.7>
Fore
496 789 m 0x78d8
 437.356 789 392 745.593 392 685 c 0
 392 649 410 620 456 620 c 0
 540 620 561 701.95 561 729 c 0
 561 760 542 789 496 789 c 0x78d8
473 156 m 0x78e8
 473 290.909 575.976 443.516 730 446 c 1
 760 587 l 2
 777 668 835 743 933 814 c 1
 937 831 939 848 939 863 c 0
 939 912 919 951 882 979 c 1
 717 881 l 1
 579 979 l 1
 546 961 520 930 500 886 c 1
 510 887 520 888 530 888 c 0
 612 888 674 841 674 756 c 0x78d8
 674 683.336 625.8 508 433 508 c 0
 324 508 266 571 266 679 c 0
 266 836.501 370.359 1053.86 615 1149 c 1
 751 1041 l 5
 918 1149 l 1
 1038 1089 1098 998 1098 876 c 0
 1098 847 1095 816 1088 783 c 1
 992 728 936 663 920 587 c 2
 882 409 l 1
 1240 166 l 1
 1447 1139 l 1
 1607 1139 l 1
 1365 0 l 1
 1205 0 l 1
 846 243 l 1
 825 146 l 2
 803 43 739 -10 634 -10 c 0
 524.93 -10 473.034 67.2204 473 156 c 0x78e8
714 328 m 1
 639.372 328 581 237.956 581 169 c 0x78e8
 582.181 132.332 595.09 109 624 109 c 0
 649 109 671 132 679 166 c 2
 714 328 l 1
EndSplineSet
EndChar
StartChar: uni0E07
Encoding: 128 3591 130
Width: 1000
Flags: HW
HStem: -10 160<469.3 708.5> 741 113<748.7 830.06> 1021 129<753.16 895>
VStem: 285 161<169.3 413.312> 298 164<417.944 640> 631 106<872.9 968.095> 906 147<907.53 1008.8>
Fore
631 874 m 0xf6
 631 946.38 680.479 1146.72 895 1150 c 0
 1001 1142 1053 1085 1053 978 c 0
 1053 949 1050 917 1042 881 c 2
 913 272 l 2
 873 85 752 -9 551 -10 c 0
 374 -10 285 82 285 266 c 2xf6
 298 719 l 1
 462 640 l 1xee
 446 272 l 2
 450 193 496 150 585 150 c 0
 680 150 735 194 752 272 c 2
 858 770 l 1
 838 751 806 741 763 741 c 4
 674.72 741 631 792 631 874 c 0xf6
840 1021 m 0
 773.2 1021 737 968.125 737 921 c 0
 737 884 761 854 802 854 c 0
 869.8 854 906 920.1 906 962 c 0
 906 998 879 1021 840 1021 c 0
EndSplineSet
EndChar
StartChar: uni0E08
Encoding: 129 3592 131
Width: 1200
Flags: HW
HStem: -10 160<696.8 884> 345 110<441.2 522.337> 623 130<454.66 589.6> 989 160<589.3 984.5>
VStem: 323 109<474.2 592.191> 518 166<162.9 276.166> 601 147<519.57 607.2> 1027 170<751.458 947.4>
Fore
323 488 m 0xfd
 323 613.303 416.762 753 586 753 c 0
 693 753 748 701 748 600 c 0xfb
 748 574 744 544 737 512 c 2
 689 283 l 2
 685 266 684 251 684 237 c 0
 684 180 716 151 780 150 c 0
 860 150 909 193 927 279 c 2
 1020 715 l 2
 1025 738 1027 760 1027 781 c 0
 1027 909 938 989 783 989 c 0
 634 989 494 938 365 843 c 1
 290 912 l 1
 459 1067 635 1149 817 1149 c 0
 1062 1149 1197 1043 1197 849 c 0
 1197 815 1193 779 1185 740 c 2
 1087 279 l 2
 1046 87 933 -9 746 -10 c 0
 594 -10 518 56 518 187 c 0
 518 215 522 248 529 283 c 2
 548 373 l 1
 533 357 505 345 466 345 c 0
 383 345 323 398 323 488 c 0xfd
535 623 m 0
 473.2 623 432 575.763 432 521 c 0
 432 485 452 455 488 455 c 0
 587.85 455 601 544.137 601 563 c 0
 601 597 577 623 535 623 c 0
EndSplineSet
EndChar
StartChar: uni0E09
Encoding: 130 3593 132
Width: 1395
Flags: HW
HStem: -10 113<1101 1250.06> 362 111<376.5 458.412> 641 130<382.03 520> 986 163<671.1 1070.2>
VStem: 260 106<492.2 606.844> 535 143<540.309 629.1> 1104 170<758.31 948.8> 1245 113<179.949 307>
Fore
260 507 m 0xfd
 260 592.847 310.4 769.4 520 771 c 0
 625 767 678 711 678 603 c 0
 678 573 674 539 666 502 c 2
 596 176 l 1
 1031 409 l 1
 1096 715 l 2
 1101 740 1104 763 1104 785 c 0
 1104 911 1018 986 844 986 c 0
 711 986 576 938 441 843 c 1
 366 912 l 1
 536 1069 707 1149 878 1149 c 0
 1137 1149 1274 1043 1274 850 c 0xfe
 1274 816 1269 779 1261 740 c 2
 1199 446 l 1
 1304 434 1358 379 1358 280 c 0
 1358 181.111 1308.35 -10 1101 -10 c 0
 1002.6 -10 978 61.775 978 125 c 0
 978 154 983 189 993 227 c 1
 559 0 l 1
 399 0 l 1
 482 391 l 1
 459 369 437 362 401 362 c 0
 306 362 260 418 260 507 c 0xfd
1165 103 m 0
 1230.43 103 1245 213.519 1245 242 c 0xfd
 1245 292 1218 319 1165 328 c 1
 1128 156 l 2
 1127 150 1126 145 1126 141 c 0
 1126 117 1140.98 103 1165 103 c 0
469 641 m 0
 402.1 641 366 591.188 366 539 c 0
 366 503 387 473 422 473 c 0
 520.766 473 535 561.93 535 581 c 0
 535 618 507 641 469 641 c 0
EndSplineSet
EndChar
StartChar: uni0E0A
Encoding: 131 3594 133
Width: 1390
Flags: HW
HStem: 0 164<777 1083> 545 113<425.5 593.2> 823 102<525 578.3> 1005 144<638.9 852.75>
VStem: 293 125<670.5 764.297> 589 109<716.822 810.1> 1175 165<576.414 680.9>
Fore
698 798 m 0
 698 718.695 652.935 549.422 451 545 c 0
 345 551 293 606 293 711 c 0
 293 760.217 300.293 904.818 451 1042 c 0
 530 1113 626 1149 741 1149 c 0
 892 1149 997 1072 1037 921 c 1
 1245 972 1361 1052 1384 1163 c 2
 1390 1188 l 1
 1556 1188 l 1
 1551 1161 l 2
 1528 1028 1390 905 1197 858 c 1
 1285 818 1340 724 1340 634 c 0
 1340 619 1338 604 1335 589 c 2
 1208 0 l 1
 582 0 l 1
 704 575 l 2
 721 655 779 726 879 789 c 1
 883.192 918.035 823.5 1005 726 1005 c 0
 659 1005 588 970 557 925 c 1
 651 924 698 881 698 798 c 0
866 572 m 2
 777 164 l 1
 1083 164 l 1
 1173 578 l 2
 1174 585 1175 592 1175 599 c 0
 1175 662 1120 741 1033 768 c 1
 938 715 883 650 866 572 c 2
525 823 m 0
 429.202 823 418 743.837 418 716 c 0
 418 681 439 658 484 658 c 0
 568 658 589 728.275 589 762 c 0
 589 799 566 823 525 823 c 0
EndSplineSet
EndChar
StartChar: uni0E0B
Encoding: 132 3595 134
Width: 1390
Flags: HMW
HStem: 0 164<782 1088> 507 116<360.9 491.581> 790 104<450.4 511.3> 881 160<677 711> 979 170<840 876>
VStem: 219 128<636.9 758.125> 519 111<671.238 777> 1179 165<579.414 699>
Fore
458 790 m 0
 394.784 790 347 741.25 347 685 c 0
 347 648 375 623 422 623 c 0
 475.524 623 519 678.172 519 731 c 0
 519 764 499 790 458 790 c 0
630 777 m 0
 630 695.645 579.8 507 379 507 c 0
 287 507 219 577 219 677 c 0
 219 864 369.739 1073.61 575 1149 c 1
 575 1148 621 1113 711 1041 c 1
 876 1149 l 1
 971 1115 1026 1039 1041 921 c 1
 1245 957 1362 1040 1388 1163 c 2
 1394 1188 l 1
 1560 1188 l 1
 1554 1164 l 2
 1525 1024 1394 908 1201 861 c 1
 1289 821 1344 728 1344 637 c 0
 1344 622 1342 607 1339 592 c 2
 1213 0 l 1
 587 0 l 1
 709 575 l 2
 724 646 783 713 883 776 c 1
 888 803 891 828 891 851 c 0
 891 909 874 952 840 979 c 1
 677 881 l 1
 536 979 l 1
 501 958 475 927 457 886 c 1
 473 892 489 894 505 894 c 0
 548.236 894 630 871.357 630 777 c 0
1176 581 m 2
 1178 590 1179 599 1179 608 c 0
 1179 678 1123 744 1037 771 c 1
 942 718 886 653 869 575 c 2
 782 164 l 1
 1088 164 l 1
 1176 581 l 2
EndSplineSet
EndChar
StartChar: uni0E0C
Encoding: 133 3596 135
Width: 1750
Flags: HW
HStem: -11 116<382.8 566.751 887.667 950.8> 273 124<457.144 532.2> 989 160<648.2 1051.2>
VStem: 234 138<124.2 236.013> 541 115<168.974 270> 760 111<97.334 221.407> 1078 167<708.591 955.6>
Fore
1065 657 m 2
 1074 699 1078 737 1078 771 c 0
 1078 913 1002 989 838 989 c 0
 692 989 572 934 475 825 c 1
 551 808 602 754 630 663 c 1
 523 592 458 505 437 403 c 2
 429 369 l 1
 449 387 476 396 511 397 c 0
 613 396 656 347 656 270 c 0
 656 90 533.4 -11 392 -11 c 0
 286.88 -11 234 51 234 158 c 0
 234 188 238 221 246 258 c 2
 277 403 l 2
 299 508 361 598 463 671 c 1
 448 730 391 770 290 792 c 1
 446 1030 640 1149 872 1149 c 0
 1118 1149 1245 1038 1245 824 c 0
 1245 778 1240 728 1228 673 c 2
 1172 409 l 1
 1532 176 l 1
 1737 1139 l 1
 1897 1139 l 1
 1655 0 l 1
 1495 0 l 1
 1136 243 l 1
 1115 146 l 2
 1095 52 1024.02 -10 924 -10 c 0
 817.98 -10 760 42 760 138 c 0
 760 202.159 792.252 426.876 1020 446 c 1
 1065 657 l 2
871 165 m 0
 871 112.949 905.391 108 917 108 c 0
 943 108 962 134 971 172 c 2
 1004 328 l 1
 893.86 324.761 871 210.62 871 165 c 0
475 273 m 0
 423.663 273 372 231.226 372 171 c 0
 372 135 393 105 427 105 c 0
 534.501 105 541 203.311 541 212 c 0
 541 245 519 273 475 273 c 0
EndSplineSet
EndChar
StartChar: uni0E0D
Encoding: 134 3597 136
Width: 1745
Flags: MW
HStem: -466 118<1079.2 1349.8> -143 82<953.174 1084.6>
VStem: 844 106<-279 -203.737> 1100 91<-235.863 -152.8>
Fore
844 -279 m 0
 844 -221.105 886.8 -61 1058 -61 c 0
 1140 -61 1191 -110 1191 -180 c 0
 1191 -205.846 1181.09 -298.229 1094 -345 c 1
 1112 -347 1130 -348 1147 -348 c 0
 1303 -348 1416 -253 1485 -65 c 1
 1601 -65 l 1
 1538 -322 1363 -466 1107 -466 c 0
 941 -466 844 -378 844 -279 c 0
1043 -143 m 0
 973.903 -143 950 -194.695 950 -235 c 0
 950 -266 969 -287 1011 -287 c 0
 1082.2 -287 1100 -226.325 1100 -197 c 0
 1100 -163 1075 -143 1043 -143 c 0
EndSplineSet
Refer: 256 63247 N 1 0 0 1 0 0 2
Substitution: 0 65534 'nds0' uni0E0D.descless
Substitution: 0 65534 'ndsc' uni0E0D.descless
EndChar
StartChar: uni0E0E
Encoding: 135 3598 137
Width: 1375
Flags: HW
HStem: -413 125<442 575.7> -112 104<523.119 663.761> -10 122<235.4 394.52> 280 119<253.92 380.821> 990 160<806.7 1178.5>
VStem: 111 110<131.6 252.272> 279 146<-299 -152.468> 1216 168<710.613 951.8>
AnchorPoint: "BelowBase" 1127.71 -453 basechar 0
Fore
279 -299 m 0xbf
 279 -130.416 497.468 -8 645 -8 c 0xdf
 690 -8 731 -18 767 -34 c 1
 897 140 l 1
 995 105 l 1
 866 -76 l 1
 923 -103 975 -148 1020 -209 c 1
 1204 658 l 2
 1212 696 1216 730 1216 762 c 0
 1216 908 1132 990 977 990 c 0
 846 990 726 937 615 826 c 1
 694 801 746 747 769 664 c 1
 662 591 597 505 576 404 c 2
 545 259 l 2
 508 84 418 -10 283 -10 c 0
 173 -10 111 39 111 136 c 0
 111 275.975 210.861 399 331 399 c 0
 368 399 394 389 409 370 c 1
 416 404 l 2
 440 516 502 603 602 672 c 1
 577 731 520 771 430 793 c 1
 584 1031 778 1150 1011 1150 c 0
 1248 1150 1384 1036 1384 818 c 0
 1384 774 1378 726 1367 674 c 2
 1137 -410 l 1
 977 -410 l 1
 933 -319 873 -248 797 -196 c 1
 697 -339 578 -413 442 -413 c 0
 334 -413 279 -374 279 -299 c 0xbf
610 -112 m 0
 543.169 -112 425 -173.591 425 -244 c 0
 425 -275 456 -288 486 -288 c 0
 555 -288 661 -224 702 -147 c 1
 675 -123 644 -112 610 -112 c 0
325 280 m 0
 270.323 280 221 235.825 221 181 c 0
 221 143 245 112 277 112 c 0xbf
 367.4 112 390 185.663 390 223 c 0
 390 256 370 280 325 280 c 0
EndSplineSet
EndChar
StartChar: uni0E0F
Encoding: 136 3599 138
Width: 1375
Flags: HW
HStem: -413 125<281.712 454.3> -121 112<323.971 528.177> -10 122<228.3 403.573> 280 120<242.5 384.2> 990 160<802.8 1185>
VStem: 117 106<129.2 250.36> 137 138<-300 -189.715> 1215 169<708.885 943.6>
AnchorPoint: "BelowBase" 1127.71 -453 basechar 0
Fore
137 -300 m 0xbb
 137 -146.587 322.411 -9 513 -9 c 0xdb
 558 -9 594 -18 622 -34 c 1
 752 140 l 1
 850 105 l 1
 721 -76 l 1
 748 -97 768 -124 779 -156 c 1
 920 -38 l 1
 1020 -209 l 1
 1204 658 l 2
 1212 694 1215 728 1215 759 c 0
 1215 901 1137 990 977 990 c 0
 843 990 723 935 615 826 c 1
 705 795 757 741 769 664 c 1
 664 601 599 514 576 404 c 2
 545 259 l 2
 508 83 420 -10 285 -10 c 0
 175 -10 117 42 117 144 c 0xbd
 117 314.591 241.826 400 316 400 c 0
 362 400 394 393 409 370 c 1
 416 404 l 2
 441 518 503 607 602 672 c 1
 568 743 510 783 430 793 c 1
 589 1030 782 1150 1011 1150 c 0
 1257 1150 1384 1038 1384 824 c 0
 1384 778 1379 728 1367 674 c 2
 1137 -410 l 1
 977 -410 l 1
 874 -252 l 1
 735 -362 l 1
 715 -287 685 -234 646 -203 c 1
 578 -328 432 -413 297 -413 c 0
 188 -413 137 -373 137 -300 c 0xbb
472 -121 m 0
 358.132 -121 275 -205.012 275 -256 c 0
 275 -285 312 -288 336 -288 c 0
 427 -288 529 -211 557 -147 c 1
 533 -130 505 -121 472 -121 c 0
327 280 m 0
 262 280 223 233.2 223 176 c 0
 223 140 240 112 279 112 c 0xbd
 374.825 112 392 192.442 392 224 c 0
 392 258 371 280 327 280 c 0
EndSplineSet
EndChar
StartChar: uni0E10
Encoding: 137 3600 139
Width: 1130
Flags: MW
HStem: -532 71<77.2378 217.9> -413 129<571.1 645.8> -347 75<99.7662 285.656> -276 62<641.1 712.755> -102 68<652.06 749.3>
VStem: -28 91<-443 -386> 562 74<-205.5 -128.962> 753 132<-187.422 -115.333>
Fore
-28 -443 m 0
 -28 -367.442 63.552 -272 211 -272 c 0
 254 -272 302 -280 356 -294 c 1
 426 -208 l 1
 509 -230 l 1
 433 -324 l 1
 458 -335 473 -349 480 -368 c 1
 537 -312 581 -284 614 -284 c 0
 655 -284 684 -299 702 -329 c 1
 716 -262 l 1
 704 -271 685 -276 659 -276 c 0
 598 -276 562 -240 562 -184 c 0
 562 -122.097 601.487 -34 736 -34 c 0
 835 -34 885 -77 885 -162 c 0
 885 -180 883 -201 878 -223 c 2
 812 -530 l 1
 662 -530 l 1
 657 -455 632 -416 586 -413 c 0
 539 -414 493 -453 448 -529 c 1
 437 -463 414 -422 380 -406 c 1
 298 -490 207 -532 107 -532 c 0
 29 -532 -28 -496 -28 -443 c 0
684 -214 m 0
 726.675 -214 753 -177.863 753 -146 c 0
 753 -124 740 -102 709 -102 c 0
 665.2 -102 636 -139.125 636 -173 c 0
 636 -198 651 -214 684 -214 c 0
63 -438 m 0
 63 -449 97 -461 123 -461 c 0
 196 -461 282 -418 309 -362 c 1
 270 -352 235 -347 204 -347 c 0
 123.82 -347.43 63 -398 63 -438 c 0
EndSplineSet
Refer: 241 63232 N 1 0 0 1 0 0 2
Substitution: 0 65534 'nds0' uni0E10.descless
Substitution: 0 65534 'ndsc' uni0E10.descless
EndChar
StartChar: uni0E11
Encoding: 138 3601 140
Width: 1700
Flags: HMW
HStem: 0 21G<636 838 1374 1534> 508 112<433 458> 789 99<496 530> 881 160<717 751> 932 204<1517 1579> 979 170<579 615>
VStem: 266 126<671 689> 561 113<729 756> 932 160<831 864>
Fore
496 789 m 0
 437.356 789 392 745.593 392 685 c 0
 392 650 410 620 456 620 c 0
 540 620 561 701.95 561 729 c 0
 561 760 542 789 496 789 c 0
674 756 m 0
 674 683.336 625.8 508 433 508 c 0
 324 508 266 568 266 678 c 0
 266 824.898 359.594 1049.68 615 1149 c 1
 751 1041 l 5
 918 1149 l 1
 1034 1086 1092 986 1092 849 c 0
 1092 828 1091 806 1088 783 c 1
 993 727 934 656 920 587 c 2
 851 263 l 1
 1342 990 l 2
 1404 1087 1482 1136 1579 1136 c 0
 1674 1136 1735 1079 1735 977 c 0
 1735 957 1732 934 1727 910 c 2
 1534 0 l 1
 1374 0 l 1
 1556 857 l 2
 1559 868 1560 878 1560 887 c 0
 1560 915 1547 930 1521 932 c 2
 1517 932 l 2
 1492 932 1464 908 1433 862 c 2
 838 0 l 1
 636 0 l 1
 761 587 l 2
 777 666 831 736 927 796 c 1
 930 814 932 830 932 847 c 0
 932 900 915 944 882 979 c 1
 717 881 l 5
 579 979 l 1
 546 961 520 930 500 886 c 1
 510 887 520 888 530 888 c 0
 612 888 674 841 674 756 c 0
EndSplineSet
EndChar
StartChar: uni0E12
Encoding: 139 3602 141
Width: 1850
Flags: HMW
HStem: -10 112<941.375 1008> 357 97<576 625> 622 123<564.88 726.6> 863 170<826 863> 979 170<687 723> 1119 20G<1772 1932>
VStem: 250 161<197 625.916> 466 103<473.9 565.354> 738 124<518.57 607.5> 827 110<114.323 216.997> 1156 159<719.72 915.4>
Fore
862 607 m 0xe3d0
 862 486.164 780.438 243.919 389 0 c 1
 204 0 l 1
 227 108 l 2
 241 178 250 272 250 394 c 0
 250 504.76 248.846 604.587 270 702 c 0
 315 915 469 1076 723 1149 c 1
 863 1033 l 1
 1060 1149 l 1
 1230 1109 1315 1003 1315 829 c 0
 1315 783 1309 732 1297 677 c 2
 1240 409 l 1
 1564 160 l 1
 1772 1139 l 1
 1932 1139 l 1
 1690 0 l 1
 1528 0 l 1
 1204 243 l 1
 1183 146 l 2
 1162 49 1098 -3 992 -10 c 0
 883 -9 827 38 827 133 c 0xe3b0
 827 253.109 895.088 400.528 1088 446 c 1
 1149 734 l 2
 1154 758 1156 780 1156 801 c 0
 1156 889 1112 948 1024 979 c 1
 826 863 l 1
 687 979 l 1
 546 931 450 820 428 676 c 0
 416 597 411 520 411 446 c 0
 411 393 413 341 418 290 c 2
 415 197 l 1
 500 231 568 287 620 365 c 1
 605 360 590 357 576 357 c 0
 538.578 357 466 385.77 466 477 c 0
 466 620.725 573.802 745 711 745 c 0
 809 745 862 699 862 607 c 0xe3d0
937 155 m 0
 937 123.71 950.75 102 982 102 c 0
 1002 102 1019 121 1028 166 c 2
 1063 328 l 1
 954.055 329.853 937 187.16 937 155 c 0
672 622 m 0
 589.6 622 569 554.275 569 522 c 0
 569 485 594 454 625 454 c 0
 724.85 454 738 543.137 738 562 c 0xe3d0
 738 597 714 622 672 622 c 0
EndSplineSet
EndChar
StartChar: uni0E13
Encoding: 140 3603 142
Width: 1900
Flags: HW
HStem: -11 114<377 482.871 1654.37 1764.9> 271 124<462.698 532.9> 989 160<649.9 1055.5>
VStem: 237 135<119.5 231.138> 541 112<166.912 259> 1081 168<715.221 949> 1763 113<188.233 309.1>
Fore
1068 657 m 2
 1076 697 1081 734 1081 767 c 0
 1081 907 1006 989 841 989 c 0
 694 989 573 934 478 825 c 1
 546 810 598 756 633 663 c 1
 527 594 463 508 441 403 c 2
 433 369 l 1
 458 386 485 395 514 395 c 0
 599 395 653 345 653 259 c 0
 653 12 464.67 -11 404 -11 c 0
 293 -11 237 46 237 157 c 0
 237 187 241 220 249 258 c 2
 280 403 l 2
 304 518 366 607 466 671 c 1
 425 738 368 779 293 792 c 1
 455 1030 648 1149 875 1149 c 0
 1123 1149 1249 1037 1249 824 c 0
 1249 779 1243 728 1231 673 c 2
 1127 183 l 1
 1548 409 l 1
 1702 1139 l 1
 1862 1139 l 1
 1715 446 l 1
 1822 442 1876 390 1876 289 c 0
 1876 117 1785.72 -9 1637 -9 c 0
 1542.99 -9 1496 36 1496 125 c 0
 1496 159.8 1506.31 208.363 1514 243 c 1
 1083 0 l 1
 928 0 l 1
 1068 657 l 2
1683 109 m 0
 1746 109 1763 217.002 1763 248 c 0
 1763 295 1741 323 1690 328 c 1
 1657 173 l 2
 1654 160 1653 149 1653 140 c 0
 1653 120 1660.98 109 1683 109 c 0
477 271 m 0
 419.001 271 372 224.315 372 165 c 0
 372 130 389 103 429 103 c 0
 526.928 103 541 187.056 541 207 c 0
 541 238 520 271 477 271 c 0
EndSplineSet
EndChar
StartChar: uni0E14
Encoding: 141 3604 143
Width: 1330
Flags: MW
HStem: 0 21G<222 407 1011 1171> 362 102<591.5 693.176> 632 113<606.97 752.7> 989 160<507.3 1128.8>
VStem: 267.519 163.481<492.791 910> 487 99<483.8 584.1> 756 124<527.562 622.6> 1164 163<687.509 942.3>
Fore
267.519 492.791 m 0
 267.519 895.29 489.505 1149 904 1149 c 0
 1187 1149 1327 1032 1327 805 c 0
 1327 758 1322 707 1310 652 c 2
 1171 0 l 1
 1011 0 l 1
 1154 675 l 2
 1160 705 1164 733 1164 759 c 0
 1164 900 1070 989 874 989 c 0
 591.923 987.706 431 820 431 520 c 0
 431 520 439.185 389.041 439.185 291.824 c 0
 439.185 248.935 437.592 212.612 433 197 c 1
 502 218 571 274 638 365 c 1
 638 365 622 362 613 362 c 16
 570 362 487 408 487 500 c 0
 487 564.692 535.4 745 729 745 c 0
 830 745 880 700 880 611 c 0
 880 488.8 803.019 226.932 407 0 c 1
 222 0 l 1
 245 108 l 2
 263.762 195.554 267.519 358.182 267.519 492.791 c 0
689 632 m 0
 625.9 632 586 587.825 586 528 c 0
 586 494 603 464 642 464 c 0
 744.352 464 756 549.474 756 581 c 0
 756 613 738 632 689 632 c 0
EndSplineSet
EndChar
StartChar: uni0E15
Encoding: 142 3605 144
Width: 1330
Flags: HMW
HStem: 0 21G<232 417 1021 1181> 622 123<618.88 759.8> 863 170<854 891> 979 170<715 751>
VStem: 277 162<251.477 757.146> 495 101<470.1 594.64> 767 123<517.364 617.5> 1184 159<719.72 915.4>
Fore
890 608 m 0
 890 488.659 812.173 246.246 417 0 c 1
 232 0 l 1
 255 108 l 2
 270 183 277 300 277 435 c 0
 277 876 414 1041 751 1149 c 1
 891 1033 l 1
 1088 1149 l 5
 1258 1109 1343 1003 1343 829 c 0
 1343 783 1337 732 1325 677 c 2
 1181 0 l 1
 1021 0 l 1
 1177 734 l 2
 1182 758 1184 780 1184 801 c 0
 1184 889 1140 948 1052 979 c 5
 854 863 l 1
 715 979 l 1
 470.318 895.704 439 686.959 439 453 c 0
 439 341.4 447 285.6 447 267 c 0
 447 234 443 197 443 197 c 1
 528 231 596 287 648 365 c 1
 634 360 619 357 605 357 c 0
 532 361 495 416 495 487 c 0
 495 571.483 558.816 745 739 745 c 0
 845 745 890 692 890 608 c 0
700 622 m 0
 637.6 622 596 575.8 596 513 c 0
 596 480 612 454 653 454 c 0
 754.802 454 767 538.916 767 572 c 0
 767 607 746 622 700 622 c 0
EndSplineSet
EndChar
StartChar: uni0E16
Encoding: 143 3606 145
Width: 1240
Flags: HW
HStem: -11 116<379.6 568.949> 273 124<459.144 526.4> 989 160<650.2 1044.1>
VStem: 237 136<122.8 235.042> 543 114<175.626 267> 1079 168<711.025 955.1>
Fore
657 267 m 0
 657 178.196 604.4 -11 394 -11 c 0
 293 -11 237 51 237 163 c 0
 237 191 241 223 248 258 c 2
 279 403 l 2
 301 508 363 598 465 671 c 1
 450 730 393 770 292 792 c 1
 448 1030 642 1149 874 1149 c 0
 1117 1149 1247 1037 1247 821 c 0
 1247 776 1241 727 1230 673 c 2
 1087 0 l 1
 927 0 l 1
 1067 657 l 2
 1075 696 1079 732 1079 764 c 0
 1079 911 997 989 840 989 c 0
 694 989 574 934 477 825 c 1
 553 808 604 754 632 663 c 1
 525 592 460 505 439 403 c 2
 431 369 l 1
 451 387 478 396 513 397 c 0
 614 396 657 348 657 267 c 0
477 273 m 0
 409.3 273 373 220.2 373 167 c 0
 373 133 391 105 429 105 c 0
 536.653 105 543 199.725 543 213 c 0
 543 250 515 273 477 273 c 0
EndSplineSet
EndChar
StartChar: uni0E17
Encoding: 144 3607 146
Width: 1350
Flags: HMW
HStem: 0 21G<317 518 1054 1214> 743 116<377.7 457.902> 932 204<1210.5 1214.5> 1026 124<366.84 533.5>
VStem: 258 113<872.5 969.09> 542 132<924.741 1018.2>
Fore
258 884 m 0
 258 1048.46 380.615 1150 518 1150 c 0
 614 1150 674 1085 674 969 c 0
 674 942 671 913 664 881 c 2
 533 263 l 1
 1022 990 l 2
 1084 1087 1162 1136 1259 1136 c 0
 1361 1136 1416 1082 1416 984 c 0
 1416 962 1413 937 1407 910 c 2
 1214 0 l 1
 1054 0 l 1
 1236 857 l 2
 1239 869 1240 880 1240 890 c 0
 1240 917 1228 932 1201 932 c 0
 1174 932 1146 911 1113 862 c 2
 518 0 l 1
 317 0 l 1
 481 770 l 1
 467 756 443 743 411 743 c 0
 309 743 258 792 258 884 c 0
475 1026 m 0
 391.8 1026 371 957.3 371 918 c 0
 371 883 390 859 431 859 c 0
 519.98 859 542 936.108 542 974 c 0
 542 1008 520 1026 475 1026 c 0
EndSplineSet
EndChar
StartChar: uni0E18
Encoding: 145 3608 147
Width: 1250
Flags: HMW
HStem: 0 151<442 896> 908 149<1083.8 1246.65> 997 151<684.9 981.3>
VStem: 970 172<511.5 629.5>
Fore
966 480 m 2xa0
 969 493 970 505 970 518 c 0
 970 559 956 596 922 604 c 0
 755 657 549 710 305 761 c 1
 430 1020 608 1148 856 1148 c 0xa0
 1084 1148 1112 1057 1206 1057 c 0
 1239 1057 1277 1062 1308 1071 c 1
 1236 916 l 1
 1213 911 1184 908 1157 908 c 0xc0
 1044 908 948 997 837 997 c 0
 720 997 635 960 572 871 c 1
 749 832 1008 753 1008 753 c 2
 1101 728 1142 671 1142 588 c 0
 1142 566 1139 543 1134 518 c 2
 1023 0 l 1
 249 0 l 1
 387 650 l 1
 548 650 l 1
 442 151 l 1
 896 151 l 1
 966 480 l 2xa0
EndSplineSet
EndChar
StartChar: uni0E19
Encoding: 146 3609 148
Width: 1400
Flags: HW
HStem: -10 113<1141 1276.94> 741 115<415.3 500.887> 1024 125<422.429 571.2>
VStem: 302 108<873.5 991.341> 579 144<918.023 1010.9> 1283 122<212.393 301>
Fore
302 885 m 0
 302 973.546 354.6 1149 565 1149 c 0
 668 1149 723 1089 723 978 c 0
 723 949 719 916 711 880 c 2
 561 174 l 1
 1069 402 l 1
 1226 1139 l 1
 1386 1139 l 1
 1245 475 l 1
 1352 468 1405 410 1405 301 c 0
 1405 273 1401 241 1394 205 c 0
 1364 56 1276 -10 1141 -10 c 0
 1060 -10 1023 45 1023 134 c 0
 1023 166 1027 203 1037 243 c 1
 519 0 l 1
 364 0 l 1
 527 769 l 1
 511 753 484 741 446 741 c 0
 361 741 302 795 302 885 c 0
1205 103 m 0
 1260.34 103 1283 189.333 1283 235 c 0
 1283 279.737 1260.03 328 1214 328 c 1
 1179 165 l 2
 1173.53 135.255 1172.5 103 1205 103 c 0
514 1024 m 0
 443.561 1024 410 974.647 410 919 c 0
 410 884 427 856 466 856 c 0
 557.45 856 579 929.556 579 968 c 0
 579 1001 558 1024 514 1024 c 0
EndSplineSet
EndChar
StartChar: uni0E1A
Encoding: 147 3610 149
Width: 1300
Flags: HW
HStem: 0 148<519 1024> 743 112<381 468.539> 1023 127<403.35 537.9>
VStem: 271 108<873.5 996.773> 548 140<920.048 1011.5>
Fore
271 891 m 0
 271 1068.27 414.77 1150 529 1150 c 0
 633 1150 688 1097 688 986 c 0
 688 955 683 920 675 881 c 2
 519 148 l 1
 1024 148 l 1
 1235 1139 l 1
 1395 1139 l 1
 1153 0 l 1
 328 0 l 1
 492 770 l 1
 468 749 432 743 381 743 c 0
 306 743 271 810 271 891 c 0
482 1023 m 0
 421.5 1023 379 978.825 379 919 c 0
 379 884 397 855 435 855 c 0
 528.989 855 548 934.006 548 966 c 0
 548 1001 525 1023 482 1023 c 0
EndSplineSet
EndChar
StartChar: uni0E1B
Encoding: 148 3611 150
Width: 1300
Flags: HW
HStem: 0 148<545 1050> 743 112<407 494.539> 1023 127<429.35 563.9>
VStem: 297 108<873.5 996.773> 574 140<920.048 1011.5>
AnchorPoint: "AboveBase" 1180.81 1227 basechar 0
Fore
297 891 m 0
 297 1068.27 440.77 1150 555 1150 c 0
 659 1150 714 1097 714 986 c 0
 714 955 709 920 701 881 c 2
 545 148 l 1
 1050 148 l 1
 1334 1480 l 1
 1494 1480 l 1
 1179 0 l 1
 354 0 l 1
 518 770 l 1
 494 749 458 743 407 743 c 0
 332 743 297 810 297 891 c 0
508 1023 m 0
 447.5 1023 405 978.825 405 919 c 0
 405 884 423 855 461 855 c 0
 554.989 855 574 934.006 574 966 c 0
 574 1001 551 1023 508 1023 c 0
EndSplineSet
EndChar
StartChar: uni0E1C
Encoding: 149 3612 151
Width: 1200
Flags: W
HStem: 0 21G<134 294 880 1040> 741 109<484.1 649.186> 1018 132<514.005 632.5>
VStem: 640 113<915.048 1003.9>
Fore
753 994 m 0
 753 830.481 623.686 741 536 741 c 0
 499 741 473 751 458 770 c 1
 339 214 l 1
 703 627 l 1
 751 627 l 1
 925 211 l 1
 1122 1139 l 1
 1282 1139 l 1
 1040 0 l 1
 880 0 l 1
 683 406 l 1
 294 0 l 1
 134 0 l 1
 321 881 l 2
 357 1048 456 1150 581 1150 c 0
 696 1150 753 1091 753 994 c 0
574 1018 m 0
 527.85 1018 471 975.825 471 919 c 0
 471 881 494 850 527 850 c 0
 620.989 850 640 929.006 640 961 c 0
 640 994 619 1018 574 1018 c 0
EndSplineSet
EndChar
StartChar: uni0E1D
Encoding: 150 3613 152
Width: 1200
Flags: W
HStem: 0 21G<153 313 899 1059> 741 109<503.1 668.186> 1018 132<533.005 651.5>
VStem: 659 113<915.048 1003.9>
AnchorPoint: "AboveBase" 1059.81 1227 basechar 0
Fore
772 994 m 0
 772 830.481 642.686 741 555 741 c 0
 518 741 492 751 477 770 c 1
 358 214 l 1
 722 627 l 1
 770 627 l 1
 944 211 l 1
 1214 1480 l 1
 1374 1480 l 1
 1059 0 l 1
 899 0 l 1
 702 406 l 1
 313 0 l 1
 153 0 l 1
 340 881 l 2
 376 1048 475 1150 600 1150 c 0
 715 1150 772 1091 772 994 c 0
593 1018 m 0
 546.85 1018 490 975.825 490 919 c 0
 490 881 513 850 546 850 c 0
 639.989 850 659 929.006 659 961 c 0
 659 994 638 1018 593 1018 c 0
EndSplineSet
EndChar
StartChar: uni0E1E
Encoding: 151 3614 153
Width: 1350
Flags: W
HStem: 0 21G<300 490 1016 1206> 740 117<359.6 432.781> 1025 124<381.168 506.4>
VStem: 239 114<874.8 996.165> 523 136<923.266 1014.4>
Fore
239 880 m 0
 239 973.681 291.4 1149 501 1149 c 0
 604 1149 659 1091 659 979 c 0
 659 950 655 917 647 880 c 2
 516 263 l 1
 951 1083 l 1
 999 1083 l 1
 1101 260 l 1
 1288 1139 l 1
 1448 1139 l 1
 1206 0 l 1
 1016 0 l 1
 917 810 l 1
 490 0 l 1
 300 0 l 1
 463 769 l 1
 440 750 410 740 373 740 c 0
 289 740 239 790 239 880 c 0
457 1025 m 0
 398.667 1025 353 978.358 353 919 c 0
 353 885 371 857 409 857 c 0
 508.197 857 523 944.108 523 965 c 0
 523 1003 495 1025 457 1025 c 0
EndSplineSet
EndChar
StartChar: uni0E1F
Encoding: 152 3615 154
Width: 1450
Flags: W
HStem: 0 21G<381 571 1097 1287> 740 117<440.6 513.781> 1025 124<462.168 587.4>
VStem: 320 114<874.8 996.165> 604 136<923.266 1014.4>
AnchorPoint: "AboveBase" 1291.81 1227 basechar 0
Fore
320 880 m 0
 320 973.681 372.4 1149 582 1149 c 0
 685 1149 740 1091 740 979 c 0
 740 950 736 917 728 880 c 2
 597 263 l 1
 1032 1083 l 1
 1080 1083 l 1
 1182 260 l 1
 1442 1480 l 1
 1602 1480 l 1
 1287 0 l 1
 1097 0 l 1
 998 810 l 1
 571 0 l 1
 381 0 l 1
 544 769 l 1
 521 750 491 740 454 740 c 0
 370 740 320 790 320 880 c 0
538 1025 m 0
 479.667 1025 434 978.358 434 919 c 0
 434 885 452 857 490 857 c 0
 589.197 857 604 944.108 604 965 c 0
 604 1003 576 1025 538 1025 c 0
EndSplineSet
EndChar
StartChar: uni0E20
Encoding: 153 3616 155
Width: 1350
Flags: HW
HStem: -10 122<226.8 398.328> 280 119<234.63 374.821> 990 160<800.7 1173.8>
VStem: 106 109<131.9 242.79> 1210 169<715.819 952.8>
Fore
106 143 m 0
 106 263.194 193.6 399 325 399 c 0
 362 399 388 389 403 370 c 1
 410 404 l 2
 434 513 496 603 596 672 c 1
 571 731 514 771 424 793 c 1
 578 1031 772 1150 1005 1150 c 0
 1251 1150 1379 1039 1379 825 c 0
 1379 779 1373 729 1361 674 c 2
 1218 0 l 1
 1058 0 l 1
 1198 658 l 2
 1206 696 1210 731 1210 763 c 0
 1210 909 1127 990 971 990 c 0
 840 990 720 937 609 826 c 1
 688 801 740 747 763 664 c 1
 656 591 591 505 570 404 c 2
 539 259 l 2
 502 84 399 -10 279 -10 c 0
 168 -10 106 49 106 143 c 0
319 280 m 0
 254.1 280 215 228.3 215 180 c 0
 215 143 237 112 271 112 c 0
 368.945 112 384 195.285 384 223 c 0
 384 256 364 280 319 280 c 0
EndSplineSet
EndChar
StartChar: uni0E21
Encoding: 154 3617 156
Width: 1350
Flags: HW
HStem: -10 123<320.245 394.8> 328 118<301.656 466> 739 116<435.1 506.838> 1023 127<437.19 586.1>
VStem: 206 111<122.864 224.654> 313 109<874.6 981.998> 592 139<922.856 1012.9>
Fore
313 890 m 0xf6
 313 1025.3 402.59 1150 563 1150 c 0
 675 1150 731 1095 731 985 c 0
 731 955 726 920 718 881 c 2
 618 409 l 1
 1025 159 l 1
 1233 1139 l 1
 1393 1139 l 1
 1151 0 l 1
 990 0 l 1
 582 243 l 1
 561 146 l 2
 533 43 470 -10 370 -10 c 0
 263 -10 206 39 206 135 c 0xfa
 206 304.5 316.344 453.272 466 446 c 1
 535 770 l 1
 517 751 490 739 457 739 c 0
 368 739 313 794 313 890 c 0xf6
441 328 m 1
 333.812 324.702 317 199.464 317 165 c 0
 317.335 132.587 329.65 113 361 113 c 0
 387 113 399 135 408 174 c 2
 441 328 l 1
525 1023 m 0
 457.453 1023 422 968.614 422 924 c 0xf6
 422 886 445 855 478 855 c 0
 572.434 855 592 937.671 592 970 c 0
 592 1003 572 1023 525 1023 c 0
EndSplineSet
EndChar
StartChar: uni0E22
Encoding: 155 3618 157
Width: 1200
Flags: HW
HStem: 0 156<378 900> 505 113<528.87 734> 743 112<544.6 721.328> 1023 126<562.35 696.9>
VStem: 345 155<624.3 779.47> 707 112<919.534 1011.5>
Fore
500 736 m 0
 500 634.105 576.208 618 734 618 c 2
 755 618 l 1
 731 505 l 1
 532.578 505 446.304 475.717 419 347 c 2
 378 156 l 1
 900 156 l 1
 1109 1139 l 1
 1269 1139 l 1
 1027 0 l 1
 199 0 l 1
 273 349 l 2
 293 444 358 515 469 562 c 1
 386 579 345 654 345 753 c 0
 345 782 349 813 356 845 c 0
 391 1011 478 1149 662 1149 c 0
 765 1149 819 1102 819 1004 c 0
 819 910.428 775 743 599 743 c 0
 548 743 516 753 503 770 c 1
 501 758 500 747 500 736 c 0
641 1023 m 0
 580.5 1023 538 978.825 538 919 c 0
 538 884 556 855 594 855 c 0
 691.945 855 707 938.285 707 966 c 0
 707 1001 684 1023 641 1023 c 0
EndSplineSet
EndChar
StartChar: uni0E23
Encoding: 156 3619 158
Width: 1100
Flags: HMW
HStem: -10 119<655 811.52> 277 106<634.88 791.231> 906 157<1014.64 1195.87> 998 151<652.1 994.818>
VStem: 523 116<126 218.957> 838 171<552.5 682.593>
Fore
533 872 m 1xd8
 815.096 813.4 1009 756.185 1009 609 c 0
 1009 598 1008 586 1005 574 c 2
 948 304 l 2
 899 77 836 -10 681 -10 c 0
 577 -10 523 36 523 126 c 0
 523 211.992 574.847 383 722 383 c 0
 757 383 784 379 800 363 c 1
 835 529 l 2
 837 539 838 548 838 557 c 0
 838 598 812.145 639.501 768 656 c 0
 669 693 500 727 266 762 c 1
 390 1020 574 1149 817 1149 c 0xd8
 992.405 1149 1054.65 1063 1188 1063 c 0
 1214 1063 1241 1066 1269 1072 c 1
 1197 917 l 1
 1178 910 1158 906 1134 906 c 0xe8
 969.787 906 943.629 998 773 998 c 0
 680 998 593 957 533 872 c 1xd8
742 277 m 0
 659.6 277 639 209.275 639 177 c 0
 639 140 664 109 694 109 c 0
 784.4 109 807 181.101 807 216 c 0
 807 247 788 277 742 277 c 0
EndSplineSet
EndChar
StartChar: uni0E24
Encoding: 157 3620 159
Width: 1240
Flags: HW
HStem: -11 116<377.6 566.949> 273 124<457.144 524.4> 989 160<648.2 1042.1>
VStem: 235 136<122.8 235.042> 541 114<175.626 267> 1077 168<708.108 955.1>
Fore
655 267 m 0
 655 178.196 602.4 -11 392 -11 c 0
 291 -11 235 51 235 163 c 0
 235 191 239 223 246 258 c 2
 277 403 l 2
 299 508 361 598 463 671 c 1
 448 730 391 770 290 792 c 1
 446 1030 640 1149 872 1149 c 0
 1115 1149 1245 1038 1245 822 c 0
 1245 777 1240 727 1228 673 c 2
 1004 -380 l 1
 844 -380 l 1
 1065 657 l 2
 1073 696 1077 732 1077 764 c 0
 1077 911 995 989 838 989 c 0
 692 989 572 934 475 825 c 1
 551 808 602 754 630 663 c 1
 523 592 458 505 437 403 c 2
 429 369 l 1
 449 387 476 396 511 397 c 0
 612 396 655 348 655 267 c 0
475 273 m 0
 407.3 273 371 220.2 371 167 c 0
 371 133 389 105 427 105 c 0
 534.653 105 541 199.725 541 213 c 0
 541 250 513 273 475 273 c 0
EndSplineSet
EndChar
StartChar: uni0E25
Encoding: 158 3621 160
Width: 1255
Flags: HMW
HStem: -11 115<417.9 603.841> 272 127<491.693 569.9> 604 140<635.6 984> 984 165<638.6 1036.4>
VStem: 264 146<121.5 225.008> 580 106<173.534 273> 1083 166<727.367 949.6>
Fore
1053 609 m 1
 1076 714 l 2
 1081 736 1083 758 1083 778 c 0
 1083 910 983 984 805 984 c 0
 677 984 538 934 387 834 c 1
 357 944 l 1
 520 1077 683 1149 842 1149 c 0
 1107 1149 1249 1036 1249 829 c 0
 1249 793 1245 754 1236 713 c 2
 1084 0 l 1
 924 0 l 1
 980 263 l 2
 1015.81 431.17 960 604 736 604 c 0
 578.784 604 488.435 504.066 468 407 c 2
 459 369 l 1
 482 389 514 399 556 399 c 0
 645 399 686 355 686 273 c 0
 686 117.995 583.009 -11 431 -11 c 0
 357.958 -11 264 23 264 159 c 0
 264 188 268 221 276 258 c 2
 303 388 l 2
 329 508 388 598 479 656 c 0
 573 716 665 744 763 744 c 0
 933 744 1033.8 667.997 1053 609 c 1
514 272 m 0
 439.715 272 410 211.621 410 167 c 0
 410 132 429 104 466 104 c 0
 572.031 104 580 195.491 580 217 c 0
 580 252 557 272 514 272 c 0
EndSplineSet
EndChar
StartChar: uni0E26
Encoding: 159 3622 161
Width: 1350
Flags: HW
HStem: -10 122<241.8 413.328> 280 119<249.63 389.821> 990 160<815.7 1188.8>
VStem: 121 109<131.9 242.79> 1225 168<709.814 951.8>
Fore
121 143 m 0
 121 263.194 208.6 399 340 399 c 0
 377 399 403 389 418 370 c 1
 425 404 l 2
 449 513 511 603 611 672 c 1
 586 731 529 771 439 793 c 1
 593 1031 787 1150 1020 1150 c 0
 1266 1150 1393 1038 1393 824 c 0
 1393 779 1388 729 1376 674 c 2
 1152 -380 l 1
 992 -380 l 1
 1213 658 l 2
 1221 696 1225 730 1225 762 c 0
 1225 908 1142 990 986 990 c 0
 855 990 735 937 624 826 c 1
 703 801 755 747 778 664 c 1
 671 591 606 505 585 404 c 2
 554 259 l 2
 517 84 414 -10 294 -10 c 0
 183 -10 121 49 121 143 c 0
334 280 m 0
 269.1 280 230 228.3 230 180 c 0
 230 143 252 112 286 112 c 0
 383.945 112 399 195.285 399 223 c 0
 399 256 379 280 334 280 c 0
EndSplineSet
EndChar
StartChar: uni0E27
Encoding: 160 3623 162
Width: 1150
Flags: HW
HStem: -10 123<735.2 911.189> 281 117<711.911 888.5> 1002 147<571.8 992.072>
VStem: 613 113<131.5 203.622> 1000 164<753.74 961.3>
Fore
790 1149 m 0
 1009.08 1149 1164 1065.36 1164 853 c 0
 1164 818 1160 782 1152 742 c 2
 1049 258 l 2
 1011 79 922 -10 788 -10 c 0
 677 -10 613 57 613 142 c 0
 613 189.402 657.2 398 834 398 c 0
 871 398 897 388 912 369 c 1
 991 738 l 2
 997 766 1000 793 1000 817 c 0
 1000 928 938.286 1002 759 1002 c 0
 615 1002 479 958 354 866 c 1
 293 927 l 1
 444 1070 622 1149 790 1149 c 0
830 281 m 0
 739.162 281 726 202.147 726 177 c 0
 726 142 746 113 782 113 c 0
 881.376 113 896 200.08 896 228 c 0
 896 261 875 281 830 281 c 0
EndSplineSet
EndChar
StartChar: uni0E28
Encoding: 161 3624 163
Width: 1300
Flags: HW
HStem: 0 21G<181 391 971 1131> 344 116<711.2 883.322> 625 121<718.302 865.3> 989 160<544.9 1034.1>
VStem: 220 149<244 529.35> 876 104<522.075 612.8> 1118 168<690.092 869.6>
Fore
220 451 m 0
 220 1009.4 584.423 1149 856 1149 c 0
 993 1149 1096 1120 1168 1067 c 1
 1220 1096 1271 1148 1322 1224 c 1
 1540 1224 l 1
 1479 1108 1386 1013 1264 939 c 1
 1279 899 1286 854 1286 802 c 0
 1286 757 1280 706 1269 651 c 2
 1131 0 l 1
 971 0 l 1
 1109 650 l 2
 1115 679 1118 706 1118 732 c 0
 1118 891 1005 989 827 989 c 0
 610 989 442 857 397 646 c 0
 378 548 369 441 369 325 c 0
 369 302 369 279 370 256 c 1
 522.258 681.272 727.6 746 817 746 c 0
 923 746 980 693 980 605 c 0
 980 502.302 902.751 344 737 344 c 0
 657 344 630 368 615 424 c 1
 540 319 466 177 391 0 c 1
 181 0 l 1
 204 108 l 2
 216 167 221 244 221 339 c 0
 220 451 l 0
812 625 m 0
 739.924 625 704 568.04 704 520 c 0
 704 483 725 460 771 460 c 0
 857.402 460 876 535.371 876 566 c 0
 876 602 853 625 812 625 c 0
EndSplineSet
EndChar
StartChar: uni0E29
Encoding: 162 3625 164
Width: 1350
Flags: HW
HStem: -1 148<486 991> 423 112<974.377 1047.37> 698 67<891.774 983.9> 741 113<355.2 444.216> 1022 127<396.617 506.2>
VStem: 235 111<872.2 1007.45> 516 139<922.404 1016.8> 785 87<586 682.661> 988 73<618.154 689.2>
Fore
1061 676 m 0xef80
 1061 597.547 1010.25 560.321 970 548 c 1
 987 539 1004 535 1025 535 c 0
 1040 535 1057 538 1075 543 c 1
 1202 1138 l 1
 1362 1138 l 1
 1259 654 l 1
 1292 681 1314 721 1325 773 c 1
 1432 773 l 1
 1407 655 1338 562 1225 493 c 1
 1119 -1 l 1
 295 -1 l 1
 458 769 l 1
 432 743 419 741 371 741 c 0xdf80
 278 741 235 805 235 888 c 0
 235 984.346 287.2 1149 496 1149 c 0
 602 1149 655 1093 655 985 c 0
 655 954 650 919 642 880 c 2
 486 147 l 1
 991 147 l 1
 1052 435 l 1
 1021 424 1017 423 994 423 c 0
 826 423 785 507.5 785 586 c 0
 785 678.562 866.945 765 957 765 c 0
 1023 765 1061 735 1061 676 c 0xef80
917 588 m 0
 980.527 588 988 638.653 988 658 c 0
 988 682 974 698 941 698 c 0xef80
 903.134 698 872 670.97 872 632 c 0
 872 610 886 588 917 588 c 0
449 1022 m 0
 408.705 1022 346 987.036 346 919 c 0
 346 883 366 854 402 854 c 0xdf80
 498.275 854 516 937.316 516 970 c 0
 516 1006 493 1022 449 1022 c 0
EndSplineSet
EndChar
StartChar: uni0E2A
Encoding: 163 3626 165
Width: 1250
Flags: HW
HStem: -11 115<386.8 560.808> 272 127<456.693 528.4> 604 140<496.619 963.6> 984 165<601.6 1006.6>
VStem: 229 147<123.2 233.713> 544 106<169.367 266> 1048 165<721.644 880.4>
Fore
733 744 m 0
 918.104 744 1002.67 651.153 1018 609 c 1
 1041 714 l 2
 1046 737 1048 759 1048 779 c 0
 1048 911 952 984 770 984 c 0
 632 984 503 934 352 834 c 1
 322 944 l 1
 485 1077 649 1149 807 1149 c 0
 965 1149 1076 1107 1142 1037 c 1
 1213 1081 1266 1138 1303 1209 c 1
 1469 1209 l 1
 1416.27 1048.41 1258.44 951.937 1200 936 c 1
 1209 906 1213 869 1213 831 c 0
 1213 791 1209 750 1201 713 c 2
 1049 0 l 1
 889 0 l 1
 945 263 l 2
 986.538 458.079 903 604 701 604 c 0
 543.784 604 453.435 504.066 433 407 c 2
 424 369 l 1
 447 389 479 399 521 399 c 0
 606 399 650 351 650 266 c 0
 650 112.302 542.12 -11 396 -11 c 0
 319.9 -11 229 31.5 229 159 c 0
 229 188 233 221 241 258 c 2
 268 388 l 2
 315.81 608.663 508.578 744 733 744 c 0
479 272 m 0
 427.663 272 376 229.572 376 170 c 0
 376 134 397 104 431 104 c 0
 530.852 104 544 188.742 544 215 c 0
 544 253 517 272 479 272 c 0
EndSplineSet
EndChar
StartChar: uni0E2B
Encoding: 164 3627 166
Width: 1350
Flags: HW
HStem: 0 21G<332 556 1038 1198> 748 115<413.4 478.45> 1019 125<1121.05 1253.8> 1031 118<430.307 553.7>
VStem: 296 104<881.9 1002.32> 569 128<927.068 1025.7> 969 121<868.2 997.18> 1259 134<915.57 1001>
Fore
296 892 m 0xef
 296 1052.3 420.906 1149 540 1149 c 0xdf
 645 1149 697 1101 697 1004 c 0
 697 980 694 954 688 924 c 2
 532 190 l 1
 708.471 505.127 963.133 721.094 1028 767 c 1
 988 790 969 828 969 882 c 0
 969 972.77 1018.2 1144 1215 1144 c 0
 1330 1144 1393 1088 1393 1001 c 0
 1393 935.071 1354.76 817.781 1269 764 c 1
 1306 737 1330 680 1330 633 c 0
 1330 625 1329 617 1328 610 c 2
 1198 0 l 1
 1038 0 l 1
 1164 594 l 2
 1166 602 1167 610 1167 618 c 0
 1167 649 1152 673 1123 690 c 1
 986.717 603.095 703.646 289.224 556 0 c 1
 332 0 l 1
 495 767 l 1
 473 754 447 748 414 748 c 0
 347 748 296 799 296 892 c 0xef
503 1031 m 0
 447.082 1031 400 985.63 400 930 c 0
 400 893 423 863 455 863 c 0
 554.425 863 569 945.207 569 975 c 0
 569 1014 542 1031 503 1031 c 0
1194 1019 m 0xef
 1137.88 1019 1090 978.216 1090 915 c 0
 1090 879 1107 851 1146 851 c 0
 1245.85 851 1259 940.137 1259 959 c 0
 1259 990 1240 1019 1194 1019 c 0xef
EndSplineSet
EndChar
StartChar: uni0E2C
Encoding: 165 3628 167
Width: 1400
Flags: HMW
HStem: 0 21G<317 507 1033 1223> 740 117<375.3 449.781> 1025 124<354.321 537.7> 1159 122<1469 1556.54> 1412 107<1263.66 1404.9>
VStem: 256 114<873.8 967.709> 541 135<925.65 1015.9> 1175 98<1285.4 1366.97> 1417 98<1335.1 1403.6>
AnchorPoint: "AboveBase" 1135.81 1227 basechar 0
Fore
256 878 m 0
 256 974.938 308.4 1149 518 1149 c 0
 621 1149 676 1091 676 979 c 0
 676 950 672 917 664 880 c 2
 533 263 l 1
 968 1083 l 1
 1016 1083 l 1
 1118 260 l 1
 1311 1167 l 1
 1224 1169 1175 1211 1175 1291 c 0
 1175 1373.01 1213.48 1519 1385 1519 c 0
 1470 1519 1515 1478 1515 1399 c 0
 1515 1384 1513 1367 1510 1349 c 2
 1495 1281 l 1
 1543.86 1281 1648.36 1311.05 1671 1467 c 1
 1771 1467 l 1
 1729.68 1190.65 1536.34 1160.9 1469 1159 c 1
 1223 0 l 1
 1033 0 l 1
 934 810 l 1
 507 0 l 1
 317 0 l 1
 480 769 l 1
 457 750 427 740 390 740 c 0
 307 740 256 787 256 878 c 0
474 1025 m 0
 381.939 1025 370 948.287 370 918 c 0
 370 884 387 857 426 857 c 0
 523.256 857 541 940.75 541 973 c 0
 541 1006 523 1025 474 1025 c 0
1362 1412 m 0
 1286.35 1412 1273 1347.93 1273 1327 c 0
 1273 1295 1295 1275 1331 1275 c 0
 1382.6 1275 1417 1320.75 1417 1362 c 0
 1417 1394 1395 1412 1362 1412 c 0
EndSplineSet
EndChar
StartChar: uni0E2D
Encoding: 166 3629 168
Width: 1230
Flags: HW
HStem: 0 159<418 924> 340 120<493.62 675.939> 628 120<518.058 642.9> 1002 147<599.7 992.3>
VStem: 653 104<525.392 607.6> 1053 169<763.309 960>
Fore
757 592 m 0
 757 443.283 667.332 340 530 340 c 0
 504 340 481 349 461 366 c 1
 418 159 l 1
 924 159 l 1
 1047 738 l 2
 1051 757 1053 774 1053 791 c 0
 1053 921 944 1002 783 1002 c 0
 642 1002 518 957 410 866 c 1
 349 927 l 1
 493 1075 647 1149 810 1149 c 0
 1089 1149 1222 1051 1222 861 c 0
 1222 827 1218 789 1209 749 c 2
 1050 0 l 1
 223 0 l 1
 315 434 l 2
 360 641 454 748 595 748 c 0
 704 748 757 688 757 592 c 0
587 628 m 0
 533.967 628 483 582.345 483 522 c 0
 483 487 500 460 540 460 c 0
 644.569 460 653 555.898 653 566 c 0
 653 598 630 628 587 628 c 0
EndSplineSet
EndChar
StartChar: uni0E2E
Encoding: 167 3630 169
Width: 1250
Flags: HW
HStem: 0 159<422 929> 343 117<497.5 670.075> 628 120<474.113 648.5> 764 111<629.9 886> 1038 111<648 931.4>
VStem: 405 153<909.9 992.555> 656 108<523.766 616.2> 1057 170<763.635 860>
Fore
764 600 m 0
 764 507.529 718.8 343 538 343 c 0
 505 343 482 356 467 373 c 1
 422 159 l 1
 929 159 l 1
 1047 715 l 2
 1054 746 1057 772 1057 793 c 0
 1057 814 1054 830 1047 842 c 1
 967 791 868 764 750 764 c 0
 520 764 405 824 405 943 c 0
 405 1035 600 1149 829 1149 c 0
 955 1149 1053 1121 1124 1064 c 1
 1160 1100 1183 1131 1196 1158 c 1
 1309 1116 l 1
 1275 1061 1239 1014 1201 975 c 1
 1218 946 1227 908 1227 860 c 0
 1227 825 1222 784 1213 739 c 2
 1057 0 l 1
 228 0 l 1
 320 434 l 2
 363 639 459 748 600 748 c 0
 707 748 764 700 764 600 c 0
1026 952 m 1
 974 1009 905 1038 817 1038 c 0
 687 1038 558 984.581 558 958 c 0
 558 921 662 875 769 875 c 0
 859 875 945 901 1026 952 c 1
590 628 m 0
 500.856 628 487 561.914 487 527 c 0
 487 490 508 460 543 460 c 0
 640.75 460 656 541.678 656 572 c 0
 656 606 635 628 590 628 c 0
EndSplineSet
EndChar
StartChar: uni0E2F
Encoding: 168 3631 170
Width: 1150
Flags: HW
HStem: 0 21G<865 1025> 692 140<607 766.4> 1034 104<439.88 601.6>
VStem: 322 122<885.9 977.354> 612 127<936.637 1018.9>
Fore
739 1000 m 0
 739 961.695 725.791 867.737 639 832 c 1
 737 832 826 857 924 915 c 0
 1025 973 1085 1051 1109 1149 c 1
 1269 1149 l 1
 1025 0 l 1
 865 0 l 1
 1041 830 l 1
 929 746 777 692 607 692 c 0
 453 692 322 762 322 899 c 0
 322 1030.63 431.562 1138 572 1138 c 0
 681 1138 739 1084 739 1000 c 0
547 1034 m 0
 464.6 1034 444 966.275 444 934 c 0
 444 897 469 866 499 866 c 0
 595.072 866 612 946.257 612 976 c 0
 612 1009 589 1034 547 1034 c 0
EndSplineSet
EndChar
StartChar: uni0E30
Encoding: 169 3632 171
Width: 1100
Flags: HW
HStem: 62 123<493.146 609.685> 393 92<324.016 477.7> 548 123<596.248 741.856> 879 92<466.405 572.9>
VStem: 235 102<261 345.022> 338 102<747 859.327> 483 95<300.643 372.8> 586 95<785.963 859.4>
Fore
235 261 m 0
 235 401.746 322.812 485 446 485 c 0
 536 485 578 440 578 367 c 0
 578 318.222 567.432 255.467 480 199 c 1
 507 190 535 185 564 185 c 0
 614 185 667 198 724 226 c 0
 814 268 873 353 900 479 c 1
 1016 479 l 1
 928.014 74.2664 579.16 62 497 62 c 0
 357.644 62 235 121.95 235 261 c 0
427 393 m 0
 347.781 393 337 323.655 337 309 c 0
 337 276 364 248 385 248 c 0
 473.576 248 483 324.277 483 339 c 0
 483 365 466 393 427 393 c 0
338 747 m 0
 338 896.318 439.288 971 549 971 c 0
 634 971 681 927 681 851 c 0
 681 804.872 670.335 741.944 584 685 c 1
 610 676 638 671 668 671 c 0
 717 671 770 684 827 712 c 0
 917 754 976 839 1003 965 c 1
 1119 965 l 1
 1055.39 662.313 826.504 548 600 548 c 0
 461.292 548 338 607.95 338 747 c 0
530 879 m 0
 481.081 879 440 843.098 440 789 c 0
 440 758 455 734 488 734 c 0
 581.071 734 586 816.953 586 823 c 0
 586 851 563 879 530 879 c 0
EndSplineSet
EndChar
StartChar: uni0E31
Encoding: 170 3633 172
Width: 0
Flags: W
HStem: 1214 123<-190.854 -42.0428> 1545 92<-363.501 -211.2>
VStem: -449 101<1413 1498.27> -201 95<1454.45 1536.3>
AnchorPoint: "AboveMark" 107.849 1740 basemark 0
AnchorPoint: "AboveBase" 80.8066 1227 mark 0
Fore
-449 1413 m 0
 -449 1546.57 -370.709 1637 -238 1637 c 0
 -151 1637 -106 1595 -106 1521 c 0
 -106 1419 -168.593 1373.87 -204 1351 c 1
 -177 1342 -149 1337 -120 1337 c 0
 -70 1337 -17 1350 39 1378 c 0
 130 1420 189 1505 216 1631 c 1
 332 1631 l 1
 276.615 1376.23 96.6955 1214 -187 1214 c 0
 -326.356 1214 -449 1273.95 -449 1413 c 0
-258 1545 m 0
 -339.155 1545 -348 1474.93 -348 1452 c 0
 -348 1423 -333 1400 -299 1400 c 0
 -213.967 1400 -201 1474.11 -201 1496 c 0
 -201 1527 -222 1545 -258 1545 c 0
EndSplineSet
EndChar
StartChar: uni0E32
Encoding: 171 3634 173
Width: 1150
Flags: W
HStem: 0 21G<796 956> 990 159<587 960.807>
VStem: 960 167<759.283 929.64>
Fore
790 1149 m 0
 1015.78 1149 1127 1016.04 1127 851 c 0
 1127 821 1123 788 1116 753 c 2
 956 0 l 1
 796 0 l 1
 951 729 l 2
 957 758 960 785 960 809 c 0
 960 901.8 913.544 990 756 990 c 0
 626 990 512 930 431 816 c 1
 316 837 l 1
 430 1043 588 1149 790 1149 c 0
EndSplineSet
EndChar
StartChar: uni0E34
Encoding: 173 3636 175
Width: 0
Flags: W
HStem: 1322 91<-843 -598> 1528 116<-463.9 -132.4>
VStem: -843 925<1257 1322>
AnchorPoint: "AboveMark" 97.8486 1740 basemark 0
AnchorPoint: "AboveBase" 80.8066 1227 mark 0
Fore
-843 1322 m 1
 -753.024 1471.06 -559.573 1644 -309 1644 c 0
 -151 1644 -73 1595 -5 1515 c 0
 53 1447 82 1361 82 1257 c 0
 82 1247 82 1237 81 1227 c 1
 -232.575 1298.27 -755.786 1322 -843 1322 c 1
-76 1359 m 1
 -112 1462 -175 1528 -317 1528 c 0
 -430 1528 -524 1490 -598 1413 c 1
 -463.099 1414.5 -130.711 1372 -76 1359 c 1
EndSplineSet
EndChar
StartChar: uni0E35
Encoding: 174 3637 176
Width: 0
Flags: W
HStem: 1323 101<-843 -529.201> 1511 131<-454.9 -154.6>
AnchorPoint: "AboveMark" 107.849 1740 basemark 0
AnchorPoint: "AboveBase" 80.8066 1227 mark 0
Fore
81 1260 m 1
 81 1228 l 1
 -126.942 1275.4 -601.616 1323 -843 1323 c 1
 -807 1392 -738 1463 -636 1534 c 0
 -534 1606 -424 1642 -309 1642 c 0
 -175 1642 -80 1603 -13 1525 c 1
 32 1735 l 1
 182 1735 l 1
 81 1260 l 1
-88 1370 m 1
 -107 1457 -187 1511 -295 1511 c 0
 -418 1511 -509 1483 -570 1424 c 1
 -425.587 1424 -180.952 1394.1 -88 1370 c 1
EndSplineSet
EndChar
StartChar: uni0E36
Encoding: 175 3638 177
Width: 0
Flags: W
HStem: 1321 108<79 173.535> 1323 89<-843 -529.201> 1514 128<-471.6 -186.8> 1568 113<49.3549 194.8>
VStem: 196 114<1462.51 1545.1>
AnchorPoint: "AboveMark" 171.849 1740 basemark 0
AnchorPoint: "AboveBase" 80.8066 1227 mark 0
Fore
310 1544 m 0x18
 310 1476.71 261.884 1321 79 1321 c 1x98
 80 1309 81 1289 81 1261 c 2
 81 1228 l 1
 -126.942 1275.4 -601.616 1323 -843 1323 c 1
 -810 1401 -746 1474 -649 1542 c 0
 -553 1610 -443 1642 -309 1642 c 0x68
 -215 1642 -97 1611 -38 1548 c 1
 -5 1633 61 1681 159 1681 c 0
 253 1681 310 1624 310 1544 c 0x18
106 1429 m 0
 157.95 1429 196 1473.7 196 1511 c 0
 196 1535 181 1568 135 1568 c 0
 69.1191 1568 46 1512.72 46 1479 c 0
 46 1447 67 1429 106 1429 c 0
-85 1358 m 1
 -100 1460 -182 1514 -326 1514 c 0
 -438 1514 -525 1480 -577 1412 c 1x68
 -426.494 1412 -174.187 1380.3 -85 1358 c 1
EndSplineSet
EndChar
StartChar: uni0E37
Encoding: 176 3639 178
Width: 0
Flags: W
HStem: 1322 91<-824 -560> 1505 128<-456.4 -234.585>
VStem: -824 1003<1322 1721>
AnchorPoint: "AboveMark" -6.15137 1740 basemark 0
AnchorPoint: "AboveBase" 80.8066 1227 mark 0
Fore
-824 1322 m 1
 -786.111 1391.09 -612 1633 -294 1633 c 0
 -267 1633 -243 1629 -221 1624 c 1
 -200 1722 l 1
 -50 1722 l 1
 -82 1570 l 1
 -57.9835 1570 -18.4785 1523.79 -14 1519 c 1
 29 1721 l 1
 179 1721 l 1
 86 1284 l 1
 76 1227 l 1
 -165.381 1282.02 -684.79 1322 -824 1322 c 1
-108 1369 m 1
 -119 1408 -144 1441 -183 1468 c 0
 -223 1496 -266 1505 -329 1505 c 0
 -427 1505 -502 1472 -560 1413 c 1
 -449.949 1411.53 -183.116 1390.26 -108 1369 c 1
EndSplineSet
EndChar
StartChar: uni0E38
Encoding: 177 3640 179
Width: 0
Flags: HW
HStem: -375 67<-441.5 -372.916> -163 78<-462.074 -334.8>
VStem: -530 81<-302.6 -210.297> -328 115<-261.128 -171>
AnchorPoint: "BelowBase" -176.067 -85 mark 0
Fore
-530 -284 m 0
 -530 -227.2 -495.292 -85 -338 -85 c 0
 -256 -85 -213 -130 -213 -219 c 0
 -213 -242 -216 -269 -222 -299 c 2
 -272 -534 l 1
 -403 -534 l 1
 -366 -360 l 1
 -377 -369 -390 -375 -402 -375 c 0
 -490 -375 -530 -344 -530 -284 c 0
-396 -308 m 0
 -338.203 -308 -328 -233.631 -328 -210 c 0
 -328 -180 -342 -163 -366 -163 c 0
 -439.903 -163 -449 -238.108 -449 -261 c 0
 -449 -293 -431 -308 -396 -308 c 0
EndSplineSet
EndChar
StartChar: uni0E39
Encoding: 178 3641 180
Width: 0
Flags: HW
HStem: -534 99<-529 -384> -376 69<-723 -645.882> -163 78<-704.227 -612.5>
VStem: -807 79<-297.4 -192.964> -606 116<-254.167 -170.3>
AnchorPoint: "BelowBase" -176.067 -85 mark 0
Fore
-617 -85 m 0
 -515.4 -85 -490 -140.163 -490 -211 c 0
 -490 -237 -494 -268 -501 -299 c 2
 -529 -435 l 1
 -384 -435 l 1
 -312 -96 l 1
 -178 -96 l 1
 -272 -534 l 1
 -682 -534 l 1
 -645 -360 l 1
 -664 -376 -686 -376 -715 -376 c 0
 -770 -376 -807 -333 -807 -274 c 0
 -807 -188.9 -731 -85 -617 -85 c 0
-684 -307 m 0
 -621.6 -307 -606 -231.7 -606 -208 c 0
 -606 -179 -620 -163 -645 -163 c 0
 -690.559 -163 -728 -208.664 -728 -261 c 0
 -728 -289 -714 -307 -684 -307 c 0
EndSplineSet
EndChar
StartChar: uni0E3A
Encoding: 179 3642 181
Width: 0
Flags: HW
AnchorPoint: "BelowBase" -171.816 -65 mark 0
Fore
-424 -222 m 0
 -424 -144.825 -347.875 -60 -259 -60 c 0
 -193 -60 -149 -112 -149 -171 c 0
 -149 -244.618 -229.559 -330 -316 -330 c 0
 -378 -330 -424 -282 -424 -222 c 0
EndSplineSet
EndChar
StartChar: uni0E3F
Encoding: 180 3647 182
Width: 1250
Flags: HW
HStem: 0 170<384 541 690 867.715> 719 166<536 694> 1321 168<629 822>
VStem: 1061 207<380.195 635.7> 1131 215<1109.07 1340.75>
Fore
969 1489 m 1xf0
 1241.63 1485.24 1346 1388.2 1346 1237 c 0xe8
 1346 1117.43 1298.47 1035.64 1241 965 c 0
 1182 892 1128 868 1059 827 c 1
 1181.78 790.017 1268 705.129 1268 551 c 0
 1268 297.411 1049.23 12.4272 653 2 c 1
 625 -133 l 1
 513 -133 l 1
 541 0 l 1
 152 0 l 1
 468 1489 l 1
 857 1489 l 1
 880 1595 l 1
 992 1595 l 1
 969 1489 l 1xf0
729 885 m 1
 822 1321 l 1
 629 1321 l 1
 536 885 l 1
 729 885 l 1
842 887 m 1
 901 888 958 906 1014 941 c 0
 1103.44 998.967 1131 1125.9 1131 1182 c 0
 1131 1304.12 1007.07 1312.68 933 1319 c 1
 842 887 l 1
577 170 m 1
 694 719 l 1
 501 719 l 1
 384 170 l 1
 577 170 l 1
690 174 m 1
 999.55 187.912 1061 418.458 1061 546 c 0xf0
 1061 615 1032 649 972 683 c 0
 932 706 876 717 805 717 c 1
 690 174 l 1
EndSplineSet
EndChar
StartChar: uni0E40
Encoding: 181 3648 183
Width: 700
Flags: HW
HStem: -11 108<366.6 548.632> 304 93<430.708 519.8> 1129 20G<411 571>
VStem: 210 148<106 213.255> 531 96<170.656 296.1>
Fore
627 258 m 0
 627 101.735 534.844 -11 377 -11 c 0
 266 -11 210 47 210 158 c 0
 210 187 214 221 222 258 c 2
 411 1149 l 1
 571 1149 l 1
 405 369 l 1
 426 388 453 397 487 397 c 0
 579 397 627 351 627 258 c 0
460 304 m 0
 373.381 304 358 184.212 358 158 c 0
 358 118 378 97 416 97 c 0
 518.025 97 531 195.533 531 235 c 0
 531 282 506 304 460 304 c 0
EndSplineSet
EndChar
StartChar: uni0E41
Encoding: 182 3649 184
Width: 1320
Flags: HW
HStem: -11 108<390.6 541.462 1005.6 1179.5> 304 93<454.708 543.8 1069.71 1160.1> 1129 20G<435 595 1050 1210>
VStem: 234 148<106 213.579> 555 98<139.97 295.1> 849 148<106 213.579> 1169 96<171.968 288.5>
Fore
653 255 m 0
 653 166.516 602.6 -11 401 -11 c 0
 290 -11 234 47 234 158 c 0
 234 187 238 221 246 258 c 2
 435 1149 l 1
 595 1149 l 1
 429 369 l 1
 450 388 477 397 511 397 c 0
 598 397 653 346 653 255 c 0
484 304 m 0
 398.573 304 382 184.777 382 158 c 0
 382 118 402 97 440 97 c 0
 518.048 92.3863 555 161 555 234 c 0
 555 281 530 304 484 304 c 0
1265 252 m 0
 1265 101.878 1173.49 -11 1016 -11 c 0
 905 -11 849 47 849 158 c 0
 849 187 853 221 861 258 c 2
 1050 1149 l 1
 1210 1149 l 1
 1044 369 l 1
 1065 388 1092 397 1126 397 c 0
 1217 397 1265 345 1265 252 c 0
1099 304 m 0
 1013.57 304 997 184.777 997 158 c 0
 997 118 1017 97 1055 97 c 0
 1150.77 97 1169 186.419 1169 230 c 0
 1169 275 1146 304 1099 304 c 0
EndSplineSet
EndChar
StartChar: uni0E42
Encoding: 183 3650 185
Width: 1100
Flags: HW
HStem: -11 108<760.6 930.64> 304 93<828.575 919> 1603 140<993.481 1273.85> 1704 140<676.9 966.258>
VStem: 605 147<106 212.541> 816 163<1172.63 1463.44> 926 95<178.8 290.6>
Fore
1021 253 m 0xda
 1021 138.22 971 -11 771 -11 c 0
 666 -11 605 47 605 163 c 0
 605 191 609 223 616 258 c 2
 801 1130 l 2
 811 1176 816 1214 816 1244 c 0
 816 1412.8 534.41 1440.15 330 1455 c 1
 356 1530 413 1613 500 1706 c 0
 586 1798 694 1844 823 1844 c 0xdc
 964.822 1844 1050.83 1743 1242 1743 c 0
 1320 1743 1386 1763 1439 1804 c 1
 1385 1650 l 1
 1319 1619 1251 1603 1180 1603 c 0xec
 1005.87 1603 922.583 1704 777 1704 c 0
 700 1704 628 1653 562 1560 c 1
 730.742 1536.93 979 1478.49 979 1273 c 0xdc
 979 1235 973 1188 962 1132 c 2
 799 369 l 1
 820 386 848 397 882 397 c 0
 984 397 1021 336 1021 253 c 0xda
854 304 m 0
 771.602 304 752 189.67 752 158 c 0
 752 118 772 97 810 97 c 0
 902.8 97 926 192 926 236 c 0xca
 926 278 904 304 854 304 c 0
EndSplineSet
EndChar
StartChar: uni0E43
Encoding: 184 3651 186
Width: 1000
Flags: HMW
HStem: -11 108<736.2 909.74> 304 93<798.523 894.6> 1266 112<528.7 801.574> 1683 156<876 902.315>
VStem: 376 137<1392.3 1525.89> 576 150<106.4 218.105> 794 119<1466.53 1613.1> 899 95<178.24 293.3> 1076.81 146.191<1270.98 1635.06>
Fore
913 1563 m 0xee80
 913 1451.89 806.854 1266 594 1266 c 0
 454 1266 376 1315 376 1428 c 0
 376 1503.3 408.841 1617.92 486 1682 c 0
 597 1775 721 1839 877 1839 c 0
 1016 1839 1112 1795 1163 1720 c 0
 1204 1658 1230.06 1599.52 1223 1548 c 0
 1165.14 1125.6 956.972 1274.87 888 911 c 2
 772 369 l 1
 786 383 814 397 854 397 c 0
 948 397 994 353 994 261 c 0xed80
 994 137.259 944 -11 744 -11 c 0
 630 -11 576 41 576 151 c 0
 576 182 580 218 589 258 c 2
 728 913 l 2
 801.824 1280.2 1045.65 1207.7 1079 1525 c 0
 1091.17 1640.76 928.63 1683 876 1683 c 1
 900 1646 913 1606 913 1563 c 0xee80
827 304 m 0
 742.402 304 726 191.888 726 161 c 0
 726 119 747 97 783 97 c 0
 880.492 97 899 194.264 899 240 c 0
 899 281 879 304 827 304 c 0
621 1378 m 0
 759.903 1378 794 1483.25 794 1539 c 0xee80
 794 1596 752 1629 666 1629 c 0
 527.35 1629 513 1506.94 513 1469 c 0
 513 1410 550 1378 621 1378 c 0
EndSplineSet
EndChar
StartChar: uni0E44
Encoding: 185 3652 187
Width: 1030
Flags: HW
HStem: -11 108<710.6 864.874> 304 93<778.675 865.1> 1326 114<422.8 524.2> 1694 145<780.4 877>
VStem: 245 149<1512.97 1779.7> 552 150<106 216.54> 875 96<155.869 290.5>
Fore
971 256 m 0
 971 154.669 926.788 -11 721 -11 c 0
 606 -11 552 44 552 150 c 0
 552 181 557 217 566 258 c 2
 850 1594 l 2
 854 1615 856 1632 856 1646 c 0
 855.673 1678.83 846.16 1694 822 1694 c 0
 790 1694 737 1605 689 1488 c 0
 654 1400 553 1326 450 1326 c 0
 382 1326 335 1351 309 1400 c 0
 283 1448 261 1577 245 1788 c 1
 394 1788 l 1
 406 1573 l 2
 411 1484 436 1440 480 1440 c 0
 514 1440 545 1464 574 1513 c 2
 633 1634 l 2
 708.549 1794.26 764.749 1839 877 1839 c 0
 975 1839 1024 1791 1024 1696 c 0
 1024 1670 1020 1641 1013 1608 c 2
 749 369 l 1
 777 391 805 396 831 397 c 0
 924 395 971 348 971 256 c 0
804 304 m 0
 720.575 304 702 189.949 702 158 c 0
 702 118 722 97 760 97 c 0
 840.673 97 875 173.438 875 232 c 0
 875 277 851 304 804 304 c 0
EndSplineSet
EndChar
StartChar: uni0E45
Encoding: 186 3653 188
Width: 1000
Flags: HW
HStem: 989 160<516.6 858.5>
VStem: 888 168<767.886 964.4>
Fore
693 1149 m 0
 888.359 1149 1056 1092.4 1056 866 c 0
 1056 832 1052 794 1043 753 c 2
 802 -380 l 1
 642 -380 l 1
 878 729 l 2
 884 759 888 786 888 811 c 0
 888 929 815 989 670 989 c 0
 552 989 465 928 410 811 c 1
 243 837 l 1
 291.968 952.978 423 1149 693 1149 c 0
EndSplineSet
EndChar
StartChar: uni0E46
Encoding: 187 3654 189
Width: 1100
Flags: HMW
HStem: 512 95<419.9 600.6> 808 92<482 628.5> 887 160<744 778> 985 170<908 945>
VStem: 289 127<621 733.927> 596 104<695.401 798.9> 966 158<806.092 926.2>
Fore
526 808 m 0
 438 808 416 719.867 416 673 c 0
 416 633 434 607 481 607 c 0
 573 607 596 712.925 596 743 c 0
 596 786 568 808 526 808 c 0
700 783 m 0
 700 706.053 649.8 512 449 512 c 0
 335 512 289 573 289 668 c 0
 289 793.314 362.348 1041.3 642 1155 c 1
 642 1153 688 1117 778 1047 c 1
 945 1155 l 1
 1021 1142 1073 1096 1099 1018 c 0
 1116 968 1124 918 1124 870 c 0
 1124 842 1122 815 1116 789 c 2
 869 -374 l 1
 709 -374 l 1
 962 817 l 2
 965 830 966 843 966 856 c 0
 966 910 944 962 908 985 c 1
 744 887 l 1
 605 985 l 1
 574 966 548 935 527 892 c 1
 549.003 900.603 569.43 900 596 900 c 0
 661 900 700 856 700 783 c 0
EndSplineSet
EndChar
StartChar: uni0E47
Encoding: 188 3655 190
Width: 0
Flags: W
HStem: 1284 124<-366.128 -150.741> 1372 152<-512.768 -362.209> 1417 43<-179.2 -135> 1583 53<-175.5 -71.5> 1659.84 116.811<-440 -131.541>
VStem: -720 152<1436.63 1670.9> -254 62<1468.6 1550.43> -60 86<1498.47 1573>
AnchorPoint: "AboveMark" -402.193 1227 mark 0
AnchorPoint: "AboveBase" -29.1934 1227 mark 0
Fore
-135 1460 m 0x3f
 -75 1460 -60 1514.51 -60 1534 c 0
 -60 1564 -82 1583 -117 1583 c 0
 -162 1583 -192 1539.95 -192 1505 c 0
 -192 1477 -169 1460 -135 1460 c 0x3f
-284 1659.84 m 0
 -404 1659.84 -568 1628 -568 1485 c 0
 -568 1456.54 -562 1430 -535 1430 c 1
 -520.405 1476.22 -493.668 1524 -430 1524 c 0x5f
 -358.49 1524 -326.637 1408 -195 1408 c 0
 -180 1408 -166 1411 -154 1417 c 1
 -241.031 1417 -254 1469.06 -254 1497 c 0
 -254 1571.29 -182.218 1636 -104 1636 c 0
 10.9133 1636 26 1576.99 26 1514 c 0
 26 1414.67 -60.7367 1284 -195 1284 c 0xbf
 -380.075 1284 -385.237 1372 -462 1372 c 0x5f
 -504 1372 -509 1298 -522 1284 c 1x9f
 -684.75 1284 -720 1388.4 -720 1458 c 0
 -720 1636 -556 1776.66 -284 1776.66 c 0
 -166.724 1776.66 -57.7038 1783.03 6 1894 c 1
 148 1894 l 1
 113.583 1786.7 -12.8814 1698.05 -103 1675 c 0
 -151.588 1662.14 -217.157 1659.84 -284 1659.84 c 0
EndSplineSet
EndChar
StartChar: uni0E48
Encoding: 189 3656 191
Width: 0
Flags: W
VStem: 55 202<1826 2106>
AnchorPoint: "AboveMark" 107.849 1740 mark 0
Fore
115 2106 m 1
 257 2106 l 1
 197 1826 l 1
 55 1826 l 1
 115 2106 l 1
EndSplineSet
Substitution: 0 65534 'loww' uni0E48.low
MultipleSubs: 0 65534 'amtn' uni0E4D uni0E48
EndChar
StartChar: uni0E49
Encoding: 190 3657 192
Width: 0
Flags: HW
HStem: 1882 63<-162.7 -89.0977> 2102 68<-134.347 -37.7>
VStem: -253 75<1962.5 2072.21> -16 98<1976.38 2088.1>
AnchorPoint: "AboveMark" 83.8486 1740 mark 0
Fore
-4 1848 m 1
 260.48 1939.71 362.008 2117.02 383 2156 c 1
 525 2156 l 1
 464 2021 355 1910 201 1825 c 0
 55 1748 -59 1708 -229 1703 c 1
 -212 1783 l 1
 -159 1798 -115 1831 -87 1893 c 1
 -105 1886 -124 1882 -143 1882 c 0
 -208 1882 -253 1925 -253 1989 c 0
 -253 2085.49 -166.922 2170 -78 2170 c 0
 27 2170 82 2119 82 2045 c 0
 82 1982.69 39.8952 1894.21 -4 1848 c 1
-78 2102 m 0
 -121.344 2102 -178 2057.4 -178 2008 c 0
 -178 1973 -151 1945 -112 1945 c 0
 -70.839 1945 -16 1991.06 -16 2040 c 0
 -16 2077 -47 2102 -78 2102 c 0
EndSplineSet
Substitution: 0 65534 'loww' uni0E49.low
MultipleSubs: 0 65534 'amtn' uni0E4D uni0E49
EndChar
StartChar: uni0E4A
Encoding: 191 3658 193
Width: 0
Flags: HMW
HStem: 1668 68<-321 -212.5> 1856 58<-325.962 -206.6> 1902 134<-103 -74> 2020 134<64 93>
VStem: -478 127<1821 1937.12> -196 57<1766.65 1828> 123 130<1858.88 1965.4>
AnchorPoint: "AboveMark" -88.1514 1740 mark 0
Fore
-271 1736 m 0
 -226 1736 -196 1776.65 -196 1810 c 0
 -196 1835 -215 1856 -243 1856 c 0
 -306.817 1856 -317 1791.65 -317 1778 c 0
 -317 1753 -300 1736 -271 1736 c 0
93 2154 m 1
 221.926 2107.78 253 1970 253 1923 c 0
 253 1897 248 1870 236 1839 c 1
 451 2169 l 1
 586 2169 l 1
 585 2169 385 1832 385 1832 c 2
 317.042 1713.07 154.155 1672 30 1672 c 1
 119.495 1772.92 123 1863.26 123 1890 c 0
 123 1948 101 1994 64 2020 c 1
 -103 1902 l 1
 -136 1937 -182 1993 -218 2020 c 1
 -294.433 1991.52 -351 1914.02 -351 1837 c 1
 -345.379 1853.86 -307.354 1914 -228 1914 c 0
 -169 1914 -139 1875 -139 1828 c 0
 -139 1779.65 -175.4 1668 -321 1668 c 0
 -425 1668 -478 1726 -478 1821 c 0
 -478 2020.8 -286.298 2121.57 -189 2154 c 1
 -74 2036 l 1
 93 2154 l 1
EndSplineSet
Substitution: 0 65534 'loww' uni0E4A.low
MultipleSubs: 0 65534 'amtn' uni0E4D uni0E4A
EndChar
StartChar: uni0E4B
Encoding: 192 3659 194
Width: 0
Flags: HW
HStem: 1812 142<-176 -63 109 221>
AnchorPoint: "AboveMark" -28.4072 1640 mark 0
Fore
221 1812 m 1
 79 1812 l 1
 49 1670 l 1
 -93 1670 l 1
 -63 1812 l 1
 -205 1812 l 1
 -175 1954 l 1
 -33 1954 l 1
 -2 2096 l 1
 140 2096 l 1
 109 1954 l 1
 251 1954 l 1
 221 1812 l 1
EndSplineSet
Substitution: 0 65534 'loww' uni0E4B.low
MultipleSubs: 0 65534 'amtn' uni0E4D uni0E4B
EndChar
StartChar: uni0E4C
Encoding: 193 3660 195
Width: 0
Flags: HW
HStem: 1621 84<-97.9 25.1517>
VStem: -237 112<1722.4 1820.15> 71 105<1732.01 1876.2>
AnchorPoint: "AboveMark" -19.1514 1740 mark 0
Fore
176 1831 m 0
 176 1723.8 75.7773 1621 -44 1621 c 0
 -163 1621 -237 1682 -237 1769 c 0
 -237 1793.34 -229.489 1889.43 -134 1969 c 0
 -33.122 2056.2 218.056 2023.33 334 2169 c 1
 489 2169 l 1
 461.329 2103.28 293.921 1978.46 92 1942 c 1
 148 1931 176 1887 176 1831 c 0
-42 1705 m 0
 9.65517 1705 71 1752.08 71 1819 c 0
 71 1863 38 1885 -8 1885 c 0
 -93.2188 1885 -125 1810.19 -125 1777 c 0
 -125 1735 -85 1705 -42 1705 c 0
EndSplineSet
Substitution: 0 65534 'loww' uni0E4C.low
MultipleSubs: 0 65534 'amtn' uni0E4D uni0E4C
EndChar
StartChar: uni0E4D
Encoding: 194 3661 196
Width: 0
Flags: W
HStem: 1212 138<-66.5 83.7963> 1521 147<-68.6473 85.2>
VStem: -228 150<1360 1470.76> 101 145<1396.37 1510>
AnchorPoint: "AboveMark" 107.849 1740 basemark 0
AnchorPoint: "AboveBase" 120.807 1227 mark 0
Fore
-228 1378 m 0
 -228 1512.21 -131.212 1668 56 1668 c 0
 178 1668 246 1601 246 1498 c 0
 246 1409.95 188.6 1212 -41 1212 c 0
 -157 1212 -228 1271 -228 1378 c 0
-8 1350 m 0
 62.6125 1350 101 1410.59 101 1458 c 0
 101 1498 72 1521 28 1521 c 0
 -46.3441 1521 -78 1457.2 -78 1412 c 0
 -78 1372 -53 1350 -8 1350 c 0
EndSplineSet
Substitution: 0 65534 'high' uni0E4D.high
EndChar
StartChar: uni0E4E
Encoding: 195 3662 197
Width: 0
Flags: HW
HStem: 1444 110<-74.23 172> 1686 112<17.9 190> 1925 111<9.325 239.587>
VStem: -202 127<1585.2 1653.84> -125 124<1805.6 1909.6>
AnchorPoint: "AboveBase" 120.807 1227 mark 0
Fore
-125 1841 m 0xe8
 -125 1956.91 -10.4293 2036 154 2036 c 0
 210 2036 267 2028 326 2013 c 1
 302 1901 l 1
 242 1917 188 1925 139 1925 c 0
 39.25 1925 -1 1897 -1 1855 c 0xe8
 -1 1817 47 1798 144 1798 c 2
 214 1798 l 1
 190 1686 l 1
 125 1686 l 2
 -47.4578 1686 -75 1645.8 -75 1619 c 0
 -75 1593 -30.1 1554 117 1554 c 2
 195 1554 l 1
 172 1444 l 1
 88 1444 l 2
 -137.925 1444 -202 1534.6 -202 1595 c 0xf0
 -202 1654.2 -141.578 1724.27 -64 1743 c 1
 -105 1767 -125 1799 -125 1841 c 0xe8
EndSplineSet
EndChar
StartChar: uni0E4F
Encoding: 196 3663 198
Width: 1250
Flags: HW
HStem: -21 121<335.998 980.414> 258 103<578.706 836.558> 658 105<608.874 880.573> 917 123<467.927 1078.34>
VStem: 192 112<232.767 755.072> 465 103<402.155 589.096> 882 103<421.328 607.823> 1147 111<257.158 822.103>
Fore
1147 597 m 0
 1147 770.156 1016.88 917 812 917 c 0
 547.328 917 304 677.517 304 419 c 0
 304 275.744 405.691 100 638 100 c 0
 901.395 100 1147 335.583 1147 597 c 0
568 475 m 0
 568 418.966 605.312 361 694 361 c 0
 803.66 361 882 449.868 882 545 c 0
 882 593.325 852.056 658 757 658 c 0
 643.057 658 568 562.766 568 475 c 0
612 -21 m 0
 337.052 -21 192 184.822 192 392 c 0
 192 722.251 499.612 1040 837 1040 c 0
 1110.01 1040 1258 839.088 1258 628 c 0
 1258 292.594 951.315 -21 612 -21 c 0
985 571 m 0
 985 411.134 851.408 258 671 258 c 0
 533.746 258 465 346.068 465 449 c 0
 465 601.421 588.315 763 778 763 c 0
 916.001 763 985 674.785 985 571 c 0
EndSplineSet
EndChar
StartChar: uni0E50
Encoding: 197 3664 199
Width: 1250
Flags: HW
HStem: -10 173<462.001 841> 751 173<607.4 1035.1>
VStem: 234 178<224.687 443.929> 1043 178<464.009 618.219>
Fore
412 391 m 0
 412 263.067 507.693 163 660 163 c 0
 858.952 163 1043 333.227 1043 519 c 0
 1043 595.322 990.675 751 785 751 c 0
 592.487 751 412 582.522 412 391 c 0
620 -10 m 0
 359.84 -10 234 183.829 234 347 c 0
 234 383.426 238.676 602.675 432 767 c 0
 539 858 656 924 818 924 c 0
 985 924 1070 870 1144 779 c 0
 1193 718 1221 648 1221 562 c 0
 1221 517.13 1215.09 319.534 1030 159 c 0
 901 48 790 -10 620 -10 c 0
EndSplineSet
EndChar
StartChar: uni0E51
Encoding: 198 3665 200
Width: 1300
Flags: HW
HStem: -10 155<433.9 828> 203 159<531.7 711.1> 409 76<707 755.156> 603 84<728.658 815.9> 765 159<579.215 1004.4>
VStem: 320 181<382.6 673.41> 601 99<506 587.535> 827 131<514.472 595.8> 1042 174<330.033 733.6>
Fore
612 145 m 0
 814.73 151.611 1042 289.194 1042 549 c 0
 1042 691 954 762 786 765 c 0
 626.934 765 501 632.7 501 497 c 0
 501 409 559 362 650 362 c 0
 697 362 743 378 756 421 c 1
 744 413 727 409 707 409 c 0
 636 409 601 445 601 506 c 0
 601 623.476 699.463 687 799 687 c 0
 908 687 958 621 958 528 c 0
 958 346.032 800.152 203 615 203 c 0
 451 203 320 299 320 471 c 0
 320 703.997 537.22 924 808 924 c 0
 1003.92 924 1216 854.2 1216 575 c 0
 1216 386.564 1131.74 255.415 1041 159 c 0
 941 54 771 -10 581 -10 c 0
 418 -10 284 34 209 115 c 1
 325 254 l 1
 391 186 475 146 612 145 c 0
773 603 m 0
 738.891 603 700 574.719 700 532 c 0
 700 505 719 485 750 485 c 0
 792.756 485 827 525.44 827 562 c 0
 827 588 806 603 773 603 c 0
EndSplineSet
EndChar
StartChar: uni0E52
Encoding: 199 3666 201
Width: 1350
Flags: HMW
HStem: 0 174<527.842 1078> 343 110<708.7 821.044> 571 108<742.8 824> 674 157<975 1009> 744 180<1094 1132>
VStem: 295 192<201.18 410.716> 316 194<856.025 1134> 350 181<576.673 991.002> 1158 177<521.783 710.12>
Fore
772 571 m 0xc040
 713.6 571 699 524.75 699 500 c 0
 699 473 718 453 749 453 c 0
 804.418 453 826 503.12 826 525 c 0
 826 549 807 571 772 571 c 0xc040
1132 924 m 1
 1182.76 913.661 1335 818.573 1335 623 c 0
 1335 588 1331 549 1322 506 c 2
 1214 0 l 1
 534 0 l 18
 400 0 295 104 295 250 c 0xc240
 295 407.864 350 557.963 350 818 c 0xc0c0
 350 932 338 1032 316 1134 c 1
 510 1134 l 1xc140
 524 1055 531 967 531 869 c 0xc0c0
 531 644.133 487 376.109 487 314 c 0xc240
 487 227.216 548.878 174 619 174 c 2
 1078 174 l 1
 1149 506 l 2
 1155 536 1158 564 1158 590 c 0
 1158 682.4 1110.99 729.838 1094 744 c 1
 1094 743 1054 720 975 674 c 1
 876 744 l 1
 849 733 823 711 797 679 c 1
 824 679 l 18
 875 679 939 630 939 547 c 0
 939 453.756 853.013 343 732 343 c 0
 623 343 570 415 570 509 c 0
 570 546.138 576.416 660.658 694 790 c 0
 732 832 848 906 914 924 c 1
 914 923 946 892 1009 831 c 1
 1132 924 l 1
EndSplineSet
EndChar
StartChar: uni0E53
Encoding: 200 3667 202
Width: 1400
Flags: HW
HStem: -11 103<352.5 478.476> 210 122<388.315 457.9> 753 171<456.3 699.4 1019.5 1235.3>
VStem: 190 155<137 354> 469 121<125.512 199> 1249 174<435.282 724.7>
Fore
415 210 m 0
 394.955 210 345 193.513 345 137 c 0
 345 107 363 92 398 92 c 0
 459.905 92 469 145.03 469 164 c 0
 469 190 448 210 415 210 c 0
590 199 m 0
 590 123.82 528.498 -11 392 -11 c 0
 286 -11 241 15 218 94 c 0
 200 155 190 254 190 354 c 0
 190 428 196 503 208 561 c 0
 252 768 388 924 599 924 c 0
 748 924 835 862 868 768 c 1
 938 856 1035 924 1163 924 c 0
 1334 924 1423 834 1423 655 c 0
 1423 394.058 1230.29 2.88831 1229 0 c 1
 1053 0 l 1
 1186.22 319.72 1249 475.371 1249 609 c 0
 1249 698 1214 753 1143 753 c 0
 1048 753 965 664 928 570 c 0
 887 465 847 338 820 216 c 1
 690 216 l 1
 716.207 337.744 719 473.17 719 578 c 0
 719 661 670 753 572 753 c 0
 483 753 409 680 391 597 c 0
 374 520 362 450 362 385 c 0
 362 361 364 337 368 314 c 1
 395 326 425 332 454 332 c 0
 538 332 590 275 590 199 c 0
EndSplineSet
EndChar
StartChar: uni0E54
Encoding: 201 3668 203
Width: 1550
Flags: HW
HStem: -6 164<439.257 702.5> 313 115<1105 1179.79> 580 112<1088.07 1206.8> 762 162<338.817 1326>
VStem: 216 177<216.165 517.274> 906 160<417 529.293> 1221 118<449.515 564.773>
Fore
216 369 m 0
 216 608.159 405.036 924 862 924 c 2
 1114 924 l 2
 1326 924 1470 1037 1546 1262 c 1
 1730 1262 l 1
 1613.68 878.156 1344.83 762 1075 762 c 2
 815 762 l 2
 448.705 762 393 488.134 393 391 c 0
 393.529 256.511 481.89 158 624 158 c 0
 685 158 808 182 991 231 c 1
 949 266 906 340 906 417 c 0
 906 503.379 980.521 692 1183 692 c 0
 1273 692 1339 627 1339 544 c 0
 1339 437.042 1236.31 316.716 1105 313 c 1
 1129 282 1160 262 1195 254 c 0
 1295 229 1368 193 1413 145 c 1
 1253 -2 l 1
 1206.36 49.8926 1155.78 76 1042 76 c 0
 940 76 674 -6 579 -6 c 0
 362 -6 216 160 216 369 c 0
1129 428 m 0
 1168.07 428 1221 465.55 1221 519 c 0
 1221 554.21 1195.31 580 1157 580 c 0
 1103.98 580 1066 526.92 1066 487 c 0
 1066 452.79 1091.71 428 1129 428 c 0
EndSplineSet
EndChar
StartChar: uni0E55
Encoding: 202 3669 204
Width: 1550
Flags: HW
HStem: -6 164<451.1 703.3> 313 115<1105 1179.95> 580 112<1088.18 1204.5> 762 160<943.5 1075> 1073 113<967.776 1052.2>
VStem: 216 178<217.9 528.811> 810 117<941.97 1038.42> 906 160<417 541.444> 1080 119<976.757 1053.8> 1220 118<450.918 559.2>
Fore
810 960 m 0xfec0
 810 1074.63 928.719 1186 1045 1186 c 0
 1139 1186 1199 1114 1199 1032 c 0
 1199 989.6 1180.11 948.787 1166 926 c 1
 1351 945 1478 1057 1546 1262 c 1
 1730 1262 l 1
 1613.68 878.156 1344.83 762 1075 762 c 2
 815 762 l 2
 455.897 762 394 498.162 394 396 c 0
 394 259 491 158 624 158 c 0
 685 158 808 182 991 231 c 1
 949 266 906 340 906 417 c 0xfdc0
 906 525.885 1010.28 692 1183 692 c 0
 1274 692 1338 624 1338 540 c 0
 1338 434.335 1234.09 316.654 1105 313 c 1
 1129 282 1159 262 1193 254 c 0
 1293 229 1366 193 1411 145 c 1
 1253 -2 l 1
 1205 49 1156 76 1046 76 c 0
 943.162 75.9846 683.19 -6 579 -6 c 0
 364.94 -6 216 162 216 371 c 0
 216 572.606 367.014 898.88 814 922 c 1
 812 935 810 948 810 960 c 0xfec0
1021 1073 m 0
 980.059 1073 927 1025.4 927 982 c 0xfec0
 927 949 954 922 989 922 c 0
 1014.91 922 1080 957.694 1080 1007 c 0
 1080 1043 1045 1073 1021 1073 c 0
1159 580 m 0
 1104.52 580 1066 528.65 1066 486 c 0xfdc0
 1066 453 1092 428 1127 428 c 0
 1167.73 428 1220 465.706 1220 515 c 0
 1220 549 1194 580 1159 580 c 0
EndSplineSet
EndChar
StartChar: uni0E56
Encoding: 203 3670 205
Width: 1300
Flags: HW
HStem: -16 155<666.58 1038.24> 481 113<590.678 701.672> 760 168<734.828 1136.42>
VStem: 392 169<269 443.112> 717 115<351.854 465.773> 1122 180<269.739 640.96>
Fore
1122 512 m 0
 1122 611.2 1062.25 760 815 760 c 0
 702 760 597 741 497 702 c 1
 448 945 375 1131 280 1262 c 1
 528 1262 l 1
 580 1141 607 1015 610 885 c 1
 692 914 772 928 850 928 c 0
 1150.44 928 1302 758.614 1302 550 c 0
 1302 256.193 1059.22 -16 716 -16 c 0
 496.388 -16 392 133.986 392 269 c 0
 392 419.055 507.145 594 677 594 c 0
 783.953 594 832 509.952 832 447 c 0
 832 354.2 753.561 225.521 601 215 c 1
 612.471 176.647 685.6 139 749 139 c 0
 971.49 139 1122 325.646 1122 512 c 0
621 330 m 0
 664.44 330 717 367.58 717 420 c 0
 717 455.21 690.44 481 653 481 c 0
 605.06 481 561 430.394 561 388 c 0
 561 356 588 330 621 330 c 0
EndSplineSet
EndChar
StartChar: uni0E57
Encoding: 204 3671 206
Width: 1540
Flags: HW
HStem: -16 112<362.3 473.505> 0 178<1080 1210> 248 114<391.104 495.4> 760 164<403.048 626.5 876.7 1023.4>
VStem: 197 155<111.8 242> 507 118<122.62 231.9> 1021 177<498.529 733.84>
Fore
1198 664 m 0xbe
 1198 536.715 1164.98 354.177 1080 178 c 1
 1095 178 l 2
 1210 178 1278 231 1301 338 c 2
 1469 1130 l 1
 1657 1130 l 1
 1488 334 l 2
 1441 111 1297 0 1057 0 c 2
 791 0 l 1x7e
 793 10 l 1
 878.233 111.806 1021 395.8 1021 653 c 0
 1021 715.184 1009 760 961 760 c 0
 887 760 829 662 787 467 c 1
 613 467 l 1
 628 539 636 598 636 643 c 0
 636 721 613 760 568 760 c 0
 441.114 753.982 381.841 383.012 383 348 c 5
 405 357 435 362 472 362 c 0
 575.588 362 625 287.852 625 212 c 0
 625 90.6906 509.002 -16 390 -16 c 0
 259.491 -16 197 81.2813 197 242 c 0
 197 298 204 363 220 436 c 0
 289 761 416 924 602 924 c 0
 694 924 749 875 767 776 c 1
 829 875 904 924 995 924 c 0
 1130 924 1198 837 1198 664 c 0xbe
446 248 m 0
 402.65 248 352 211.2 352 156 c 0
 352 122 374 96 413 96 c 0xbe
 459.542 96 507 137.938 507 189 c 0
 507 222 484 248 446 248 c 0
EndSplineSet
EndChar
StartChar: uni0E58
Encoding: 205 3672 207
Width: 1580
Flags: HW
HStem: -12 165<944.85 1279.52> 283 166<765.3 889.847> 309 115<1244.6 1348.12> 575 113<1246.43 1379.3> 769.792 152.18<580.95 1202.95>
VStem: 214 178<227.407 649.05> 1115 117<439.1 532.528> 1388 161<444.46 561.2>
Fore
949.5 769.792 m 0xdf
 666 769.792 392 720 392 385 c 0
 392 263.774 467.358 178.116 568 170 c 1
 593.509 291.542 672.275 449 808 449 c 0xdf
 1030.5 449 1003.5 153 1199 153 c 0
 1260.94 153 1333.46 220.011 1357 324 c 1
 1336 314 1306 309 1268 309 c 0xbf
 1158.04 309 1115 395.255 1115 458 c 0
 1115 574.693 1227.33 688 1350 688 c 0
 1509.03 688 1549 559.743 1549 471 c 0
 1549 310.663 1431.68 -12 1152 -12 c 0
 933.811 -12 869.806 283 803 283 c 0
 774 283 750 236 730 141 c 2
 700 0 l 1
 575 0 l 2
 340.434 0 214 159.23 214 352 c 0
 214 580.5 328.5 921.971 949.5 921.971 c 0
 1215.64 921.971 1474.66 932.037 1546 1262 c 1
 1730 1262 l 1
 1681 1099 1600 975 1488 888 c 0
 1335.97 772.607 1136.8 769.792 949.5 769.792 c 0xdf
1326 575 m 0
 1264.79 575 1232 520.868 1232 482 c 0
 1232 449 1256 424 1294 424 c 0xbf
 1338.57 424 1388 461.2 1388 517 c 0
 1388 551 1367 575 1326 575 c 0
EndSplineSet
EndChar
StartChar: uni0E59
Encoding: 206 3673 208
Width: 1500
Flags: HW
HStem: -16 112<366.2 469.459> 248 114<393.659 491.5> 555 166<1182.2 1333.7> 760 164<383.56 685.16 991.8 1106.21>
VStem: 197 155<112.5 242> 507 118<123.276 231.2>
Fore
1070 924 m 0
 1197.41 924 1199.46 721 1257 721 c 0
 1316 721 1382 857 1454 1130 c 1
 1639 1130 l 1
 1585.13 923.957 1478.6 555 1238 555 c 0
 1076.4 555 1090.01 760 1036 760 c 0
 1002 760 955 708 896 604 c 1
 999 0 l 1
 825 0 l 1
 737 546 l 2
 705.381 730.443 672.2 760 629 760 c 0
 440.2 760 383 394.797 383 348 c 1
 405 357 435 362 472 362 c 0
 575.588 362 625 287.852 625 212 c 0
 625 90.6906 509.002 -16 390 -16 c 0
 259.491 -16 197 81.2813 197 242 c 0
 197 428.095 290.2 924 663 924 c 0
 766 924 835 875 867 776 c 1
 931 875 998 924 1070 924 c 0
446 248 m 0
 405.738 248 352 209.383 352 158 c 0
 352 123 377 96 413 96 c 0
 456.43 96 507 137.981 507 187 c 0
 507 221 481 248 446 248 c 0
EndSplineSet
EndChar
StartChar: uni0E5A
Encoding: 207 3674 209
Width: 1400
Flags: HW
HStem: 0 21G<845 1025 1065 1253> 646 151<623.89 804.882> 995 111<475.959 588.8>
VStem: 310 140<855 980.798> 602 125<912.821 985.3>
Fore
665 797 m 0
 772.601 797 1004.25 871.646 1083 1120 c 1
 1263 1120 l 1
 1025 0 l 1
 845 0 l 1
 1010 777 l 1
 972.631 749.257 854.387 646 624 646 c 0
 533 646 458 667 402 698 c 0
 354 725 310 788 310 855 c 0
 310 969.1 424.306 1106 584 1106 c 0
 643.875 1106 727 1051.67 727 962 c 0
 727 924.642 706.766 856.417 633 803 c 1
 641 799 652 797 665 797 c 0
542 995 m 0
 491.199 995 450 963.998 450 908 c 0
 450 875 470 858 507 858 c 0
 567.361 858 602 903.547 602 945 c 0
 602 976 578 995 542 995 c 0
1253 0 m 1
 1065 0 l 1
 1303 1120 l 1
 1491 1120 l 1
 1253 0 l 1
EndSplineSet
EndChar
StartChar: uni0E5B
Encoding: 208 3675 210
Width: 2370
Flags: HW
HStem: -10 158<478.448 805.4> 218 108<1877.78 2404> 272 158<665.547 915.318> 340 8<1690 1848> 462 88<659.3 741.247> 658 75<674.406 755.7> 812 174<593 815.445>
VStem: 222 158<232.3 521.207> 479 172<438 639.474> 762 85<567.89 648.2> 934 168<577.389 719>
Fore
2019 218 m 2xdfe0
 1887.94 218 1865.68 340 1848 340 c 0xdfe0
 1804.54 340 1724.65 94 1620 94 c 0
 1555.93 94 1560.83 221.171 1551 297 c 8
 1548 321 1536 351 1525 351 c 0
 1481.82 351 1409.97 88 1311 88 c 0
 1218.84 87.4236 1225 191.93 1225 318 c 0
 1225 330 1227 352 1227 364 c 0
 1227 371 1227 375 1225 375 c 0
 1192.39 375 1178.78 278.669 1033 138 c 0
 925 33 790 -10 602 -10 c 0
 481 -10 387 30 308 130 c 0
 256 195 222 262 222 361 c 0
 222 484.236 269.954 657.186 381 787 c 0
 483 899 638 986 788 986 c 0
 1027.34 986 1102 851.8 1102 710 c 0
 1102 437.057 859.956 272 670 272 c 0
 526.862 272 479 371.6 479 438 c 0
 479 592.98 611.592 733 717 733 c 0
 801 733 847 686 847 626 c 0
 847 539.904 760.5 462 682 462 c 8
 664 462 640 471 640 471 c 1
 645 438 695 430 731 430 c 0xafe0
 872.783 430 934 598.068 934 667 c 0
 934 707 919 733 901 757 c 0
 876 790 797 812 745 812 c 0
 533.305 812 380 597.791 380 398 c 0
 380 233.917 515.498 148 639 148 c 0
 767 148 910 203 985 282 c 0
 1164.03 472.082 1182.19 615 1282 615 c 0
 1335.64 616.656 1359 571.05 1359 497 c 0
 1359 465 1353 423 1353 393 c 0
 1353 372 1356 357 1368 357 c 0
 1409.57 357 1452.22 489.041 1465 518 c 0
 1487 568 1526 615 1588 615 c 0
 1706.75 615 1619.17 348 1690 348 c 0
 1743.89 348 1768.99 507 1868 507 c 0
 1945.92 507 1917.06 326 2048 326 c 2
 2427 326 l 1
 2404 218 l 1
 2019 218 l 2xdfe0
697 550 m 0
 731.036 550 762 579.223 762 617 c 0
 762 641 747 658 718 658 c 0
 684.466 658 651 629.002 651 591 c 0
 651 567 668 550 697 550 c 0
EndSplineSet
EndChar
StartChar: afii301
Encoding: 211 8205 212
Width: 0
Flags: HW
Fore
-22 -275 m 1
 -94 -275 l 1
 201 1114 l 1
 38 978 l 1
 -1 1027 l 1
 206 1196 l 1
 71 1364 l 1
 130 1413 l 1
 264 1242 l 1
 470 1413 l 1
 509 1364 l 1
 302 1196 l 1
 437 1027 l 1
 378 978 l 1
 273 1114 l 1
 -22 -275 l 1
EndSplineSet
EndChar
StartChar: afii299
Encoding: 212 8206 213
Width: 0
Flags: HW
Fore
685 1198 m 1
 422 984 l 1
 384 1033 l 1
 548 1163 l 1
 282 1163 l 1
 -23 -275 l 1
 -94 -275 l 1
 226 1234 l 1
 563 1234 l 1
 454 1364 l 1
 513 1413 l 1
 685 1198 l 1
EndSplineSet
EndChar
StartChar: afii300
Encoding: 213 8207 214
Width: 0
Flags: HW
Fore
-23 -275 m 1
 -94 -275 l 1
 211 1163 l 1
 -55 1163 l 1
 55 1033 l 1
 -5 984 l 1
 -176 1198 l 1
 86 1413 l 1
 125 1364 l 1
 -40 1234 l 1
 297 1234 l 1
 -23 -275 l 1
EndSplineSet
EndChar
StartChar: uni2010
Encoding: 214 8208 215
Width: 973
Flags: MW
HStem: 580 165<348 938 313 973>
Fore
348 745 m 1
 973 745 l 1
 938 580 l 1
 313 580 l 1
 348 745 l 1
EndSplineSet
EndChar
StartChar: endash
Encoding: 215 8211 216
Width: 1125
Flags: MW
HStem: 572 160<152 1244 118 1278>
Fore
1244 572 m 1
 118 572 l 1
 152 732 l 1
 1278 732 l 1
 1244 572 l 1
EndSplineSet
EndChar
StartChar: emdash
Encoding: 216 8212 217
Width: 1886
Flags: MW
HStem: 572 160<152 1988 118 2022>
Fore
1988 572 m 1
 118 572 l 5
 152 732 l 5
 2022 732 l 1
 1988 572 l 1
EndSplineSet
EndChar
StartChar: afii00208
Encoding: 217 8213 218
Width: 1862
Flags: MW
HStem: 572 160<266 1874 232 1908>
Fore
1874 572 m 1
 232 572 l 1
 266 732 l 1
 1908 732 l 1
 1874 572 l 1
EndSplineSet
EndChar
StartChar: underscoredbl
Encoding: 218 8215 219
Width: 1118
Flags: MW
HStem: -423 130<-78 1044 -106 1072> -212 130<-33 1089 -61 1117>
Fore
1089 -212 m 1
 -61 -212 l 1
 -33 -82 l 1
 1117 -82 l 1
 1089 -212 l 1
1044 -423 m 1
 -106 -423 l 1
 -78 -293 l 1
 1072 -293 l 1
 1044 -423 l 1
EndSplineSet
EndChar
StartChar: quoteleft
Encoding: 219 8216 220
Width: 450
Flags: W
VStem: 267 280<997 1556>
Fore
547 997 m 1
 409 997 l 1
 267 1556 l 1
 509 1556 l 1
 547 997 l 1
EndSplineSet
EndChar
StartChar: quoteright
Encoding: 220 8217 221
Width: 580
Flags: W
HStem: 997 559<447 827>
VStem: 309 518<997 1556>
Fore
827 1556 m 1
 447 997 l 1
 309 997 l 1
 585 1556 l 1
 827 1556 l 1
EndSplineSet
EndChar
StartChar: quotesinglbase
Encoding: 221 8218 222
Width: 432
Flags: W
HStem: -276 559<66 446>
VStem: -72 518<-276 283>
Fore
446 283 m 1
 66 -276 l 1
 -72 -276 l 1
 204 283 l 1
 446 283 l 1
EndSplineSet
EndChar
StartChar: quotereversed
Encoding: 222 8219 223
Width: 432
Flags: W
HStem: 997 559<390 666>
VStem: 148 518<997 1556>
Fore
666 1556 m 1
 390 997 l 1
 148 997 l 1
 528 1556 l 1
 666 1556 l 1
EndSplineSet
EndChar
StartChar: quotedblleft
Encoding: 223 8220 224
Width: 850
Flags: W
VStem: 267 670<997 1556>
Fore
937 997 m 1
 803 997 l 1
 661 1556 l 1
 899 1556 l 1
 937 997 l 1
543 997 m 1
 409 997 l 1
 267 1556 l 1
 505 1556 l 1
 543 997 l 1
EndSplineSet
EndChar
StartChar: quotedblright
Encoding: 224 8221 225
Width: 1000
Flags: W
HStem: 997 559<847 1227>
VStem: 319 908<997 1556>
Fore
1227 1556 m 1
 847 997 l 1
 713 997 l 1
 989 1556 l 1
 1227 1556 l 1
833 1556 m 1
 453 997 l 1
 319 997 l 1
 595 1556 l 1
 833 1556 l 1
EndSplineSet
EndChar
StartChar: quotedblbase
Encoding: 225 8222 226
Width: 814
Flags: W
HStem: -276 559<461 841>
VStem: -67 908<-276 283>
Fore
841 283 m 1
 461 -276 l 1
 327 -276 l 1
 603 283 l 1
 841 283 l 1
447 283 m 1
 67 -276 l 1
 -67 -276 l 1
 209 283 l 1
 447 283 l 1
EndSplineSet
EndChar
StartChar: dagger
Encoding: 226 8224 227
Width: 1118
Flags: MW
HStem: 1034 129<382 719 866 1203>
Fore
1203 1034 m 1
 841 1039 l 1
 654 135 l 1
 522 135 l 1
 719 1039 l 1
 355 1034 l 1
 382 1163 l 1
 744 1158 l 1
 824 1556 l 1
 956 1556 l 1
 866 1158 l 1
 1230 1163 l 1
 1203 1034 l 1
EndSplineSet
EndChar
StartChar: daggerdbl
Encoding: 227 8225 228
Width: 1118
Flags: MW
HStem: 507 129<270 607 754 1091> 1049 119<384 721 868 1205>
Fore
1091 507 m 1
 729 512 l 1
 651 124 l 1
 519 124 l 1
 607 512 l 1
 243 507 l 1
 270 636 l 1
 632 631 l 1
 721 1049 l 1
 357 1044 l 1
 384 1173 l 1
 746 1168 l 1
 824 1556 l 1
 956 1556 l 1
 868 1168 l 1
 1232 1173 l 1
 1205 1044 l 1
 843 1049 l 1
 754 631 l 1
 1118 636 l 1
 1091 507 l 1
EndSplineSet
EndChar
StartChar: bullet
Encoding: 228 8226 229
Width: 950
Flags: HW
Fore
966.27 738.566 m 0
 966.27 517.892 758.758 311 531 311 c 0
 340.171 311 246.275 452.963 246.275 584.716 c 0
 246.275 804.146 450.548 1013 680 1013 c 0
 870.415 1013 966.27 872.587 966.27 738.566 c 0
EndSplineSet
EndChar
StartChar: ellipsis
Encoding: 229 8230 230
Width: 1650
Flags: W
HStem: 0 223<224 381 782 939 1340 1497>
Fore
1497 0 m 1
 1293 0 l 1
 1340 223 l 1
 1544 223 l 1
 1497 0 l 1
939 0 m 1
 735 0 l 1
 782 223 l 1
 986 223 l 1
 939 0 l 1
381 0 m 1
 177 0 l 1
 224 223 l 1
 428 223 l 1
 381 0 l 1
EndSplineSet
EndChar
StartChar: perthousand
Encoding: 230 8240 231
Width: 2848
Flags: HW
HStem: -29 133<1431.44 1687.2 2275.44 2531.2> 634 133<482.386 738.2> 721 133<1578.8 1832.58 2422.8 2676.58> 1384 133<628.8 883.574>
VStem: 310.964 176.638<791.183 1018.28> 878.398 177.012<1133.38 1357.44> 1260.17 176.48<128.61 351.557> 1827.4 177.01<470.379 694.438> 2104.17 176.48<128.61 351.557> 2671.4 177.01<470.379 694.438>
Fore
777 1517 m 0xdfc0
 999.728 1517 1055.41 1382.17 1055.41 1240.82 c 0
 1055.41 1123.01 1011.43 874.001 874 742 c 0
 798 670 704 634 590 634 c 0
 405.462 634 310.964 726.98 310.964 912.445 c 0
 310.964 1030.62 355.305 1276.7 492 1408 c 0
 569 1481 663 1517 777 1517 c 0xdfc0
1789 1489 m 1
 693 0 l 1
 528 0 l 1
 1624 1489 l 1
 1789 1489 l 1
1727 854 m 0xbfc0
 1948.93 854 2004.41 719.256 2004.41 577.823 c 0
 2004.41 461.036 1960.66 210.416 1823 80 c 0
 1747 7 1653 -29 1539 -29 c 0
 1397.66 -29 1260.17 26.3692 1260.17 247.846 c 0
 1260.17 363.969 1304.03 613.435 1441 745 c 0
 1518 818 1613 854 1727 854 c 0xbfc0
487.602 911.536 m 0
 487.602 818.957 513.682 767 618 767 c 0xdfc0
 714.552 767 799.114 805.658 858 1076 c 0
 871.51 1140.97 878.398 1196.02 878.398 1240.86 c 0
 878.398 1330.53 852.518 1384 749 1384 c 0
 652.6 1384 566.497 1343.55 508 1075 c 0
 494.49 1010.67 487.602 956.269 487.602 911.536 c 0
1436.65 247.757 m 0
 1436.65 156.105 1462.72 104 1567 104 c 0
 1663.55 104 1748.11 142.658 1807 413 c 0
 1820.51 477.975 1827.4 533.017 1827.4 577.861 c 0
 1827.4 667.535 1801.52 721 1698 721 c 0xbfc0
 1602 721 1513.58 679.329 1458 412 c 0
 1443.76 347.294 1436.65 292.637 1436.65 247.757 c 0
2571 854 m 0
 2792.93 854 2848.41 719.256 2848.41 577.823 c 0
 2848.41 461.036 2804.66 210.416 2667 80 c 0
 2591 7 2497 -29 2383 -29 c 0
 2241.66 -29 2104.17 26.3692 2104.17 247.846 c 0
 2104.17 363.969 2148.03 613.435 2285 745 c 0
 2362 818 2457 854 2571 854 c 0
2280.65 247.757 m 0
 2280.65 156.105 2306.72 104 2411 104 c 0
 2507.55 104 2592.11 142.658 2651 413 c 0
 2664.51 477.975 2671.4 533.017 2671.4 577.861 c 0
 2671.4 667.535 2645.52 721 2542 721 c 0
 2446 721 2357.58 679.329 2302 412 c 0
 2287.76 347.294 2280.65 292.637 2280.65 247.757 c 0
EndSplineSet
EndChar
StartChar: minute
Encoding: 231 8242 232
Width: 602
Flags: W
HStem: 870 619<458 887>
VStem: 322 565<870 1489>
Fore
887 1489 m 1
 458 870 l 1
 322 870 l 1
 647 1489 l 1
 887 1489 l 1
EndSplineSet
EndChar
StartChar: second
Encoding: 232 8243 233
Width: 972
Flags: W
HStem: 870 619<454 883>
VStem: 322 955<870 1489>
Fore
883 1489 m 1
 454 870 l 1
 322 870 l 1
 647 1489 l 1
 883 1489 l 1
1277 1489 m 1
 848 870 l 1
 716 870 l 1
 1041 1489 l 1
 1277 1489 l 1
EndSplineSet
EndChar
StartChar: guilsinglleft
Encoding: 233 8249 234
Width: 784
Flags: HW
Fore
670 172 m 1
 252 608 l 1
 271 697 l 1
 874 1132 l 1
 831 933 l 1
 441 652 l 1
 712 371 l 1
 670 172 l 1
EndSplineSet
EndChar
StartChar: guilsinglright
Encoding: 234 8250 235
Width: 784
Flags: HW
Fore
790 608 m 1
 188 172 l 1
 230 371 l 1
 621 652 l 1
 349 933 l 1
 392 1132 l 1
 809 697 l 1
 790 608 l 1
EndSplineSet
EndChar
StartChar: uni203E
Encoding: 236 8254 237
Width: 1118
Flags: W
HStem: 1658 131<332 1470>
Fore
1470 1658 m 1
 304 1658 l 1
 332 1789 l 1
 1498 1789 l 1
 1470 1658 l 1
EndSplineSet
EndChar
StartChar: fraction
Encoding: 237 8260 238
Width: 886
Flags: HW
Fore
1232 1489 m 1
 136 0 l 1
 -29 0 l 1
 1067 1489 l 1
 1232 1489 l 1
EndSplineSet
EndChar
StartChar: uni207F
Encoding: 238 8319 239
Width: 1010
Flags: HW
HStem: 1368 151<820.297 954.528>
VStem: 973.627 177.903<1187.35 1363.64>
Fore
909 1519 m 0
 1103.02 1519 1151.53 1396.18 1151.53 1285.57 c 0
 1151.53 1249 1146.65 1208.16 1137 1163 c 2
 1010 566 l 1
 838 566 l 1
 949 1088 l 2
 966.028 1168.03 973.627 1217.4 973.627 1249.75 c 0
 973.627 1337.36 926.252 1368 832 1368 c 0
 778.2 1368 710.072 1355.11 563 1254 c 1
 416 566 l 1
 245 566 l 1
 441 1488 l 1
 612 1488 l 1
 591 1388 l 1
 758.333 1509.17 845.4 1519 909 1519 c 0
EndSplineSet
EndChar
StartChar: dottedcircle
Encoding: 239 9676 240
Width: 1255
Flags: HW
HStem: 7 121<586.217 665.585> 68 121<891.485 972.721> 98 121<336.081 418.553> 234 121<1089.55 1171.58> 249 121<227.696 309.895> 438 121<1206.7 1288.69> 445 121<149.094 227.941> 679 121<208.704 300.057 1243.7 1335.08> 868 121<359.485 440.721> 891 121<1188.22 1267.58> 1011 121<578.696 659.605> 1034 121<1026.09 1105.58> 1079 121<814.704 906.076>
VStem: 558.262 123.879<53.0513 81.035 1056.68 1106.94>
Fore
338.7 914.051 m 0x0184
 338.7 952.728 371.834 989 413 989 c 0
 442.843 989 462.738 970.338 462.738 942.346 c 0
 462.738 903.407 428.324 868 387 868 c 0
 358.02 868 338.7 886.42 338.7 914.051 c 0x0184
558.262 1056.68 m 0
 558.262 1095.35 591.228 1132 633 1132 c 0
 662.485 1132 682.141 1112.64 682.141 1083.6 c 0
 682.141 1044.61 647.465 1011 607 1011 c 0x0124
 578.401 1011 558.262 1028.98 558.262 1056.68 c 0
798.262 1124.68 m 0
 798.262 1158.54 828.157 1200 873 1200 c 0
 901.676 1200 922.738 1181.33 922.738 1153.32 c 0
 922.738 1117.91 892.443 1079 847 1079 c 0x010c
 819.135 1079 798.262 1096.98 798.262 1124.68 c 0
127.859 492.398 m 0
 127.859 529.145 161.303 566 202 566 c 0
 230.676 566 251.738 547.328 251.738 519.321 c 0
 251.738 477.555 216.185 445 177 445 c 0x0304
 148.278 445 127.859 461.566 127.859 492.398 c 0
207.262 294.679 m 0
 207.262 333.344 240.227 370 282 370 c 0
 311.475 370 331.125 349.309 331.125 321.344 c 0
 331.125 284.894 297.458 249 256 249 c 0x0904
 227.401 249 207.262 266.979 207.262 294.679 c 0
318.236 143.367 m 0
 318.236 181.265 349.216 219 393 219 c 0
 412.656 219 442.141 209.324 442.141 170.619 c 0
 442.141 134.057 408.454 98 367 98 c 0x2104
 339.151 98 318.236 114.771 318.236 143.367 c 0
563.7 53.0513 m 0
 563.7 92.4039 598.167 128 638 128 c 0
 672.525 128 687.714 101.757 687.714 81.035 c 0
 687.714 42.3066 653.219 7 612 7 c 0x8104
 583.02 7 563.7 25.4205 563.7 53.0513 c 0
870.7 114.051 m 0
 870.7 152.728 903.834 189 945 189 c 0
 974.843 189 994.738 170.338 994.738 142.346 c 0
 994.738 103.407 960.324 68 919 68 c 0x4104
 890.02 68 870.7 86.4204 870.7 114.051 c 0
1071.86 281.398 m 0
 1071.86 315.574 1102.58 355 1146 355 c 0
 1175.84 355 1195.74 336.338 1195.74 308.346 c 0
 1195.74 267.259 1159.91 234 1121 234 c 0x1104
 1092.28 234 1071.86 250.566 1071.86 281.398 c 0
1190.26 483.679 m 0
 1190.26 519.413 1220.16 559 1265 559 c 0
 1284.72 559 1314.3 549.594 1314.3 511.972 c 0
 1314.3 469.352 1277.22 438 1239 438 c 0x0504
 1210.4 438 1190.26 455.98 1190.26 483.679 c 0
1227.26 724.679 m 0
 1227.26 758.544 1257.16 800 1302 800 c 0
 1330.68 800 1351.74 781.328 1351.74 753.321 c 0
 1351.74 717.912 1321.44 679 1276 679 c 0
 1248.13 679 1227.26 696.98 1227.26 724.679 c 0
1165.7 937.051 m 0
 1165.7 976.404 1200.17 1012 1240 1012 c 0
 1274.52 1012 1289.71 985.758 1289.71 965.035 c 0
 1289.71 926.3 1255.22 891 1214 891 c 0x0144
 1185.02 891 1165.7 909.42 1165.7 937.051 c 0
1008.24 1079.37 m 0
 1008.24 1117.27 1039.22 1155 1083 1155 c 0
 1114.52 1155 1132.12 1133.65 1132.12 1106.36 c 0
 1132.12 1066.51 1094.37 1034 1057 1034 c 0x0114
 1029.15 1034 1008.24 1050.77 1008.24 1079.37 c 0
192.262 724.679 m 0
 192.262 758.544 222.157 800 267 800 c 0
 301.525 800 316.714 773.757 316.714 753.035 c 0
 316.714 719.635 286.428 679 241 679 c 0
 213.136 679 192.262 696.979 192.262 724.679 c 0
EndSplineSet
EndChar
StartChar: uni0E10.descless
Encoding: 240 63232 241
Width: 1130
Flags: HW
HStem: -10 160<584.5 773> 290 113<309 401.403> 571 126<299.84 463.9> 913 152<1011 1187> 998 151<609.6 1028.33>
VStem: 198 106<420.8 511.175> 406 166<161.6 276.368> 475 144<471.731 562.8> 871 171<547 658.8>
Fore
198 424 m 0xee80
 198 512.182 249 697 453 697 c 0
 562 697 619 636 619 524 c 0xed80
 619 495 616 463 608 428 c 2
 577 283 l 2
 573 266 572 251 572 237 c 0
 572 179 604 150 669 150 c 0
 749 151 798 194 816 279 c 2
 869 529 l 2
 870 535 871 541 871 547 c 0
 871 633 708.02 692.315 242 762 c 1
 380 1020 564 1149 793 1149 c 0xee80
 1008.25 1146.53 1051.62 1065 1187 1065 c 0
 1208 1065 1227 1067 1245 1072 c 1
 1173 917 l 1
 1158 915 1143 913 1128 913 c 0xf680
 988.986 913 967.101 998 763 998 c 0
 645 998 570.717 956.16 509 872 c 1
 820.628 805.897 1042 751.625 1042 604 c 0
 1042 595 1041 584 1039 574 c 2
 976 279 l 2
 934 86 821 -10 635 -10 c 0
 482 -10 406 56 406 187 c 0
 406 216 410 248 417 283 c 2
 424 317 l 1
 410 303 387 290 355 290 c 0
 255 290 198 334 198 424 c 0xee80
408 571 m 0
 324.8 571 304 499.6 304 465 c 0
 304 431 321 403 361 403 c 0
 460.828 403 475 493.087 475 516 c 0
 475 552 451 571 408 571 c 0
EndSplineSet
EndChar
StartChar: uni0E48.low
Encoding: 250 63242 251
Width: 0
Flags: W
AnchorPoint: "AboveBase" 80.8066 1227 mark 0
Fore
27 1586 m 1
 169 1586 l 1
 110 1306 l 1
 -32 1306 l 1
 27 1586 l 1
EndSplineSet
EndChar
StartChar: uni0E49.low
Encoding: 251 63243 252
Width: 0
Flags: W
HStem: 1428 71<-387.9 -330.977> 1628 82<-360.64 -280.3>
VStem: -493 93<1514.3 1611.28> -269 111<1527.13 1612.4>
AnchorPoint: "AboveBase" 20.8066 1227 mark 0
Fore
-318 1628 m 0
 -350.8 1628 -400 1597.6 -400 1552 c 0
 -400 1523 -378 1499 -345 1499 c 0
 -309.788 1499 -269 1535.5 -269 1576 c 0
 -269 1604 -289 1628 -318 1628 c 0
-244 1388 m 1
 20.4796 1479.71 122.008 1657.02 143 1696 c 1
 285 1696 l 1
 182.228 1468.55 -76.0776 1289.2 -408 1246 c 8
 -432 1243 -469 1243 -469 1243 c 1
 -452 1323 l 1
 -419.416 1330.67 -360.828 1354.64 -322 1442 c 1
 -341 1433 -362 1428 -384 1428 c 0
 -448.023 1428 -493 1461.97 -493 1525 c 0
 -493 1637.28 -392.101 1710 -318 1710 c 0
 -183.306 1710 -158 1634.4 -158 1584 c 0
 -158 1554.87 -175.033 1460.6 -244 1388 c 1
EndSplineSet
EndChar
StartChar: uni0E4A.low
Encoding: 252 63244 253
Width: 0
Flags: MW
HStem: 1242 88<-360 -249.88> 1411 78<-337.88 -258.993> 1477 134<-141 -113> 1594 134<26 54>
VStem: -516 127<1383.69 1469.1> -252 75<1351.28 1401> 86 129<1436.31 1542.4>
AnchorPoint: "AboveBase" 260.807 1227 mark 0
Fore
-305 1330 m 0
 -262.6 1330 -252 1368.15 -252 1381 c 0
 -252 1399 -268 1411 -289 1411 c 0
 -326.6 1411 -336 1371.75 -336 1359 c 0
 -336 1342 -323 1330 -305 1330 c 0
54 1728 m 1
 149.257 1693.85 215 1592.16 215 1500 c 0
 215 1465.2 204.268 1429.3 198 1413 c 1
 413 1743 l 1
 547 1743 l 1
 347 1406 l 2
 281.176 1296.29 153.143 1252.71 -8 1246 c 1
 50.3092 1313.18 86 1392.71 86 1467 c 0
 86 1525 63 1569 26 1594 c 1
 -141 1477 l 1
 -175 1512 -220 1567 -255 1594 c 1
 -360.305 1554.94 -389 1457.08 -389 1417 c 0
 -389 1408 -388 1399 -385 1391 c 1
 -380.792 1454.12 -324.676 1489 -267 1489 c 0
 -208 1489 -177 1445 -177 1401 c 0
 -177 1355.58 -213.6 1242 -360 1242 c 0
 -429.606 1242 -516 1273.4 -516 1399 c 0
 -516 1610.95 -287.831 1709.41 -227 1728 c 1
 -113 1611 l 1
 54 1728 l 1
EndSplineSet
EndChar
StartChar: uni0E4B.low
Encoding: 253 63245 254
Width: 0
Flags: W
HStem: 1370 142<-148 -35 137 249>
AnchorPoint: "AboveBase" 200.807 1227 mark 0
Fore
249 1370 m 1
 107 1370 l 1
 77 1228 l 1
 -65 1228 l 1
 -35 1370 l 1
 -177 1370 l 1
 -147 1512 l 1
 -5 1512 l 1
 26 1654 l 1
 168 1654 l 1
 137 1512 l 1
 279 1512 l 1
 249 1370 l 1
EndSplineSet
EndChar
StartChar: uni0E4C.low
Encoding: 254 63246 255
Width: 0
Flags: W
HStem: 1248 84<-284.3 -155.858>
VStem: -412 111<1352.5 1467.2> -106 104<1357.43 1497>
AnchorPoint: "AboveBase" -39.1934 1227 mark 0
Fore
-2 1450 m 0
 -2 1370.68 -80.4398 1248 -221 1248 c 0
 -287 1248 -361 1274 -384 1310 c 0
 -402 1339 -412 1363 -412 1398 c 0
 -412 1496.99 -346.614 1570.1 -311 1596 c 0
 -190.428 1683.42 43.7886 1656.09 158 1796 c 1
 313 1796 l 1
 274.025 1728.16 127.492 1608.4 -84 1569 c 1
 -12.1766 1552.68 -2 1501.63 -2 1450 c 0
-218 1332 m 0
 -170.198 1332 -106 1377.64 -106 1445 c 0
 -106 1485 -132 1512 -185 1512 c 0
 -254.6 1512 -301 1451.93 -301 1401 c 0
 -301 1362 -269 1332 -218 1332 c 0
EndSplineSet
EndChar
StartChar: uni0E0D.descless
Encoding: 255 63247 256
Width: 1745
Flags: HW
HStem: -11 116<346.9 496.879> 0 176<1090 1500> 273 124<425.144 495> 989 160<616.2 1007.5>
VStem: 202 137<122.5 233.417> 509 113<155.598 265> 1045 168<708.731 954.4>
Fore
622 265 m 0x7e
 622 170.491 571.326 -9.33602 360 -11 c 0xbe
 255 -6 202 51 202 158 c 0
 202 188 206 221 214 258 c 2
 245 403 l 2
 267 508 329 598 431 671 c 1
 416 730 359 770 258 792 c 1
 414 1030 608 1149 840 1149 c 0
 1087 1149 1213 1038 1213 825 c 0
 1213 779 1208 728 1196 673 c 2
 1090 176 l 1
 1500 176 l 1
 1705 1139 l 1
 1865 1139 l 1
 1623 0 l 1
 893 0 l 1
 1033 657 l 2
 1041 695 1045 730 1045 762 c 0
 1045 910 961 989 806 989 c 0
 660 989 540 934 443 825 c 1
 519 808 570 754 598 663 c 1
 491 592 426 505 405 403 c 2
 397 369 l 1
 417 387 444 396 479 397 c 0
 579 396 622 348 622 265 c 0x7e
443 273 m 0
 374.412 273 339 218.321 339 168 c 0
 339 133 358 105 395 105 c 0
 473.369 105 509 169.306 509 215 c 0
 509 251 483 273 443 273 c 0
EndSplineSet
EndChar
StartChar: uniF71B
Encoding: 267 63259 268
Width: 1000
Flags: W
HStem: 1065 20G<446 1061>
VStem: 228 833<61 1085>
Fore
1061 1085 m 1
 843 61 l 1
 228 61 l 1
 446 1085 l 1
 1061 1085 l 1
EndSplineSet
EndChar
StartChar: uniF71C
Encoding: 268 63260 269
Width: 700
Flags: W
HStem: -423 269<17 211>
VStem: 17 436<-423 -154>
Fore
17 -423 m 1
 211 -154 l 1
 453 -154 l 1
 155 -423 l 1
 17 -423 l 1
EndSplineSet
EndChar
StartChar: uniF71D
Encoding: 269 63261 270
Width: 800
Flags: MW
HStem: -127 102<239 505>
Fore
566 -236 m 1
 482 -236 l 1
 505 -127 l 1
 239 -127 l 1
 216 -236 l 1
 132 -236 l 1
 177 -25 l 1
 611 -25 l 1
 566 -236 l 1
EndSplineSet
EndChar
StartChar: afii61664
Encoding: 210 8204 271
Width: 0
Flags: HW
Fore
310 1289 m 1
 -22 -275 l 1
 -94 -275 l 1
 238 1289 l 1
 310 1289 l 1
EndSplineSet
EndChar
